<svg class="main-svg" xmlns="http://www.w3.org/2000/svg" xmlns:xlink="http://www.w3.org/1999/xlink" width="700" height="500" style="" viewBox="0 0 700 500"><rect x="0" y="0" width="700" height="500" style="fill: rgb(255, 255, 255); fill-opacity: 1;"/><defs id="defs-880101"><g class="clips"><clipPath id="clip880101xyplot" class="plotclip"><rect width="516" height="320"/></clipPath><clipPath class="axesclip" id="clip880101x"><rect x="80" y="0" width="516" height="500"/></clipPath><clipPath class="axesclip" id="clip880101y"><rect x="0" y="100" width="700" height="320"/></clipPath><clipPath class="axesclip" id="clip880101xy"><rect x="80" y="100" width="516" height="320"/></clipPath></g><g class="gradients"/><g class="patterns"/></defs><g class="bglayer"><rect class="bg" x="80" y="100" width="516" height="320" style="fill: rgb(229, 236, 246); fill-opacity: 1; stroke-width: 0;"/></g><g class="layer-below"><g class="imagelayer"/><g class="shapelayer"/></g><g class="cartesianlayer"><g class="subplot xy"><g class="layer-subplot"><g class="shapelayer"/><g class="imagelayer"/></g><g class="gridlayer"><g class="x"/><g class="y"><path class="ygrid crisp" transform="translate(0,354.96000000000004)" d="M80,0h516" style="stroke: rgb(255, 255, 255); stroke-opacity: 1; stroke-width: 1px;"/><path class="ygrid crisp" transform="translate(0,291.91999999999996)" d="M80,0h516" style="stroke: rgb(255, 255, 255); stroke-opacity: 1; stroke-width: 1px;"/><path class="ygrid crisp" transform="translate(0,228.88)" d="M80,0h516" style="stroke: rgb(255, 255, 255); stroke-opacity: 1; stroke-width: 1px;"/><path class="ygrid crisp" transform="translate(0,165.84)" d="M80,0h516" style="stroke: rgb(255, 255, 255); stroke-opacity: 1; stroke-width: 1px;"/><path class="ygrid crisp" transform="translate(0,102.8)" d="M80,0h516" style="stroke: rgb(255, 255, 255); stroke-opacity: 1; stroke-width: 1px;"/></g></g><g class="zerolinelayer"><path class="yzl zl crisp" transform="translate(0,418)" d="M80,0h516" style="stroke: rgb(255, 255, 255); stroke-opacity: 1; stroke-width: 2px;"/></g><path class="xlines-below"/><path class="ylines-below"/><g class="overlines-below"/><g class="xaxislayer-below"/><g class="yaxislayer-below"/><g class="overaxes-below"/><g class="plot" transform="translate(80,100)" clip-path="url(#clip880101xyplot)"><g class="violinlayer mlayer"><g class="trace violins" style="opacity: 1;"><path class="violin" d="M43.52,301Q44.03,299.11 44.33,298.17C44.63,297.22 44.97,296.29 45.34,295.35C45.71,294.4 46.12,293.46 46.54,292.52C46.96,291.58 47.41,290.64 47.86,289.7C48.31,288.76 48.77,287.82 49.23,286.88C49.69,285.94 50.16,284.99 50.6,284.05C51.04,283.11 51.48,282.17 51.89,281.23C52.3,280.29 52.7,279.35 53.08,278.4C53.45,277.46 53.81,276.52 54.15,275.58C54.49,274.64 54.81,273.7 55.11,272.76C55.41,271.82 55.68,270.87 55.94,269.93C56.2,268.99 56.44,268.05 56.65,267.11C56.86,266.17 57.05,265.22 57.2,264.28C57.35,263.34 57.47,262.4 57.56,261.46C57.65,260.52 57.7,259.57 57.73,258.63C57.76,257.69 57.74,256.75 57.72,255.81C57.7,254.87 57.63,253.93 57.58,252.99C57.53,252.05 57.46,251.1 57.4,250.16C57.34,249.22 57.27,248.28 57.21,247.34C57.15,246.4 57.09,245.45 57.04,244.51C56.99,243.57 56.94,242.63 56.89,241.69C56.84,240.75 56.79,239.81 56.74,238.87C56.69,237.93 56.64,236.98 56.58,236.04C56.52,235.1 56.45,234.16 56.38,233.22C56.31,232.28 56.23,231.33 56.14,230.39C56.05,229.45 55.96,228.51 55.86,227.57C55.76,226.63 55.64,225.69 55.52,224.75C55.39,223.81 55.25,222.86 55.11,221.92C54.97,220.98 54.81,220.04 54.66,219.1C54.51,218.16 54.35,217.21 54.19,216.27C54.03,215.33 53.87,214.39 53.72,213.45C53.57,212.51 53.43,211.57 53.3,210.63C53.17,209.69 53.06,208.74 52.95,207.8C52.84,206.86 52.74,205.92 52.65,204.98C52.56,204.04 52.47,203.09 52.39,202.15C52.31,201.21 52.24,200.27 52.16,199.33C52.08,198.39 52,197.45 51.92,196.51C51.84,195.57 51.76,194.62 51.68,193.68C51.6,192.74 51.52,191.8 51.44,190.86C51.36,189.92 51.27,188.97 51.18,188.03C51.09,187.09 51,186.15 50.9,185.21C50.8,184.27 50.69,183.33 50.59,182.39C50.48,181.45 50.38,180.5 50.27,179.56C50.16,178.62 50.04,177.68 49.92,176.74C49.8,175.8 49.68,174.85 49.56,173.91C49.44,172.97 49.32,172.03 49.2,171.09C49.08,170.15 48.95,169.21 48.84,168.27C48.72,167.33 48.62,166.38 48.51,165.44C48.4,164.5 48.3,163.56 48.2,162.62C48.1,161.68 48.01,160.73 47.91,159.79C47.82,158.85 47.72,157.91 47.63,156.97C47.54,156.03 47.46,155.09 47.37,154.15C47.28,153.21 47.2,152.26 47.11,151.32C47.02,150.38 46.92,149.44 46.83,148.5C46.74,147.56 46.65,146.61 46.55,145.67C46.45,144.73 46.35,143.79 46.25,142.85C46.15,141.91 46.05,140.97 45.96,140.03C45.86,139.09 45.77,138.14 45.68,137.2C45.59,136.26 45.5,135.32 45.41,134.38C45.32,133.44 45.23,132.49 45.15,131.55C45.07,130.61 44.99,129.67 44.91,128.73C44.83,127.79 44.75,126.85 44.68,125.91C44.6,124.97 44.53,124.02 44.46,123.08C44.39,122.14 44.33,121.2 44.27,120.26C44.21,119.32 44.15,118.37 44.09,117.43C44.03,116.49 43.98,115.55 43.93,114.61C43.88,113.67 43.84,112.73 43.79,111.79C43.74,110.85 43.69,109.9 43.64,108.96C43.59,108.02 43.53,107.08 43.48,106.14C43.42,105.2 43.37,104.25 43.31,103.31C43.25,102.37 43.18,101.43 43.11,100.49C43.04,99.55 42.96,98.61 42.89,97.67Q42.82,96.73 42.67,94.84L41.18,94.84Q41.03,96.73 40.96,97.67C40.89,98.61 40.81,99.55 40.74,100.49C40.67,101.43 40.6,102.37 40.54,103.31C40.48,104.25 40.43,105.2 40.37,106.14C40.32,107.08 40.26,108.02 40.21,108.96C40.16,109.9 40.11,110.85 40.06,111.79C40.01,112.73 39.97,113.67 39.92,114.61C39.87,115.55 39.82,116.49 39.76,117.43C39.7,118.37 39.64,119.32 39.58,120.26C39.52,121.2 39.46,122.14 39.39,123.08C39.32,124.02 39.25,124.97 39.17,125.91C39.1,126.85 39.02,127.79 38.94,128.73C38.86,129.67 38.78,130.61 38.7,131.55C38.62,132.49 38.53,133.44 38.44,134.38C38.35,135.32 38.26,136.26 38.17,137.2C38.08,138.14 37.99,139.09 37.89,140.03C37.8,140.97 37.7,141.91 37.6,142.85C37.5,143.79 37.4,144.73 37.3,145.67C37.2,146.61 37.11,147.56 37.02,148.5C36.93,149.44 36.83,150.38 36.74,151.32C36.65,152.26 36.57,153.21 36.48,154.15C36.39,155.09 36.31,156.03 36.22,156.97C36.13,157.91 36.03,158.85 35.94,159.79C35.84,160.73 35.75,161.68 35.65,162.62C35.55,163.56 35.45,164.5 35.34,165.44C35.23,166.38 35.13,167.33 35.01,168.27C34.9,169.21 34.77,170.15 34.65,171.09C34.53,172.03 34.41,172.97 34.29,173.91C34.17,174.85 34.05,175.8 33.93,176.74C33.81,177.68 33.69,178.62 33.58,179.56C33.47,180.5 33.37,181.45 33.26,182.39C33.16,183.33 33.05,184.27 32.95,185.21C32.85,186.15 32.76,187.09 32.67,188.03C32.58,188.97 32.49,189.92 32.41,190.86C32.33,191.8 32.25,192.74 32.17,193.68C32.09,194.62 32.01,195.57 31.93,196.51C31.85,197.45 31.77,198.39 31.69,199.33C31.61,200.27 31.54,201.21 31.46,202.15C31.38,203.09 31.29,204.04 31.2,204.98C31.11,205.92 31.01,206.86 30.9,207.8C30.79,208.74 30.68,209.69 30.55,210.63C30.42,211.57 30.28,212.51 30.13,213.45C29.98,214.39 29.82,215.33 29.66,216.27C29.5,217.21 29.34,218.16 29.19,219.1C29.04,220.04 28.88,220.98 28.74,221.92C28.6,222.86 28.46,223.81 28.33,224.75C28.21,225.69 28.09,226.63 27.99,227.57C27.89,228.51 27.8,229.45 27.71,230.39C27.62,231.33 27.54,232.28 27.47,233.22C27.4,234.16 27.33,235.1 27.27,236.04C27.21,236.98 27.16,237.93 27.11,238.87C27.06,239.81 27.01,240.75 26.96,241.69C26.91,242.63 26.86,243.57 26.81,244.51C26.76,245.45 26.7,246.4 26.64,247.34C26.58,248.28 26.51,249.22 26.45,250.16C26.39,251.1 26.32,252.05 26.27,252.99C26.22,253.93 26.15,254.87 26.13,255.81C26.11,256.75 26.09,257.69 26.12,258.63C26.15,259.57 26.2,260.52 26.29,261.46C26.38,262.4 26.5,263.34 26.65,264.28C26.8,265.22 26.99,266.17 27.2,267.11C27.41,268.05 27.65,268.99 27.91,269.93C28.17,270.87 28.44,271.82 28.74,272.76C29.04,273.7 29.36,274.64 29.7,275.58C30.04,276.52 30.4,277.46 30.77,278.4C31.15,279.35 31.55,280.29 31.96,281.23C32.37,282.17 32.81,283.11 33.25,284.05C33.69,284.99 34.16,285.94 34.62,286.88C35.08,287.82 35.54,288.76 35.99,289.7C36.44,290.64 36.89,291.58 37.31,292.52C37.73,293.46 38.14,294.4 38.51,295.35C38.88,296.29 39.22,297.22 39.52,298.17Q39.82,299.11 40.33,301Z" style="vector-effect: non-scaling-stroke; stroke-width: 2px; stroke: rgb(99, 110, 250); stroke-opacity: 1; fill: rgb(99, 110, 250); fill-opacity: 0.5;"/><path class="violin" d="M171.31,304Q171.42,302.11 171.49,301.17C171.56,300.22 171.63,299.28 171.71,298.33C171.79,297.39 171.89,296.44 171.99,295.5C172.09,294.55 172.21,293.61 172.33,292.66C172.45,291.72 172.58,290.77 172.72,289.83C172.86,288.88 173.01,287.94 173.17,286.99C173.33,286.05 173.5,285.1 173.67,284.16C173.84,283.21 174.03,282.27 174.21,281.32C174.39,280.38 174.58,279.43 174.77,278.49C174.96,277.54 175.15,276.6 175.34,275.65C175.53,274.71 175.73,273.76 175.92,272.82C176.11,271.87 176.3,270.93 176.49,269.98C176.68,269.04 176.87,268.09 177.06,267.15C177.25,266.2 177.43,265.26 177.61,264.31C177.79,263.37 177.96,262.42 178.12,261.48C178.29,260.53 178.45,259.59 178.6,258.64C178.75,257.7 178.9,256.75 179.04,255.81C179.19,254.86 179.33,253.92 179.47,252.97C179.61,252.03 179.75,251.08 179.89,250.14C180.03,249.19 180.18,248.25 180.32,247.3C180.46,246.36 180.6,245.41 180.74,244.47C180.88,243.52 181.01,242.58 181.14,241.63C181.27,240.69 181.39,239.74 181.51,238.8C181.63,237.85 181.74,236.91 181.85,235.96C181.96,235.02 182.06,234.07 182.16,233.13C182.26,232.18 182.36,231.24 182.45,230.29C182.54,229.35 182.63,228.4 182.72,227.46C182.81,226.51 182.89,225.57 182.97,224.62C183.05,223.68 183.13,222.73 183.2,221.79C183.27,220.84 183.33,219.9 183.4,218.95C183.46,218.01 183.53,217.06 183.59,216.12C183.65,215.17 183.71,214.23 183.77,213.28C183.83,212.34 183.88,211.39 183.93,210.45C183.98,209.5 184.02,208.56 184.06,207.61C184.09,206.67 184.12,205.72 184.14,204.78C184.16,203.84 184.18,202.89 184.18,201.95C184.18,201 184.17,200.06 184.16,199.11C184.15,198.17 184.13,197.22 184.11,196.28C184.09,195.33 184.06,194.39 184.03,193.44C184,192.5 183.97,191.55 183.94,190.61C183.91,189.66 183.88,188.72 183.85,187.77C183.82,186.83 183.78,185.88 183.75,184.94C183.72,183.99 183.69,183.05 183.66,182.1C183.63,181.16 183.6,180.21 183.57,179.27C183.54,178.32 183.52,177.38 183.5,176.43C183.48,175.49 183.45,174.54 183.43,173.6C183.4,172.65 183.38,171.71 183.35,170.76C183.32,169.82 183.28,168.87 183.24,167.93C183.19,166.98 183.14,166.04 183.08,165.09C183.02,164.15 182.96,163.2 182.89,162.26C182.82,161.31 182.75,160.37 182.67,159.42C182.59,158.48 182.51,157.53 182.42,156.59C182.33,155.64 182.24,154.7 182.13,153.75C182.02,152.81 181.9,151.86 181.76,150.92C181.62,149.97 181.46,149.02 181.29,148.08C181.12,147.13 180.92,146.19 180.72,145.25C180.52,144.3 180.3,143.36 180.08,142.41C179.86,141.47 179.62,140.52 179.4,139.58C179.18,138.63 178.96,137.69 178.75,136.74C178.54,135.8 178.33,134.86 178.14,133.91C177.95,132.97 177.76,132.02 177.59,131.07C177.42,130.13 177.25,129.18 177.1,128.24C176.94,127.29 176.8,126.35 176.66,125.4C176.52,124.46 176.4,123.51 176.27,122.57C176.14,121.62 176.02,120.68 175.9,119.73C175.78,118.79 175.66,117.84 175.54,116.9C175.42,115.95 175.31,115.01 175.19,114.06C175.07,113.12 174.95,112.17 174.82,111.23C174.69,110.28 174.57,109.34 174.43,108.39C174.29,107.45 174.15,106.5 174,105.56C173.85,104.62 173.69,103.67 173.53,102.73C173.37,101.78 173.21,100.84 173.05,99.89C172.89,98.95 172.73,98 172.58,97.06Q172.43,96.11 172.14,94.22L169.71,94.22Q169.42,96.11 169.27,97.06C169.12,98 168.96,98.95 168.8,99.89C168.64,100.84 168.48,101.78 168.32,102.73C168.16,103.67 168,104.62 167.85,105.56C167.7,106.5 167.56,107.45 167.42,108.39C167.28,109.34 167.16,110.28 167.03,111.23C166.9,112.17 166.78,113.12 166.66,114.06C166.54,115.01 166.43,115.95 166.31,116.9C166.19,117.84 166.07,118.79 165.95,119.73C165.83,120.68 165.71,121.62 165.58,122.57C165.45,123.51 165.33,124.46 165.19,125.4C165.05,126.35 164.91,127.29 164.75,128.24C164.6,129.18 164.43,130.13 164.26,131.07C164.09,132.02 163.9,132.97 163.71,133.91C163.52,134.86 163.31,135.8 163.1,136.74C162.89,137.69 162.67,138.63 162.45,139.58C162.23,140.52 161.99,141.47 161.77,142.41C161.55,143.36 161.33,144.3 161.13,145.25C160.93,146.19 160.73,147.13 160.56,148.08C160.39,149.02 160.23,149.97 160.09,150.92C159.95,151.86 159.83,152.81 159.72,153.75C159.61,154.7 159.52,155.64 159.43,156.59C159.34,157.53 159.26,158.48 159.18,159.42C159.1,160.37 159.03,161.31 158.96,162.26C158.89,163.2 158.83,164.15 158.77,165.09C158.71,166.04 158.66,166.98 158.61,167.93C158.57,168.87 158.53,169.82 158.5,170.76C158.47,171.71 158.45,172.65 158.42,173.6C158.4,174.54 158.37,175.49 158.35,176.43C158.33,177.38 158.31,178.32 158.28,179.27C158.25,180.21 158.22,181.16 158.19,182.1C158.16,183.05 158.13,183.99 158.1,184.94C158.07,185.88 158.03,186.83 158,187.77C157.97,188.72 157.94,189.66 157.91,190.61C157.88,191.55 157.85,192.5 157.82,193.44C157.79,194.39 157.76,195.33 157.74,196.28C157.72,197.22 157.7,198.17 157.69,199.11C157.68,200.06 157.67,201 157.67,201.95C157.67,202.89 157.69,203.84 157.71,204.78C157.73,205.72 157.76,206.67 157.79,207.61C157.83,208.56 157.87,209.5 157.92,210.45C157.97,211.39 158.02,212.34 158.08,213.28C158.14,214.23 158.2,215.17 158.26,216.12C158.32,217.06 158.39,218.01 158.45,218.95C158.52,219.9 158.58,220.84 158.65,221.79C158.72,222.73 158.8,223.68 158.88,224.62C158.96,225.57 159.04,226.51 159.13,227.46C159.22,228.4 159.31,229.35 159.4,230.29C159.49,231.24 159.59,232.18 159.69,233.13C159.79,234.07 159.89,235.02 160,235.96C160.11,236.91 160.22,237.85 160.34,238.8C160.46,239.74 160.58,240.69 160.71,241.63C160.84,242.58 160.97,243.52 161.11,244.47C161.25,245.41 161.39,246.36 161.53,247.3C161.67,248.25 161.82,249.19 161.96,250.14C162.1,251.08 162.24,252.03 162.38,252.97C162.52,253.92 162.66,254.86 162.81,255.81C162.95,256.75 163.1,257.7 163.25,258.64C163.4,259.59 163.56,260.53 163.73,261.48C163.89,262.42 164.06,263.37 164.24,264.31C164.42,265.26 164.6,266.2 164.79,267.15C164.98,268.09 165.17,269.04 165.36,269.98C165.55,270.93 165.74,271.87 165.93,272.82C166.12,273.76 166.32,274.71 166.51,275.65C166.7,276.6 166.89,277.54 167.08,278.49C167.27,279.43 167.46,280.38 167.64,281.32C167.82,282.27 168.01,283.21 168.18,284.16C168.35,285.1 168.52,286.05 168.68,286.99C168.84,287.94 168.99,288.88 169.13,289.83C169.27,290.77 169.4,291.72 169.52,292.66C169.64,293.61 169.76,294.55 169.86,295.5C169.96,296.44 170.06,297.39 170.14,298.33C170.22,299.28 170.29,300.22 170.36,301.17Q170.43,302.11 170.54,304Z" style="vector-effect: non-scaling-stroke; stroke-width: 2px; stroke: rgb(99, 110, 250); stroke-opacity: 1; fill: rgb(99, 110, 250); fill-opacity: 0.5;"/><path class="violin" d="M301.02,301.45Q301.32,299.36 301.5,298.31C301.68,297.26 301.87,296.22 302.08,295.17C302.29,294.12 302.51,293.08 302.74,292.03C302.97,290.98 303.21,289.94 303.45,288.89C303.69,287.84 303.94,286.8 304.18,285.75C304.42,284.7 304.67,283.66 304.91,282.61C305.15,281.56 305.39,280.52 305.62,279.47C305.85,278.42 306.08,277.38 306.31,276.33C306.54,275.28 306.76,274.24 306.98,273.19C307.2,272.14 307.4,271.1 307.61,270.05C307.82,269 308.03,267.96 308.22,266.91C308.41,265.86 308.6,264.82 308.77,263.77C308.94,262.72 309.11,261.68 309.26,260.63C309.41,259.58 309.55,258.54 309.67,257.49C309.79,256.44 309.89,255.4 309.98,254.35C310.07,253.3 310.14,252.26 310.2,251.21C310.26,250.16 310.3,249.12 310.34,248.07C310.38,247.02 310.4,245.98 310.42,244.93C310.44,243.88 310.46,242.84 310.48,241.79C310.5,240.75 310.53,239.7 310.55,238.66C310.58,237.61 310.6,236.57 310.63,235.52C310.66,234.47 310.69,233.43 310.72,232.38C310.75,231.33 310.77,230.29 310.79,229.24C310.81,228.19 310.83,227.15 310.83,226.1C310.83,225.05 310.83,224.01 310.82,222.96C310.81,221.91 310.8,220.87 310.78,219.82C310.76,218.77 310.73,217.73 310.71,216.68C310.69,215.63 310.67,214.59 310.65,213.54C310.63,212.49 310.62,211.45 310.6,210.4C310.58,209.35 310.57,208.31 310.55,207.26C310.54,206.21 310.52,205.17 310.51,204.12C310.5,203.07 310.48,202.03 310.47,200.98C310.46,199.93 310.44,198.89 310.43,197.84C310.41,196.79 310.4,195.75 310.38,194.7C310.36,193.65 310.35,192.61 310.33,191.56C310.31,190.51 310.29,189.47 310.27,188.42C310.25,187.37 310.23,186.33 310.2,185.28C310.17,184.23 310.14,183.19 310.11,182.14C310.08,181.09 310.04,180.05 310.01,179C309.98,177.95 309.95,176.91 309.92,175.86C309.9,174.81 309.87,173.77 309.86,172.72C309.85,171.67 309.84,170.63 309.85,169.58C309.86,168.53 309.88,167.49 309.92,166.44C309.96,165.39 310.01,164.35 310.07,163.3C310.13,162.25 310.2,161.21 310.27,160.16C310.34,159.11 310.42,158.07 310.49,157.02C310.55,155.98 310.62,154.93 310.66,153.89C310.7,152.84 310.73,151.8 310.73,150.75C310.73,149.7 310.7,148.66 310.65,147.61C310.6,146.56 310.51,145.52 310.4,144.47C310.29,143.42 310.14,142.38 309.98,141.33C309.82,140.28 309.62,139.24 309.43,138.19C309.23,137.14 309.02,136.1 308.81,135.05C308.6,134 308.39,132.96 308.18,131.91C307.97,130.86 307.76,129.82 307.56,128.77C307.36,127.72 307.17,126.68 306.98,125.63C306.8,124.58 306.62,123.54 306.45,122.49C306.28,121.44 306.12,120.4 305.96,119.35C305.8,118.3 305.65,117.26 305.5,116.21C305.35,115.16 305.2,114.12 305.05,113.07C304.9,112.02 304.75,110.98 304.6,109.93C304.45,108.88 304.3,107.84 304.14,106.79C303.98,105.74 303.8,104.7 303.62,103.65C303.44,102.6 303.25,101.56 303.06,100.51C302.86,99.46 302.65,98.42 302.45,97.37Q302.25,96.32 301.85,94.23L298,94.23Q297.6,96.32 297.4,97.37C297.2,98.42 296.99,99.46 296.79,100.51C296.6,101.56 296.41,102.6 296.23,103.65C296.05,104.7 295.87,105.74 295.71,106.79C295.55,107.84 295.4,108.88 295.25,109.93C295.1,110.98 294.95,112.02 294.8,113.07C294.65,114.12 294.5,115.16 294.35,116.21C294.2,117.26 294.05,118.3 293.89,119.35C293.73,120.4 293.57,121.44 293.4,122.49C293.23,123.54 293.05,124.58 292.87,125.63C292.68,126.68 292.49,127.72 292.29,128.77C292.09,129.82 291.88,130.86 291.67,131.91C291.46,132.96 291.25,134 291.04,135.05C290.83,136.1 290.62,137.14 290.42,138.19C290.23,139.24 290.03,140.28 289.87,141.33C289.71,142.38 289.56,143.42 289.45,144.47C289.34,145.52 289.25,146.56 289.2,147.61C289.15,148.66 289.12,149.7 289.12,150.75C289.12,151.8 289.15,152.84 289.19,153.89C289.23,154.93 289.3,155.98 289.36,157.02C289.43,158.07 289.51,159.11 289.58,160.16C289.65,161.21 289.72,162.25 289.78,163.3C289.84,164.35 289.89,165.39 289.93,166.44C289.97,167.49 289.99,168.53 290,169.58C290.01,170.63 290,171.67 289.99,172.72C289.98,173.77 289.95,174.81 289.93,175.86C289.9,176.91 289.87,177.95 289.84,179C289.81,180.05 289.77,181.09 289.74,182.14C289.71,183.19 289.68,184.23 289.65,185.28C289.62,186.33 289.6,187.37 289.58,188.42C289.56,189.47 289.54,190.51 289.52,191.56C289.5,192.61 289.49,193.65 289.47,194.7C289.45,195.75 289.44,196.79 289.42,197.84C289.41,198.89 289.39,199.93 289.38,200.98C289.37,202.03 289.35,203.07 289.34,204.12C289.33,205.17 289.31,206.21 289.3,207.26C289.28,208.31 289.27,209.35 289.25,210.4C289.23,211.45 289.22,212.49 289.2,213.54C289.18,214.59 289.16,215.63 289.14,216.68C289.12,217.73 289.09,218.77 289.07,219.82C289.05,220.87 289.04,221.91 289.03,222.96C289.02,224.01 289.02,225.05 289.02,226.1C289.02,227.15 289.04,228.19 289.06,229.24C289.08,230.29 289.1,231.33 289.13,232.38C289.16,233.43 289.19,234.47 289.22,235.52C289.25,236.57 289.27,237.61 289.3,238.66C289.32,239.7 289.35,240.75 289.37,241.79C289.39,242.84 289.41,243.88 289.43,244.93C289.45,245.98 289.47,247.02 289.51,248.07C289.55,249.12 289.59,250.16 289.65,251.21C289.71,252.26 289.78,253.3 289.87,254.35C289.96,255.4 290.06,256.44 290.18,257.49C290.3,258.54 290.44,259.58 290.59,260.63C290.74,261.68 290.91,262.72 291.08,263.77C291.25,264.82 291.44,265.86 291.63,266.91C291.82,267.96 292.03,269 292.24,270.05C292.45,271.1 292.65,272.14 292.87,273.19C293.09,274.24 293.31,275.28 293.54,276.33C293.77,277.38 294,278.42 294.23,279.47C294.46,280.52 294.7,281.56 294.94,282.61C295.18,283.66 295.43,284.7 295.67,285.75C295.91,286.8 296.16,287.84 296.4,288.89C296.64,289.94 296.88,290.98 297.11,292.03C297.34,293.08 297.56,294.12 297.77,295.17C297.98,296.22 298.17,297.26 298.35,298.31Q298.53,299.36 298.83,301.45Z" style="vector-effect: non-scaling-stroke; stroke-width: 2px; stroke: rgb(99, 110, 250); stroke-opacity: 1; fill: rgb(99, 110, 250); fill-opacity: 0.5;"/><path class="violin" d="M429.91,289.93Q430.18,288.14 430.34,287.25C430.5,286.36 430.67,285.46 430.86,284.57C431.05,283.68 431.24,282.78 431.46,281.89C431.68,280.99 431.91,280.1 432.16,279.21C432.41,278.31 432.67,277.42 432.95,276.53C433.23,275.63 433.52,274.74 433.82,273.85C434.12,272.95 434.44,272.06 434.76,271.17C435.08,270.28 435.41,269.38 435.74,268.49C436.07,267.6 436.4,266.7 436.72,265.81C437.04,264.92 437.35,264.02 437.65,263.13C437.95,262.24 438.25,261.34 438.53,260.45C438.81,259.56 439.08,258.66 439.35,257.77C439.61,256.88 439.87,255.98 440.12,255.09C440.37,254.2 440.6,253.3 440.84,252.41C441.07,251.52 441.31,250.62 441.53,249.73C441.75,248.84 441.97,247.95 442.18,247.05C442.38,246.16 442.58,245.26 442.76,244.36C442.94,243.47 443.1,242.57 443.25,241.68C443.4,240.79 443.52,239.89 443.64,239C443.75,238.11 443.86,237.21 443.94,236.32C444.02,235.43 444.08,234.53 444.14,233.64C444.2,232.75 444.24,231.85 444.28,230.96C444.32,230.07 444.35,229.17 444.39,228.28C444.42,227.39 444.46,226.49 444.49,225.6C444.52,224.71 444.55,223.81 444.58,222.92C444.61,222.03 444.64,221.13 444.66,220.24C444.68,219.35 444.69,218.45 444.69,217.56C444.69,216.67 444.68,215.77 444.65,214.88C444.62,213.99 444.57,213.09 444.51,212.2C444.45,211.31 444.36,210.41 444.27,209.52C444.17,208.63 444.06,207.73 443.94,206.84C443.82,205.95 443.68,205.05 443.54,204.16C443.4,203.27 443.24,202.37 443.09,201.48C442.94,200.59 442.78,199.69 442.62,198.8C442.46,197.91 442.3,197.01 442.14,196.12C441.98,195.23 441.82,194.33 441.67,193.44C441.52,192.55 441.36,191.65 441.22,190.76C441.08,189.87 440.94,188.97 440.81,188.08C440.68,187.19 440.55,186.29 440.43,185.4C440.31,184.51 440.2,183.61 440.09,182.72C439.98,181.83 439.88,180.93 439.77,180.04C439.67,179.15 439.56,178.25 439.46,177.36C439.35,176.47 439.25,175.57 439.14,174.68C439.03,173.79 438.92,172.89 438.81,172C438.7,171.11 438.58,170.21 438.46,169.32C438.35,168.43 438.23,167.53 438.12,166.64C438.01,165.75 437.89,164.85 437.78,163.96C437.67,163.07 437.56,162.17 437.45,161.28C437.34,160.39 437.24,159.49 437.13,158.6C437.02,157.71 436.92,156.81 436.81,155.92C436.7,155.03 436.59,154.13 436.48,153.24C436.37,152.35 436.27,151.45 436.16,150.56C436.05,149.67 435.94,148.77 435.83,147.88C435.72,146.99 435.61,146.09 435.51,145.2C435.41,144.31 435.31,143.41 435.21,142.52C435.11,141.63 435.01,140.73 434.92,139.84C434.83,138.94 434.74,138.05 434.65,137.15C434.56,136.26 434.47,135.36 434.38,134.47C434.29,133.58 434.21,132.68 434.12,131.79C434.03,130.9 433.95,130 433.86,129.11C433.77,128.22 433.69,127.32 433.6,126.43C433.51,125.54 433.42,124.64 433.33,123.75C433.24,122.86 433.14,121.96 433.05,121.07C432.95,120.18 432.86,119.28 432.76,118.39C432.66,117.5 432.56,116.6 432.46,115.71C432.36,114.82 432.25,113.92 432.15,113.03C432.05,112.14 431.94,111.24 431.84,110.35C431.73,109.46 431.63,108.56 431.52,107.67C431.41,106.78 431.31,105.88 431.2,104.99C431.09,104.1 430.97,103.2 430.86,102.31C430.74,101.42 430.63,100.52 430.51,99.63C430.4,98.74 430.28,97.84 430.17,96.95Q430.06,96.06 429.85,94.27L428,94.27Q427.79,96.06 427.68,96.95C427.57,97.84 427.45,98.74 427.34,99.63C427.22,100.52 427.11,101.42 426.99,102.31C426.88,103.2 426.76,104.1 426.65,104.99C426.54,105.88 426.44,106.78 426.33,107.67C426.22,108.56 426.12,109.46 426.01,110.35C425.91,111.24 425.8,112.14 425.7,113.03C425.6,113.92 425.49,114.82 425.39,115.71C425.29,116.6 425.19,117.5 425.09,118.39C424.99,119.28 424.9,120.18 424.8,121.07C424.71,121.96 424.61,122.86 424.52,123.75C424.43,124.64 424.34,125.54 424.25,126.43C424.16,127.32 424.08,128.22 423.99,129.11C423.9,130 423.82,130.9 423.73,131.79C423.64,132.68 423.56,133.58 423.47,134.47C423.38,135.36 423.29,136.26 423.2,137.15C423.11,138.05 423.02,138.94 422.93,139.84C422.84,140.73 422.74,141.63 422.64,142.52C422.54,143.41 422.44,144.31 422.34,145.2C422.24,146.09 422.13,146.99 422.02,147.88C421.91,148.77 421.8,149.67 421.69,150.56C421.58,151.45 421.48,152.35 421.37,153.24C421.26,154.13 421.15,155.03 421.04,155.92C420.93,156.81 420.83,157.71 420.72,158.6C420.61,159.49 420.51,160.39 420.4,161.28C420.29,162.17 420.18,163.07 420.07,163.96C419.96,164.85 419.84,165.75 419.73,166.64C419.62,167.53 419.5,168.43 419.39,169.32C419.27,170.21 419.15,171.11 419.04,172C418.93,172.89 418.82,173.79 418.71,174.68C418.6,175.57 418.5,176.47 418.39,177.36C418.29,178.25 418.18,179.15 418.08,180.04C417.97,180.93 417.87,181.83 417.76,182.72C417.65,183.61 417.54,184.51 417.42,185.4C417.3,186.29 417.17,187.19 417.04,188.08C416.91,188.97 416.77,189.87 416.63,190.76C416.49,191.65 416.33,192.55 416.18,193.44C416.03,194.33 415.87,195.23 415.71,196.12C415.55,197.01 415.39,197.91 415.23,198.8C415.07,199.69 414.91,200.59 414.76,201.48C414.61,202.37 414.45,203.27 414.31,204.16C414.17,205.05 414.03,205.95 413.91,206.84C413.79,207.73 413.68,208.63 413.58,209.52C413.49,210.41 413.4,211.31 413.34,212.2C413.28,213.09 413.23,213.99 413.2,214.88C413.17,215.77 413.16,216.67 413.16,217.56C413.16,218.45 413.17,219.35 413.19,220.24C413.21,221.13 413.24,222.03 413.27,222.92C413.3,223.81 413.33,224.71 413.36,225.6C413.39,226.49 413.43,227.39 413.46,228.28C413.5,229.17 413.53,230.07 413.57,230.96C413.61,231.85 413.65,232.75 413.71,233.64C413.77,234.53 413.83,235.43 413.91,236.32C413.99,237.21 414.1,238.11 414.21,239C414.33,239.89 414.45,240.79 414.6,241.68C414.75,242.57 414.91,243.47 415.09,244.36C415.27,245.26 415.47,246.16 415.67,247.05C415.88,247.95 416.1,248.84 416.32,249.73C416.54,250.62 416.78,251.52 417.01,252.41C417.25,253.3 417.48,254.2 417.73,255.09C417.98,255.98 418.24,256.88 418.5,257.77C418.77,258.66 419.04,259.56 419.32,260.45C419.6,261.34 419.9,262.24 420.2,263.13C420.5,264.02 420.81,264.92 421.13,265.81C421.45,266.7 421.78,267.6 422.11,268.49C422.44,269.38 422.77,270.28 423.09,271.17C423.41,272.06 423.73,272.95 424.03,273.85C424.33,274.74 424.62,275.63 424.9,276.53C425.18,277.42 425.44,278.31 425.69,279.21C425.94,280.1 426.17,280.99 426.39,281.89C426.61,282.78 426.8,283.68 426.99,284.57C427.18,285.46 427.35,286.36 427.51,287.25Q427.67,288.14 427.94,289.93Z" style="vector-effect: non-scaling-stroke; stroke-width: 2px; stroke: rgb(99, 110, 250); stroke-opacity: 1; fill: rgb(99, 110, 250); fill-opacity: 0.5;"/><path class="box" d="M37.97,228.66H45.88M37.97,257.9H45.88V189.96H37.97ZM41.93,257.9V301M41.93,189.96V94.84" style="vector-effect: non-scaling-stroke; stroke-width: 2px; stroke: rgb(99, 110, 250); stroke-opacity: 1; fill: rgb(99, 110, 250); fill-opacity: 0.5;"/><path class="box" d="M166.97,195.76H174.88M166.97,229.69H174.88V161.1H166.97ZM170.93,229.69V304M170.93,161.1V94.22" style="vector-effect: non-scaling-stroke; stroke-width: 2px; stroke: rgb(99, 110, 250); stroke-opacity: 1; fill: rgb(99, 110, 250); fill-opacity: 0.5;"/><path class="box" d="M295.97,198.65H303.88M295.97,239.21H303.88V154.79H295.97ZM299.92,239.21V301.45M299.92,154.79V94.23" style="vector-effect: non-scaling-stroke; stroke-width: 2px; stroke: rgb(99, 110, 250); stroke-opacity: 1; fill: rgb(99, 110, 250); fill-opacity: 0.5;"/><path class="box" d="M424.97,209H432.88M424.97,236.89H432.88V174.15H424.97ZM428.93,236.89V289.93M428.93,174.15V94.27" style="vector-effect: non-scaling-stroke; stroke-width: 2px; stroke: rgb(99, 110, 250); stroke-opacity: 1; fill: rgb(99, 110, 250); fill-opacity: 0.5;"/><path class="mean" d="M37.97,221.18H45.88" style="fill: none; vector-effect: non-scaling-stroke; stroke-width: 2px; stroke-dasharray: 4px, 2px; stroke: rgb(0, 0, 0); stroke-opacity: 1;"/><path class="mean" d="M166.97,195.37H174.88" style="fill: none; vector-effect: non-scaling-stroke; stroke-width: 2px; stroke-dasharray: 4px, 2px; stroke: rgb(0, 0, 0); stroke-opacity: 1;"/><path class="mean" d="M295.97,197.31H303.88" style="fill: none; vector-effect: non-scaling-stroke; stroke-width: 2px; stroke-dasharray: 4px, 2px; stroke: rgb(0, 0, 0); stroke-opacity: 1;"/><path class="mean" d="M424.97,203.81H432.88" style="fill: none; vector-effect: non-scaling-stroke; stroke-width: 2px; stroke-dasharray: 4px, 2px; stroke: rgb(0, 0, 0); stroke-opacity: 1;"/></g><g class="trace violins" style="opacity: 1;"><path class="violin" d="M87.97,122.14Q88.16,121.23 88.25,120.78C88.34,120.33 88.44,119.87 88.53,119.42C88.62,118.97 88.72,118.51 88.81,118.06C88.91,117.61 89,117.15 89.1,116.7C89.2,116.25 89.29,115.79 89.39,115.34C89.49,114.89 89.58,114.43 89.68,113.98C89.78,113.53 89.88,113.07 89.98,112.62C90.08,112.17 90.18,111.71 90.28,111.26C90.38,110.8 90.48,110.35 90.58,109.89C90.68,109.44 90.78,108.98 90.88,108.53C90.99,108.08 91.1,107.62 91.21,107.17C91.33,106.72 91.44,106.26 91.57,105.81C91.7,105.36 91.83,104.9 91.98,104.45C92.13,103.99 92.29,103.54 92.46,103.09C92.63,102.64 92.8,102.18 92.98,101.73C93.16,101.28 93.34,100.82 93.52,100.37C93.7,99.92 93.88,99.46 94.05,99.01C94.22,98.56 94.38,98.1 94.54,97.65C94.7,97.2 94.86,96.74 95.01,96.29C95.16,95.84 95.3,95.38 95.45,94.93C95.59,94.48 95.74,94.02 95.88,93.57C96.03,93.12 96.17,92.66 96.32,92.21C96.47,91.76 96.62,91.3 96.77,90.85C96.92,90.39 97.08,89.94 97.23,89.48C97.38,89.03 97.52,88.57 97.67,88.12C97.81,87.67 97.96,87.21 98.1,86.76C98.24,86.31 98.38,85.85 98.51,85.4C98.64,84.95 98.76,84.49 98.89,84.04C99.01,83.59 99.14,83.13 99.26,82.68C99.38,82.23 99.49,81.77 99.61,81.32C99.73,80.87 99.85,80.41 99.96,79.96C100.07,79.51 100.18,79.05 100.29,78.6C100.4,78.15 100.52,77.69 100.63,77.24C100.74,76.79 100.85,76.33 100.96,75.88C101.07,75.43 101.19,74.97 101.3,74.52C101.41,74.07 101.52,73.61 101.63,73.16C101.73,72.71 101.84,72.25 101.93,71.8C102.02,71.35 102.12,70.89 102.19,70.44C102.26,69.99 102.32,69.53 102.36,69.08C102.4,68.62 102.43,68.17 102.44,67.71C102.45,67.26 102.44,66.8 102.42,66.35C102.4,65.9 102.36,65.44 102.31,64.99C102.26,64.54 102.2,64.08 102.14,63.63C102.07,63.18 102,62.72 101.92,62.27C101.84,61.82 101.76,61.36 101.66,60.91C101.56,60.46 101.45,60 101.34,59.55C101.22,59.1 101.1,58.64 100.97,58.19C100.84,57.74 100.69,57.28 100.54,56.83C100.39,56.38 100.22,55.92 100.05,55.47C99.88,55.02 99.71,54.56 99.54,54.11C99.37,53.66 99.2,53.2 99.03,52.75C98.86,52.3 98.68,51.84 98.51,51.39C98.34,50.94 98.18,50.48 98.01,50.03C97.85,49.58 97.68,49.12 97.52,48.67C97.36,48.21 97.21,47.76 97.05,47.3C96.89,46.85 96.73,46.39 96.58,45.94C96.43,45.49 96.28,45.03 96.13,44.58C95.98,44.13 95.82,43.67 95.67,43.22C95.52,42.77 95.37,42.31 95.22,41.86C95.07,41.41 94.91,40.95 94.75,40.5C94.6,40.05 94.44,39.59 94.29,39.14C94.13,38.69 93.98,38.23 93.82,37.78C93.67,37.33 93.51,36.87 93.36,36.42C93.21,35.97 93.07,35.51 92.93,35.06C92.79,34.61 92.65,34.15 92.52,33.7C92.39,33.25 92.26,32.79 92.14,32.34C92.02,31.89 91.91,31.43 91.79,30.98C91.67,30.53 91.56,30.07 91.44,29.62C91.32,29.17 91.2,28.71 91.08,28.26C90.96,27.81 90.83,27.35 90.7,26.9C90.57,26.44 90.43,25.99 90.29,25.53C90.15,25.08 90,24.62 89.85,24.17C89.7,23.72 89.54,23.26 89.39,22.81C89.24,22.36 89.09,21.9 88.94,21.45C88.79,21 88.64,20.54 88.51,20.09C88.38,19.64 88.26,19.18 88.14,18.73C88.03,18.28 87.91,17.82 87.82,17.37Q87.73,16.92 87.58,16.01L86.57,16.01Q86.42,16.92 86.33,17.37C86.24,17.82 86.12,18.28 86.01,18.73C85.89,19.18 85.77,19.64 85.64,20.09C85.51,20.54 85.36,21 85.21,21.45C85.06,21.9 84.91,22.36 84.76,22.81C84.61,23.26 84.45,23.72 84.3,24.17C84.15,24.62 84,25.08 83.86,25.53C83.72,25.99 83.58,26.44 83.45,26.9C83.32,27.35 83.19,27.81 83.07,28.26C82.95,28.71 82.83,29.17 82.71,29.62C82.59,30.07 82.48,30.53 82.36,30.98C82.24,31.43 82.13,31.89 82.01,32.34C81.89,32.79 81.76,33.25 81.63,33.7C81.5,34.15 81.36,34.61 81.22,35.06C81.08,35.51 80.94,35.97 80.79,36.42C80.64,36.87 80.48,37.33 80.33,37.78C80.17,38.23 80.02,38.69 79.86,39.14C79.71,39.59 79.55,40.05 79.4,40.5C79.24,40.95 79.08,41.41 78.93,41.86C78.78,42.31 78.63,42.77 78.48,43.22C78.33,43.67 78.17,44.13 78.02,44.58C77.87,45.03 77.72,45.49 77.57,45.94C77.42,46.39 77.26,46.85 77.1,47.3C76.94,47.76 76.79,48.21 76.63,48.67C76.47,49.12 76.3,49.58 76.14,50.03C75.97,50.48 75.81,50.94 75.64,51.39C75.47,51.84 75.29,52.3 75.12,52.75C74.95,53.2 74.78,53.66 74.61,54.11C74.44,54.56 74.27,55.02 74.1,55.47C73.93,55.92 73.76,56.38 73.61,56.83C73.46,57.28 73.31,57.74 73.18,58.19C73.05,58.64 72.93,59.1 72.81,59.55C72.7,60 72.59,60.46 72.49,60.91C72.39,61.36 72.31,61.82 72.23,62.27C72.15,62.72 72.08,63.18 72.01,63.63C71.95,64.08 71.89,64.54 71.84,64.99C71.79,65.44 71.75,65.9 71.73,66.35C71.71,66.8 71.7,67.26 71.71,67.71C71.72,68.17 71.75,68.62 71.79,69.08C71.83,69.53 71.89,69.99 71.96,70.44C72.03,70.89 72.13,71.35 72.22,71.8C72.31,72.25 72.42,72.71 72.52,73.16C72.63,73.61 72.74,74.07 72.85,74.52C72.96,74.97 73.08,75.43 73.19,75.88C73.3,76.33 73.41,76.79 73.52,77.24C73.63,77.69 73.75,78.15 73.86,78.6C73.97,79.05 74.08,79.51 74.19,79.96C74.3,80.41 74.42,80.87 74.54,81.32C74.66,81.77 74.77,82.23 74.89,82.68C75.01,83.13 75.14,83.59 75.26,84.04C75.39,84.49 75.51,84.95 75.64,85.4C75.77,85.85 75.91,86.31 76.05,86.76C76.19,87.21 76.34,87.67 76.48,88.12C76.63,88.57 76.77,89.03 76.92,89.48C77.07,89.94 77.23,90.39 77.38,90.85C77.53,91.3 77.68,91.76 77.83,92.21C77.98,92.66 78.12,93.12 78.27,93.57C78.41,94.02 78.56,94.48 78.7,94.93C78.85,95.38 78.99,95.84 79.14,96.29C79.29,96.74 79.45,97.2 79.61,97.65C79.77,98.1 79.93,98.56 80.1,99.01C80.27,99.46 80.45,99.92 80.63,100.37C80.81,100.82 80.99,101.28 81.17,101.73C81.35,102.18 81.52,102.64 81.69,103.09C81.86,103.54 82.02,103.99 82.17,104.45C82.32,104.9 82.45,105.36 82.58,105.81C82.71,106.26 82.82,106.72 82.94,107.17C83.05,107.62 83.16,108.08 83.27,108.53C83.37,108.98 83.47,109.44 83.57,109.89C83.67,110.35 83.77,110.8 83.87,111.26C83.97,111.71 84.07,112.17 84.17,112.62C84.27,113.07 84.37,113.53 84.47,113.98C84.57,114.43 84.66,114.89 84.76,115.34C84.86,115.79 84.95,116.25 85.05,116.7C85.15,117.15 85.24,117.61 85.34,118.06C85.43,118.51 85.53,118.97 85.62,119.42C85.71,119.87 85.81,120.33 85.9,120.78Q85.99,121.23 86.18,122.14Z" style="vector-effect: non-scaling-stroke; stroke-width: 2px; stroke: rgb(239, 85, 59); stroke-opacity: 1; fill: rgb(239, 85, 59); fill-opacity: 0.5;"/><path class="violin" d="M217.21,122.06Q217.44,121.11 217.56,120.63C217.68,120.15 217.79,119.68 217.91,119.2C218.03,118.72 218.15,118.25 218.26,117.77C218.37,117.29 218.47,116.81 218.58,116.33C218.68,115.85 218.79,115.38 218.89,114.9C218.99,114.42 219.1,113.95 219.2,113.47C219.31,112.99 219.41,112.51 219.52,112.03C219.63,111.55 219.74,111.08 219.86,110.6C219.98,110.12 220.1,109.65 220.22,109.17C220.34,108.69 220.46,108.21 220.58,107.73C220.7,107.25 220.81,106.78 220.93,106.3C221.04,105.82 221.16,105.35 221.27,104.87C221.38,104.39 221.48,103.91 221.58,103.43C221.68,102.95 221.78,102.48 221.88,102C221.98,101.52 222.08,101.05 222.19,100.57C222.3,100.09 222.4,99.61 222.52,99.13C222.64,98.65 222.78,98.18 222.92,97.7C223.06,97.22 223.22,96.75 223.38,96.27C223.54,95.79 223.72,95.31 223.9,94.83C224.08,94.35 224.27,93.88 224.45,93.4C224.64,92.92 224.83,92.45 225.01,91.97C225.19,91.49 225.37,91.01 225.55,90.53C225.72,90.05 225.9,89.58 226.06,89.1C226.22,88.62 226.38,88.15 226.53,87.67C226.69,87.19 226.84,86.71 226.99,86.23C227.14,85.75 227.28,85.28 227.43,84.8C227.57,84.32 227.72,83.85 227.86,83.37C228,82.89 228.14,82.41 228.27,81.93C228.4,81.45 228.53,80.98 228.65,80.5C228.77,80.02 228.88,79.55 228.99,79.07C229.1,78.59 229.2,78.11 229.29,77.63C229.38,77.15 229.47,76.68 229.55,76.2C229.63,75.72 229.71,75.25 229.78,74.77C229.85,74.29 229.92,73.81 229.98,73.33C230.04,72.85 230.1,72.38 230.15,71.9C230.2,71.42 230.26,70.95 230.3,70.47C230.35,69.99 230.38,69.51 230.42,69.03C230.45,68.55 230.49,68.08 230.51,67.6C230.53,67.12 230.55,66.65 230.55,66.17C230.55,65.69 230.54,65.21 230.52,64.73C230.5,64.25 230.46,63.78 230.41,63.3C230.36,62.82 230.29,62.35 230.21,61.87C230.12,61.39 230.02,60.91 229.9,60.43C229.78,59.95 229.65,59.48 229.51,59C229.37,58.52 229.21,58.05 229.06,57.57C228.9,57.09 228.74,56.61 228.58,56.13C228.43,55.65 228.27,55.18 228.13,54.7C227.99,54.22 227.85,53.75 227.72,53.27C227.59,52.79 227.47,52.31 227.36,51.83C227.25,51.35 227.15,50.88 227.05,50.4C226.95,49.92 226.85,49.45 226.75,48.97C226.65,48.49 226.55,48.01 226.44,47.53C226.33,47.05 226.22,46.58 226.1,46.1C225.98,45.62 225.85,45.15 225.72,44.67C225.59,44.19 225.45,43.71 225.31,43.23C225.17,42.75 225.02,42.28 224.86,41.8C224.7,41.32 224.54,40.85 224.37,40.37C224.2,39.89 224.03,39.41 223.86,38.93C223.69,38.45 223.51,37.98 223.34,37.5C223.17,37.02 222.99,36.55 222.82,36.07C222.65,35.59 222.49,35.11 222.34,34.63C222.19,34.15 222.05,33.68 221.91,33.2C221.77,32.72 221.65,32.25 221.52,31.77C221.39,31.29 221.27,30.81 221.15,30.33C221.03,29.85 220.91,29.38 220.78,28.9C220.65,28.42 220.53,27.95 220.39,27.47C220.25,26.99 220.1,26.51 219.95,26.03C219.8,25.55 219.63,25.08 219.47,24.6C219.31,24.12 219.14,23.65 218.97,23.17C218.8,22.69 218.64,22.21 218.47,21.73C218.31,21.25 218.14,20.78 217.98,20.3C217.83,19.82 217.68,19.35 217.54,18.87C217.4,18.39 217.27,17.91 217.15,17.43Q217.03,16.95 216.82,16L215.33,16Q215.12,16.95 215,17.43C214.88,17.91 214.75,18.39 214.61,18.87C214.47,19.35 214.32,19.82 214.17,20.3C214.01,20.78 213.84,21.25 213.68,21.73C213.51,22.21 213.35,22.69 213.18,23.17C213.01,23.65 212.84,24.12 212.68,24.6C212.52,25.08 212.35,25.55 212.2,26.03C212.05,26.51 211.9,26.99 211.76,27.47C211.62,27.95 211.5,28.42 211.37,28.9C211.24,29.38 211.12,29.85 211,30.33C210.88,30.81 210.76,31.29 210.63,31.77C210.5,32.25 210.38,32.72 210.24,33.2C210.1,33.68 209.96,34.15 209.81,34.63C209.66,35.11 209.5,35.59 209.33,36.07C209.16,36.55 208.98,37.02 208.81,37.5C208.64,37.98 208.46,38.45 208.29,38.93C208.12,39.41 207.95,39.89 207.78,40.37C207.61,40.85 207.45,41.32 207.29,41.8C207.13,42.28 206.98,42.75 206.84,43.23C206.7,43.71 206.56,44.19 206.43,44.67C206.3,45.15 206.17,45.62 206.05,46.1C205.93,46.58 205.82,47.05 205.71,47.53C205.6,48.01 205.5,48.49 205.4,48.97C205.3,49.45 205.2,49.92 205.1,50.4C205,50.88 204.9,51.35 204.79,51.83C204.68,52.31 204.56,52.79 204.43,53.27C204.3,53.75 204.16,54.22 204.02,54.7C203.88,55.18 203.72,55.65 203.57,56.13C203.41,56.61 203.25,57.09 203.09,57.57C202.94,58.05 202.78,58.52 202.64,59C202.5,59.48 202.37,59.95 202.25,60.43C202.13,60.91 202.03,61.39 201.94,61.87C201.86,62.35 201.79,62.82 201.74,63.3C201.69,63.78 201.65,64.25 201.63,64.73C201.61,65.21 201.6,65.69 201.6,66.17C201.6,66.65 201.62,67.12 201.64,67.6C201.66,68.08 201.7,68.55 201.73,69.03C201.77,69.51 201.8,69.99 201.85,70.47C201.89,70.95 201.95,71.42 202,71.9C202.05,72.38 202.11,72.85 202.17,73.33C202.23,73.81 202.3,74.29 202.37,74.77C202.44,75.25 202.52,75.72 202.6,76.2C202.68,76.68 202.77,77.15 202.86,77.63C202.95,78.11 203.05,78.59 203.16,79.07C203.27,79.55 203.38,80.02 203.5,80.5C203.62,80.98 203.75,81.45 203.88,81.93C204.01,82.41 204.15,82.89 204.29,83.37C204.43,83.85 204.58,84.32 204.72,84.8C204.87,85.28 205.01,85.75 205.16,86.23C205.31,86.71 205.46,87.19 205.62,87.67C205.77,88.15 205.93,88.62 206.09,89.1C206.25,89.58 206.43,90.05 206.6,90.53C206.78,91.01 206.96,91.49 207.14,91.97C207.32,92.45 207.51,92.92 207.7,93.4C207.88,93.88 208.07,94.35 208.25,94.83C208.43,95.31 208.61,95.79 208.77,96.27C208.93,96.75 209.09,97.22 209.23,97.7C209.37,98.18 209.51,98.65 209.63,99.13C209.75,99.61 209.85,100.09 209.96,100.57C210.07,101.05 210.17,101.52 210.27,102C210.37,102.48 210.47,102.95 210.57,103.43C210.67,103.91 210.77,104.39 210.88,104.87C210.99,105.35 211.11,105.82 211.22,106.3C211.34,106.78 211.45,107.25 211.57,107.73C211.69,108.21 211.81,108.69 211.93,109.17C212.05,109.65 212.17,110.12 212.29,110.6C212.41,111.08 212.52,111.55 212.63,112.03C212.74,112.51 212.84,112.99 212.95,113.47C213.05,113.95 213.16,114.42 213.26,114.9C213.36,115.38 213.47,115.85 213.57,116.33C213.68,116.81 213.78,117.29 213.89,117.77C214,118.25 214.12,118.72 214.24,119.2C214.36,119.68 214.47,120.15 214.59,120.63Q214.71,121.11 214.94,122.06Z" style="vector-effect: non-scaling-stroke; stroke-width: 2px; stroke: rgb(239, 85, 59); stroke-opacity: 1; fill: rgb(239, 85, 59); fill-opacity: 0.5;"/><path class="violin" d="M345.56,121.65Q345.66,120.77 345.71,120.33C345.76,119.89 345.8,119.45 345.85,119.01C345.9,118.57 345.95,118.13 345.99,117.69C346.03,117.25 346.07,116.81 346.11,116.37C346.15,115.93 346.18,115.49 346.22,115.05C346.26,114.61 346.29,114.17 346.33,113.73C346.37,113.29 346.41,112.85 346.45,112.41C346.49,111.97 346.52,111.53 346.56,111.09C346.6,110.65 346.64,110.21 346.68,109.77C346.72,109.33 346.77,108.89 346.81,108.45C346.85,108.01 346.89,107.57 346.94,107.13C346.99,106.69 347.04,106.25 347.09,105.81C347.14,105.37 347.2,104.93 347.26,104.49C347.32,104.05 347.39,103.61 347.47,103.17C347.55,102.73 347.63,102.29 347.72,101.85C347.81,101.41 347.92,100.97 348.03,100.53C348.14,100.09 348.25,99.65 348.36,99.21C348.47,98.77 348.6,98.33 348.71,97.89C348.82,97.45 348.93,97.01 349.04,96.57C349.14,96.13 349.24,95.69 349.34,95.25C349.44,94.81 349.53,94.37 349.63,93.93C349.73,93.49 349.83,93.05 349.94,92.61C350.05,92.17 350.17,91.73 350.29,91.29C350.42,90.85 350.55,90.41 350.69,89.97C350.83,89.53 351,89.1 351.15,88.66C351.31,88.22 351.46,87.78 351.62,87.34C351.78,86.9 351.94,86.46 352.09,86.02C352.24,85.58 352.38,85.14 352.53,84.7C352.68,84.26 352.82,83.82 352.97,83.38C353.12,82.94 353.26,82.5 353.41,82.06C353.56,81.62 353.72,81.18 353.88,80.74C354.04,80.3 354.2,79.86 354.37,79.42C354.54,78.98 354.72,78.54 354.89,78.1C355.06,77.66 355.23,77.22 355.39,76.78C355.55,76.34 355.71,75.9 355.87,75.46C356.03,75.02 356.18,74.58 356.33,74.14C356.48,73.7 356.62,73.26 356.76,72.82C356.9,72.38 357.04,71.94 357.18,71.5C357.32,71.06 357.45,70.62 357.58,70.18C357.71,69.74 357.83,69.3 357.95,68.86C358.07,68.42 358.18,67.98 358.29,67.54C358.4,67.1 358.5,66.66 358.6,66.22C358.7,65.78 358.79,65.34 358.88,64.9C358.97,64.46 359.06,64.02 359.15,63.58C359.24,63.14 359.34,62.7 359.44,62.26C359.54,61.82 359.64,61.38 359.74,60.94C359.84,60.5 359.95,60.06 360.05,59.62C360.15,59.18 360.26,58.74 360.36,58.3C360.45,57.86 360.55,57.42 360.62,56.98C360.69,56.54 360.76,56.1 360.8,55.66C360.84,55.22 360.87,54.78 360.88,54.34C360.89,53.9 360.87,53.46 360.85,53.02C360.83,52.58 360.78,52.14 360.73,51.7C360.68,51.26 360.62,50.82 360.56,50.38C360.5,49.94 360.44,49.5 360.38,49.06C360.32,48.62 360.27,48.18 360.21,47.74C360.15,47.3 360.1,46.86 360.04,46.42C359.98,45.98 359.93,45.54 359.87,45.1C359.8,44.66 359.73,44.22 359.65,43.78C359.56,43.34 359.47,42.9 359.36,42.46C359.25,42.02 359.13,41.58 358.99,41.14C358.85,40.7 358.69,40.26 358.52,39.82C358.35,39.38 358.16,38.94 357.96,38.5C357.76,38.06 357.55,37.62 357.33,37.18C357.11,36.74 356.88,36.3 356.64,35.86C356.4,35.42 356.16,34.98 355.91,34.54C355.66,34.1 355.4,33.66 355.15,33.22C354.9,32.78 354.65,32.34 354.4,31.9C354.15,31.46 353.91,31.02 353.67,30.58C353.43,30.14 353.19,29.7 352.96,29.26C352.73,28.82 352.51,28.38 352.28,27.94C352.06,27.5 351.83,27.06 351.61,26.62C351.39,26.18 351.17,25.74 350.95,25.3C350.73,24.86 350.5,24.43 350.28,23.99C350.05,23.55 349.83,23.11 349.6,22.67C349.37,22.23 349.13,21.79 348.9,21.35C348.67,20.91 348.44,20.47 348.22,20.03C348,19.59 347.78,19.15 347.57,18.71C347.36,18.27 347.16,17.83 346.97,17.39Q346.78,16.95 346.45,16.07L343.7,16.07Q343.37,16.95 343.18,17.39C342.99,17.83 342.79,18.27 342.58,18.71C342.37,19.15 342.15,19.59 341.93,20.03C341.71,20.47 341.48,20.91 341.25,21.35C341.02,21.79 340.78,22.23 340.55,22.67C340.32,23.11 340.1,23.55 339.87,23.99C339.65,24.43 339.42,24.86 339.2,25.3C338.98,25.74 338.76,26.18 338.54,26.62C338.32,27.06 338.09,27.5 337.87,27.94C337.64,28.38 337.42,28.82 337.19,29.26C336.96,29.7 336.72,30.14 336.48,30.58C336.24,31.02 336,31.46 335.75,31.9C335.5,32.34 335.25,32.78 335,33.22C334.75,33.66 334.49,34.1 334.24,34.54C333.99,34.98 333.75,35.42 333.51,35.86C333.27,36.3 333.04,36.74 332.82,37.18C332.6,37.62 332.39,38.06 332.19,38.5C331.99,38.94 331.8,39.38 331.63,39.82C331.46,40.26 331.3,40.7 331.16,41.14C331.02,41.58 330.9,42.02 330.79,42.46C330.68,42.9 330.59,43.34 330.5,43.78C330.42,44.22 330.35,44.66 330.28,45.1C330.22,45.54 330.17,45.98 330.11,46.42C330.05,46.86 330,47.3 329.94,47.74C329.88,48.18 329.83,48.62 329.77,49.06C329.71,49.5 329.65,49.94 329.59,50.38C329.53,50.82 329.47,51.26 329.42,51.7C329.37,52.14 329.32,52.58 329.3,53.02C329.28,53.46 329.26,53.9 329.27,54.34C329.28,54.78 329.31,55.22 329.35,55.66C329.39,56.1 329.46,56.54 329.53,56.98C329.6,57.42 329.7,57.86 329.79,58.3C329.89,58.74 330,59.18 330.1,59.62C330.2,60.06 330.31,60.5 330.41,60.94C330.51,61.38 330.61,61.82 330.71,62.26C330.81,62.7 330.91,63.14 331,63.58C331.09,64.02 331.18,64.46 331.27,64.9C331.36,65.34 331.45,65.78 331.55,66.22C331.65,66.66 331.75,67.1 331.86,67.54C331.97,67.98 332.08,68.42 332.2,68.86C332.32,69.3 332.44,69.74 332.57,70.18C332.7,70.62 332.83,71.06 332.97,71.5C333.11,71.94 333.25,72.38 333.39,72.82C333.53,73.26 333.67,73.7 333.82,74.14C333.97,74.58 334.12,75.02 334.28,75.46C334.44,75.9 334.6,76.34 334.76,76.78C334.92,77.22 335.09,77.66 335.26,78.1C335.43,78.54 335.61,78.98 335.78,79.42C335.95,79.86 336.11,80.3 336.27,80.74C336.43,81.18 336.59,81.62 336.74,82.06C336.89,82.5 337.03,82.94 337.18,83.38C337.33,83.82 337.47,84.26 337.62,84.7C337.77,85.14 337.91,85.58 338.06,86.02C338.21,86.46 338.37,86.9 338.53,87.34C338.69,87.78 338.84,88.22 339,88.66C339.15,89.1 339.32,89.53 339.46,89.97C339.6,90.41 339.73,90.85 339.86,91.29C339.98,91.73 340.1,92.17 340.21,92.61C340.32,93.05 340.42,93.49 340.52,93.93C340.62,94.37 340.71,94.81 340.81,95.25C340.91,95.69 341.01,96.13 341.11,96.57C341.22,97.01 341.33,97.45 341.44,97.89C341.55,98.33 341.68,98.77 341.79,99.21C341.9,99.65 342.01,100.09 342.12,100.53C342.23,100.97 342.34,101.41 342.43,101.85C342.52,102.29 342.6,102.73 342.68,103.17C342.76,103.61 342.83,104.05 342.89,104.49C342.95,104.93 343.01,105.37 343.06,105.81C343.11,106.25 343.16,106.69 343.21,107.13C343.26,107.57 343.3,108.01 343.34,108.45C343.38,108.89 343.43,109.33 343.47,109.77C343.51,110.21 343.55,110.65 343.59,111.09C343.63,111.53 343.66,111.97 343.7,112.41C343.74,112.85 343.78,113.29 343.82,113.73C343.86,114.17 343.89,114.61 343.93,115.05C343.97,115.49 344,115.93 344.04,116.37C344.08,116.81 344.12,117.25 344.16,117.69C344.2,118.13 344.25,118.57 344.3,119.01C344.35,119.45 344.39,119.89 344.44,120.33Q344.49,120.77 344.59,121.65Z" style="vector-effect: non-scaling-stroke; stroke-width: 2px; stroke: rgb(239, 85, 59); stroke-opacity: 1; fill: rgb(239, 85, 59); fill-opacity: 0.5;"/><path class="violin" d="M476.9,122.2Q477.44,121.23 477.71,120.74C477.98,120.26 478.25,119.78 478.51,119.29C478.77,118.81 479.02,118.33 479.26,117.84C479.5,117.36 479.74,116.88 479.96,116.39C480.18,115.91 480.39,115.42 480.6,114.93C480.81,114.45 481.01,113.96 481.21,113.48C481.41,113 481.59,112.51 481.78,112.03C481.97,111.54 482.15,111.06 482.33,110.57C482.51,110.09 482.68,109.6 482.85,109.12C483.02,108.64 483.18,108.16 483.33,107.67C483.48,107.19 483.62,106.7 483.75,106.21C483.88,105.73 484,105.24 484.11,104.76C484.22,104.28 484.33,103.79 484.43,103.31C484.53,102.83 484.63,102.34 484.73,101.86C484.84,101.37 484.94,100.89 485.06,100.4C485.18,99.92 485.3,99.43 485.43,98.95C485.56,98.47 485.7,97.98 485.83,97.5C485.97,97.01 486.11,96.53 486.24,96.04C486.37,95.56 486.49,95.07 486.61,94.59C486.72,94.11 486.83,93.63 486.93,93.14C487.03,92.66 487.11,92.17 487.2,91.68C487.28,91.2 487.36,90.71 487.44,90.23C487.52,89.75 487.6,89.26 487.68,88.78C487.76,88.29 487.84,87.81 487.91,87.32C487.98,86.84 488.06,86.35 488.12,85.87C488.18,85.39 488.23,84.9 488.27,84.42C488.31,83.94 488.33,83.45 488.34,82.97C488.35,82.48 488.34,82 488.32,81.51C488.3,81.03 488.27,80.54 488.23,80.06C488.19,79.58 488.14,79.09 488.09,78.61C488.04,78.12 487.97,77.64 487.91,77.15C487.85,76.67 487.79,76.18 487.72,75.7C487.65,75.22 487.58,74.73 487.51,74.25C487.43,73.76 487.36,73.28 487.27,72.79C487.19,72.31 487.1,71.82 487,71.34C486.9,70.86 486.78,70.37 486.67,69.89C486.55,69.41 486.44,68.92 486.31,68.44C486.18,67.95 486.05,67.47 485.91,66.98C485.78,66.5 485.64,66.01 485.5,65.53C485.36,65.05 485.23,64.56 485.09,64.08C484.95,63.59 484.82,63.11 484.68,62.62C484.54,62.14 484.39,61.65 484.24,61.17C484.09,60.69 483.93,60.2 483.77,59.72C483.6,59.23 483.43,58.74 483.25,58.26C483.07,57.77 482.88,57.29 482.7,56.81C482.52,56.33 482.33,55.85 482.15,55.36C481.97,54.88 481.8,54.39 481.64,53.9C481.48,53.42 481.32,52.93 481.18,52.45C481.04,51.97 480.91,51.48 480.79,51C480.67,50.52 480.56,50.03 480.45,49.55C480.34,49.06 480.25,48.58 480.15,48.09C480.05,47.61 479.96,47.12 479.87,46.64C479.78,46.16 479.68,45.67 479.59,45.19C479.49,44.7 479.4,44.22 479.3,43.73C479.2,43.25 479.1,42.76 479,42.28C478.9,41.8 478.8,41.31 478.7,40.83C478.6,40.34 478.49,39.86 478.39,39.37C478.29,38.89 478.19,38.4 478.09,37.92C478,37.44 477.91,36.95 477.82,36.47C477.73,35.99 477.65,35.5 477.57,35.02C477.49,34.53 477.41,34.05 477.34,33.56C477.27,33.08 477.2,32.59 477.13,32.11C477.06,31.63 476.99,31.14 476.91,30.66C476.83,30.17 476.75,29.69 476.66,29.2C476.57,28.72 476.48,28.23 476.38,27.75C476.28,27.27 476.18,26.78 476.07,26.3C475.96,25.81 475.85,25.33 475.74,24.84C475.63,24.36 475.52,23.87 475.41,23.39C475.3,22.91 475.19,22.42 475.1,21.94C475,21.45 474.92,20.97 474.84,20.48C474.76,20 474.69,19.51 474.62,19.03Q474.55,18.55 474.44,17.58L473.71,17.58Q473.6,18.55 473.53,19.03C473.46,19.51 473.39,20 473.31,20.48C473.23,20.97 473.15,21.45 473.05,21.94C472.96,22.42 472.85,22.91 472.74,23.39C472.63,23.87 472.52,24.36 472.41,24.84C472.3,25.33 472.19,25.81 472.08,26.3C471.97,26.78 471.87,27.27 471.77,27.75C471.67,28.23 471.58,28.72 471.49,29.2C471.4,29.69 471.32,30.17 471.24,30.66C471.16,31.14 471.09,31.63 471.02,32.11C470.95,32.59 470.88,33.08 470.81,33.56C470.74,34.05 470.66,34.53 470.58,35.02C470.5,35.5 470.42,35.99 470.33,36.47C470.24,36.95 470.15,37.44 470.06,37.92C469.96,38.4 469.86,38.89 469.76,39.37C469.66,39.86 469.55,40.34 469.45,40.83C469.35,41.31 469.25,41.8 469.15,42.28C469.05,42.76 468.95,43.25 468.85,43.73C468.75,44.22 468.66,44.7 468.56,45.19C468.47,45.67 468.37,46.16 468.28,46.64C468.19,47.12 468.1,47.61 468,48.09C467.9,48.58 467.81,49.06 467.7,49.55C467.59,50.03 467.48,50.52 467.36,51C467.24,51.48 467.11,51.97 466.97,52.45C466.83,52.93 466.67,53.42 466.51,53.9C466.35,54.39 466.18,54.88 466,55.36C465.82,55.85 465.63,56.33 465.45,56.81C465.27,57.29 465.08,57.77 464.9,58.26C464.72,58.74 464.55,59.23 464.38,59.72C464.22,60.2 464.06,60.69 463.91,61.17C463.76,61.65 463.61,62.14 463.47,62.62C463.33,63.11 463.2,63.59 463.06,64.08C462.92,64.56 462.79,65.05 462.65,65.53C462.51,66.01 462.37,66.5 462.24,66.98C462.1,67.47 461.97,67.95 461.84,68.44C461.71,68.92 461.6,69.41 461.48,69.89C461.37,70.37 461.25,70.86 461.15,71.34C461.05,71.82 460.96,72.31 460.88,72.79C460.79,73.28 460.72,73.76 460.64,74.25C460.57,74.73 460.5,75.22 460.43,75.7C460.36,76.18 460.3,76.67 460.24,77.15C460.18,77.64 460.11,78.12 460.06,78.61C460.01,79.09 459.96,79.58 459.92,80.06C459.88,80.54 459.85,81.03 459.83,81.51C459.81,82 459.8,82.48 459.81,82.97C459.82,83.45 459.84,83.94 459.88,84.42C459.92,84.9 459.97,85.39 460.03,85.87C460.09,86.35 460.17,86.84 460.24,87.32C460.31,87.81 460.39,88.29 460.47,88.78C460.55,89.26 460.63,89.75 460.71,90.23C460.79,90.71 460.87,91.2 460.95,91.68C461.04,92.17 461.12,92.66 461.22,93.14C461.32,93.63 461.43,94.11 461.54,94.59C461.66,95.07 461.78,95.56 461.91,96.04C462.04,96.53 462.18,97.01 462.32,97.5C462.45,97.98 462.59,98.47 462.72,98.95C462.85,99.43 462.97,99.92 463.09,100.4C463.21,100.89 463.31,101.37 463.42,101.86C463.52,102.34 463.62,102.83 463.72,103.31C463.82,103.79 463.93,104.28 464.04,104.76C464.15,105.24 464.27,105.73 464.4,106.21C464.53,106.7 464.67,107.19 464.82,107.67C464.97,108.16 465.13,108.64 465.3,109.12C465.47,109.6 465.64,110.09 465.82,110.57C466,111.06 466.18,111.54 466.37,112.03C466.56,112.51 466.74,113 466.94,113.48C467.14,113.96 467.34,114.45 467.55,114.93C467.76,115.42 467.97,115.91 468.19,116.39C468.41,116.88 468.65,117.36 468.89,117.84C469.13,118.33 469.38,118.81 469.64,119.29C469.9,119.78 470.17,120.26 470.44,120.74Q470.71,121.23 471.25,122.2Z" style="vector-effect: non-scaling-stroke; stroke-width: 2px; stroke: rgb(239, 85, 59); stroke-opacity: 1; fill: rgb(239, 85, 59); fill-opacity: 0.5;"/><path class="box" d="M83.12,68.32H91.03M83.12,84.34H91.03V53.27H83.12ZM87.08,84.34V122.14M87.08,53.27V16.01" style="vector-effect: non-scaling-stroke; stroke-width: 2px; stroke: rgb(239, 85, 59); stroke-opacity: 1; fill: rgb(239, 85, 59); fill-opacity: 0.5;"/><path class="box" d="M212.12,67.98H220.03M212.12,84.36H220.03V51.66H212.12ZM216.08,84.36V122.06M216.08,51.66V16" style="vector-effect: non-scaling-stroke; stroke-width: 2px; stroke: rgb(239, 85, 59); stroke-opacity: 1; fill: rgb(239, 85, 59); fill-opacity: 0.5;"/><path class="box" d="M341.12,57.23H349.03M341.12,73.23H349.03V43.04H341.12ZM345.08,73.23V118.18M345.08,43.04V16.07" style="vector-effect: non-scaling-stroke; stroke-width: 2px; stroke: rgb(239, 85, 59); stroke-opacity: 1; fill: rgb(239, 85, 59); fill-opacity: 0.5;"/><path class="box" d="M470.12,80.42H478.03M470.12,96.24H478.03V63.1H470.12ZM474.08,96.24V122.2M474.08,63.1V17.58" style="vector-effect: non-scaling-stroke; stroke-width: 2px; stroke: rgb(239, 85, 59); stroke-opacity: 1; fill: rgb(239, 85, 59); fill-opacity: 0.5;"/><path class="mean" d="M83.12,68.78H91.03" style="fill: none; vector-effect: non-scaling-stroke; stroke-width: 2px; stroke-dasharray: 4px, 2px; stroke: rgb(0, 0, 0); stroke-opacity: 1;"/><path class="mean" d="M212.12,68.36H220.03" style="fill: none; vector-effect: non-scaling-stroke; stroke-width: 2px; stroke-dasharray: 4px, 2px; stroke: rgb(0, 0, 0); stroke-opacity: 1;"/><path class="mean" d="M341.12,59.03H349.03" style="fill: none; vector-effect: non-scaling-stroke; stroke-width: 2px; stroke-dasharray: 4px, 2px; stroke: rgb(0, 0, 0); stroke-opacity: 1;"/><path class="mean" d="M470.12,78.98H478.03" style="fill: none; vector-effect: non-scaling-stroke; stroke-width: 2px; stroke-dasharray: 4px, 2px; stroke: rgb(0, 0, 0); stroke-opacity: 1;"/></g></g></g><g class="overplot"/><path class="xlines-above crisp" d="M0,0" style="fill: none;"/><path class="ylines-above crisp" d="M0,0" style="fill: none;"/><g class="overlines-above"/><g class="xaxislayer-above"><g class="xtick"><text text-anchor="middle" x="0" y="433" transform="translate(144.5,0)" style="font-family: 'Open Sans', verdana, arial, sans-serif; font-size: 12px; fill: rgb(42, 63, 95); fill-opacity: 1; white-space: pre; opacity: 1;">CIFAR10</text></g><g class="xtick"><text text-anchor="middle" x="0" y="433" transform="translate(273.5,0)" style="font-family: 'Open Sans', verdana, arial, sans-serif; font-size: 12px; fill: rgb(42, 63, 95); fill-opacity: 1; white-space: pre; opacity: 1;">CIFAR100</text></g><g class="xtick"><text text-anchor="middle" x="0" y="433" transform="translate(402.5,0)" style="font-family: 'Open Sans', verdana, arial, sans-serif; font-size: 12px; fill: rgb(42, 63, 95); fill-opacity: 1; white-space: pre; opacity: 1;">EMNIST</text></g><g class="xtick"><text text-anchor="middle" x="0" y="433" transform="translate(531.5,0)" style="font-family: 'Open Sans', verdana, arial, sans-serif; font-size: 12px; fill: rgb(42, 63, 95); fill-opacity: 1; white-space: pre; opacity: 1;">FashionMNIST</text></g></g><g class="yaxislayer-above"><g class="ytick"><text text-anchor="end" x="79" y="4.199999999999999" transform="translate(0,418)" style="font-family: 'Open Sans', verdana, arial, sans-serif; font-size: 12px; fill: rgb(42, 63, 95); fill-opacity: 1; white-space: pre; opacity: 1;">0</text></g><g class="ytick"><text text-anchor="end" x="79" y="4.199999999999999" style="font-family: 'Open Sans', verdana, arial, sans-serif; font-size: 12px; fill: rgb(42, 63, 95); fill-opacity: 1; white-space: pre; opacity: 1;" transform="translate(0,354.96000000000004)">0.2</text></g><g class="ytick"><text text-anchor="end" x="79" y="4.199999999999999" style="font-family: 'Open Sans', verdana, arial, sans-serif; font-size: 12px; fill: rgb(42, 63, 95); fill-opacity: 1; white-space: pre; opacity: 1;" transform="translate(0,291.91999999999996)">0.4</text></g><g class="ytick"><text text-anchor="end" x="79" y="4.199999999999999" style="font-family: 'Open Sans', verdana, arial, sans-serif; font-size: 12px; fill: rgb(42, 63, 95); fill-opacity: 1; white-space: pre; opacity: 1;" transform="translate(0,228.88)">0.6</text></g><g class="ytick"><text text-anchor="end" x="79" y="4.199999999999999" style="font-family: 'Open Sans', verdana, arial, sans-serif; font-size: 12px; fill: rgb(42, 63, 95); fill-opacity: 1; white-space: pre; opacity: 1;" transform="translate(0,165.84)">0.8</text></g><g class="ytick"><text text-anchor="end" x="79" y="4.199999999999999" style="font-family: 'Open Sans', verdana, arial, sans-serif; font-size: 12px; fill: rgb(42, 63, 95); fill-opacity: 1; white-space: pre; opacity: 1;" transform="translate(0,102.8)">1</text></g></g><g class="overaxes-above"/></g></g><g class="polarlayer"/><g class="smithlayer"/><g class="ternarylayer"/><g class="geolayer"/><g class="funnelarealayer"/><g class="pielayer"/><g class="iciclelayer"/><g class="treemaplayer"/><g class="sunburstlayer"/><g class="glimages"/><defs id="topdefs-880101"><g class="clips"/><clipPath id="legend880101"><rect width="82" height="67" x="0" y="0"/></clipPath></defs><g class="layer-above"><g class="imagelayer"/><g class="shapelayer"/></g><g class="infolayer"><g class="legend" pointer-events="all" transform="translate(606.32,100)"><rect class="bg" shape-rendering="crispEdges" width="82" height="67" x="0" y="0" style="stroke: rgb(68, 68, 68); stroke-opacity: 1; fill: rgb(255, 255, 255); fill-opacity: 1; stroke-width: 0px;"/><g class="scrollbox" transform="" clip-path="url(#legend880101)"><text class="legendtitletext" text-anchor="start" x="2" y="18.2" style="font-family: 'Open Sans', verdana, arial, sans-serif; font-size: 14px; fill: rgb(42, 63, 95); fill-opacity: 1; white-space: pre;">SHAP mode</text><g class="groups"><g class="traces" transform="translate(0,32.7)" style="opacity: 1;"><text class="legendtext" text-anchor="start" x="40" y="4.680000000000001" style="font-family: 'Open Sans', verdana, arial, sans-serif; font-size: 12px; fill: rgb(42, 63, 95); fill-opacity: 1; white-space: pre;">Global</text><g class="layers" style="opacity: 1;"><g class="legendfill"/><g class="legendlines"/><g class="legendsymbols"><g class="legendpoints"><path class="legendbox" d="M6,6H-6V-6H6Z" transform="translate(20,0)" style="stroke-width: 2px; fill: rgb(99, 110, 250); fill-opacity: 0.5; stroke: rgb(99, 110, 250); stroke-opacity: 1;"/></g></g></g><rect class="legendtoggle" x="0" y="-9.5" width="74.6875" height="19" style="fill: rgb(0, 0, 0); fill-opacity: 0;"/></g><g class="traces" transform="translate(0,51.7)" style="opacity: 1;"><text class="legendtext" text-anchor="start" x="40" y="4.680000000000001" style="font-family: 'Open Sans', verdana, arial, sans-serif; font-size: 12px; fill: rgb(42, 63, 95); fill-opacity: 1; white-space: pre;">Local</text><g class="layers" style="opacity: 1;"><g class="legendfill"/><g class="legendlines"/><g class="legendsymbols"><g class="legendpoints"><path class="legendbox" d="M6,6H-6V-6H6Z" transform="translate(20,0)" style="stroke-width: 2px; fill: rgb(239, 85, 59); fill-opacity: 0.5; stroke: rgb(239, 85, 59); stroke-opacity: 1;"/></g></g></g><rect class="legendtoggle" x="0" y="-9.5" width="74.6875" height="19" style="fill: rgb(0, 0, 0); fill-opacity: 0;"/></g></g></g><rect class="scrollbar" rx="20" ry="3" width="0" height="0" x="0" y="0" style="fill: rgb(128, 139, 164); fill-opacity: 1;"/></g><g class="g-gtitle"/><g class="g-xtitle"/><g class="g-ytitle"/></g></svg>