<svg class="main-svg" xmlns="http://www.w3.org/2000/svg" xmlns:xlink="http://www.w3.org/1999/xlink" width="700" height="500" style="" viewBox="0 0 700 500"><rect x="0" y="0" width="700" height="500" style="fill: rgb(255, 255, 255); fill-opacity: 1;"/><defs id="defs-e2d094"><g class="clips"><clipPath id="clipe2d094xyplot" class="plotclip"><rect width="516" height="320"/></clipPath><clipPath class="axesclip" id="clipe2d094x"><rect x="80" y="0" width="516" height="500"/></clipPath><clipPath class="axesclip" id="clipe2d094y"><rect x="0" y="100" width="700" height="320"/></clipPath><clipPath class="axesclip" id="clipe2d094xy"><rect x="80" y="100" width="516" height="320"/></clipPath></g><g class="gradients"/><g class="patterns"/></defs><g class="bglayer"><rect class="bg" x="80" y="100" width="516" height="320" style="fill: rgb(229, 236, 246); fill-opacity: 1; stroke-width: 0;"/></g><g class="layer-below"><g class="imagelayer"/><g class="shapelayer"/></g><g class="cartesianlayer"><g class="subplot xy"><g class="layer-subplot"><g class="shapelayer"/><g class="imagelayer"/></g><g class="gridlayer"><g class="x"/><g class="y"><path class="ygrid crisp" transform="translate(0,361.26)" d="M80,0h516" style="stroke: rgb(255, 255, 255); stroke-opacity: 1; stroke-width: 1px;"/><path class="ygrid crisp" transform="translate(0,299.95)" d="M80,0h516" style="stroke: rgb(255, 255, 255); stroke-opacity: 1; stroke-width: 1px;"/><path class="ygrid crisp" transform="translate(0,238.63)" d="M80,0h516" style="stroke: rgb(255, 255, 255); stroke-opacity: 1; stroke-width: 1px;"/><path class="ygrid crisp" transform="translate(0,177.32)" d="M80,0h516" style="stroke: rgb(255, 255, 255); stroke-opacity: 1; stroke-width: 1px;"/><path class="ygrid crisp" transform="translate(0,116)" d="M80,0h516" style="stroke: rgb(255, 255, 255); stroke-opacity: 1; stroke-width: 1px;"/></g></g><g class="zerolinelayer"/><path class="xlines-below"/><path class="ylines-below"/><g class="overlines-below"/><g class="xaxislayer-below"/><g class="yaxislayer-below"/><g class="overaxes-below"/><g class="plot" transform="translate(80,100)" clip-path="url(#clipe2d094xyplot)"><g class="violinlayer mlayer"><g class="trace violins" style="opacity: 1;"><path class="violin" d="M42.05,303.83Q42.07,302.57 42.08,301.94C42.09,301.31 42.1,300.67 42.11,300.04C42.12,299.41 42.13,298.78 42.14,298.15C42.15,297.52 42.15,296.88 42.16,296.25C42.16,295.62 42.17,294.99 42.17,294.36C42.17,293.73 42.18,293.1 42.18,292.47C42.18,291.84 42.19,291.2 42.19,290.57C42.19,289.94 42.19,289.31 42.19,288.68C42.19,288.05 42.2,287.42 42.2,286.79C42.2,286.16 42.2,285.52 42.2,284.89C42.2,284.26 42.21,283.63 42.21,283C42.21,282.37 42.21,281.74 42.21,281.11C42.21,280.48 42.22,279.84 42.22,279.21C42.22,278.58 42.22,277.95 42.22,277.32C42.22,276.69 42.22,276.06 42.22,275.43C42.22,274.8 42.22,274.16 42.22,273.53C42.22,272.9 42.22,272.27 42.22,271.64C42.22,271.01 42.2,270.38 42.2,269.75C42.19,269.12 42.2,268.48 42.19,267.85C42.19,267.22 42.18,266.59 42.17,265.96C42.16,265.33 42.16,264.69 42.15,264.06C42.15,263.43 42.14,262.8 42.14,262.17C42.14,261.54 42.13,260.91 42.13,260.28C42.13,259.65 42.14,259.01 42.14,258.38C42.14,257.75 42.14,257.12 42.14,256.49C42.14,255.86 42.15,255.23 42.15,254.6C42.15,253.97 42.15,253.33 42.15,252.7C42.15,252.07 42.16,251.44 42.16,250.81C42.16,250.18 42.16,249.55 42.16,248.92C42.16,248.29 42.17,247.65 42.17,247.02C42.17,246.39 42.18,245.76 42.18,245.13C42.18,244.5 42.19,243.87 42.19,243.24C42.19,242.61 42.2,241.97 42.2,241.34C42.2,240.71 42.2,240.08 42.2,239.45C42.2,238.82 42.2,238.19 42.2,237.56C42.2,236.93 42.19,236.29 42.19,235.66C42.19,235.03 42.18,234.4 42.18,233.77C42.18,233.14 42.17,232.5 42.17,231.87C42.17,231.24 42.17,230.61 42.17,229.98C42.17,229.35 42.17,228.72 42.17,228.09C42.17,227.46 42.18,226.82 42.18,226.19C42.18,225.56 42.19,224.93 42.19,224.3C42.19,223.67 42.2,223.04 42.2,222.41C42.2,221.78 42.21,221.14 42.21,220.51C42.21,219.88 42.22,219.25 42.22,218.62C42.22,217.99 42.22,217.36 42.22,216.73C42.22,216.1 42.22,215.46 42.22,214.83C42.22,214.2 42.22,213.57 42.22,212.94C42.22,212.31 42.21,211.68 42.21,211.05C42.21,210.42 42.2,209.78 42.2,209.15C42.2,208.52 42.19,207.89 42.19,207.26C42.18,206.63 42.17,205.99 42.17,205.36C42.17,204.73 42.17,204.1 42.17,203.47C42.17,202.84 42.17,202.21 42.17,201.58C42.17,200.95 42.17,200.31 42.17,199.68C42.17,199.05 42.18,198.42 42.18,197.79C42.18,197.16 42.19,196.53 42.19,195.9C42.2,195.27 42.2,194.63 42.21,194C42.21,193.37 42.22,192.74 42.22,192.11C42.22,191.48 42.22,190.85 42.22,190.22C42.22,189.59 42.22,188.95 42.22,188.32C42.22,187.69 42.22,187.06 42.22,186.43C42.22,185.8 42.21,185.17 42.21,184.54C42.21,183.91 42.2,183.27 42.2,182.64C42.2,182.01 42.19,181.38 42.19,180.75C42.19,180.12 42.19,179.49 42.19,178.86C42.19,178.23 42.18,177.59 42.18,176.96C42.18,176.33 42.19,175.7 42.19,175.07C42.19,174.44 42.19,173.8 42.19,173.17C42.19,172.54 42.2,171.91 42.21,171.28C42.22,170.65 42.22,170.02 42.23,169.39C42.24,168.76 42.25,168.12 42.26,167.49C42.27,166.86 42.28,166.23 42.29,165.6C42.3,164.97 42.31,164.34 42.32,163.71C42.33,163.08 42.33,162.44 42.34,161.81C42.35,161.18 42.36,160.55 42.36,159.92C42.36,159.29 42.36,158.66 42.36,158.03C42.36,157.4 42.36,156.76 42.36,156.13C42.36,155.5 42.35,154.87 42.35,154.24C42.35,153.61 42.35,152.98 42.35,152.35C42.35,151.72 42.34,151.08 42.34,150.45C42.34,149.82 42.34,149.19 42.34,148.56C42.34,147.93 42.34,147.29 42.34,146.66C42.34,146.03 42.35,145.4 42.35,144.77C42.35,144.14 42.36,143.51 42.36,142.88C42.36,142.25 42.36,141.61 42.36,140.98C42.36,140.35 42.37,139.72 42.37,139.09C42.37,138.46 42.37,137.83 42.37,137.2C42.37,136.57 42.36,135.93 42.36,135.3C42.36,134.67 42.36,134.04 42.36,133.41C42.36,132.78 42.36,132.15 42.36,131.52C42.36,130.89 42.37,130.25 42.37,129.62C42.37,128.99 42.37,128.36 42.37,127.73C42.37,127.1 42.38,126.47 42.38,125.84C42.39,125.21 42.39,124.57 42.4,123.94C42.4,123.31 42.41,122.68 42.41,122.05C42.42,121.42 42.42,120.79 42.43,120.16C42.44,119.53 42.45,118.89 42.46,118.26C42.47,117.63 42.47,117 42.48,116.37C42.49,115.74 42.5,115.1 42.51,114.47C42.52,113.84 42.53,113.21 42.54,112.58C42.55,111.95 42.55,111.32 42.56,110.69C42.57,110.06 42.58,109.42 42.58,108.79C42.58,108.16 42.58,107.53 42.58,106.9C42.58,106.27 42.57,105.64 42.57,105.01C42.57,104.38 42.56,103.74 42.56,103.11C42.56,102.48 42.55,101.85 42.55,101.22C42.55,100.59 42.54,99.96 42.54,99.33C42.54,98.7 42.54,98.06 42.55,97.43C42.55,96.8 42.56,96.17 42.57,95.54C42.58,94.91 42.6,94.28 42.61,93.65C42.62,93.02 42.63,92.38 42.64,91.75C42.65,91.12 42.67,90.49 42.68,89.86C42.69,89.23 42.7,88.6 42.71,87.97C42.72,87.34 42.72,86.7 42.73,86.07C42.73,85.44 42.74,84.81 42.74,84.18C42.74,83.55 42.75,82.91 42.75,82.28C42.75,81.65 42.75,81.02 42.75,80.39C42.75,79.76 42.76,79.13 42.76,78.5C42.77,77.87 42.77,77.23 42.78,76.6C42.79,75.97 42.79,75.34 42.8,74.71C42.81,74.08 42.82,73.45 42.83,72.82C42.84,72.19 42.86,71.55 42.87,70.92C42.88,70.29 42.89,69.66 42.9,69.03C42.91,68.4 42.93,67.77 42.94,67.14C42.95,66.51 42.96,65.87 42.98,65.24C43,64.61 43.02,63.98 43.04,63.35C43.06,62.72 43.09,62.09 43.11,61.46C43.14,60.83 43.16,60.19 43.19,59.56C43.22,58.93 43.25,58.3 43.28,57.67C43.31,57.04 43.35,56.4 43.38,55.77C43.41,55.14 43.45,54.51 43.48,53.88C43.52,53.25 43.55,52.62 43.59,51.99C43.63,51.36 43.66,50.72 43.7,50.09C43.74,49.46 43.77,48.83 43.81,48.2C43.85,47.57 43.88,46.94 43.92,46.31C43.96,45.68 44.01,45.04 44.06,44.41C44.11,43.78 44.16,43.15 44.22,42.52C44.28,41.89 44.34,41.26 44.42,40.63C44.5,40 44.58,39.36 44.68,38.73C44.78,38.1 44.9,37.47 45.04,36.84C45.18,36.21 45.33,35.58 45.53,34.95C45.73,34.31 45.95,33.67 46.23,33.05C46.51,32.41 46.83,31.78 47.21,31.16C47.6,30.52 48.05,29.89 48.54,29.27C49.06,28.62 49.66,27.99 50.27,27.37C50.91,26.73 51.62,26.11 52.3,25.48C52.99,24.85 53.74,24.23 54.4,23.58C55.03,22.96 55.71,22.35 56.18,21.69C56.61,21.09 57.04,20.45 57.17,19.8C57.3,19.19 57.24,18.5 57.02,17.9Q56.77,17.23 55.65,16.01L28.2,16.01Q27.08,17.23 26.83,17.9C26.61,18.5 26.55,19.19 26.68,19.8C26.81,20.45 27.24,21.09 27.67,21.69C28.14,22.35 28.82,22.96 29.45,23.58C30.11,24.23 30.86,24.85 31.55,25.48C32.23,26.11 32.94,26.73 33.58,27.37C34.19,27.99 34.79,28.62 35.31,29.27C35.8,29.89 36.25,30.52 36.64,31.16C37.02,31.78 37.34,32.41 37.62,33.05C37.9,33.67 38.12,34.31 38.32,34.95C38.52,35.58 38.67,36.21 38.81,36.84C38.95,37.47 39.07,38.1 39.17,38.73C39.27,39.36 39.35,40 39.43,40.63C39.51,41.26 39.57,41.89 39.63,42.52C39.69,43.15 39.74,43.78 39.79,44.41C39.84,45.04 39.89,45.68 39.93,46.31C39.97,46.94 40,47.57 40.04,48.2C40.08,48.83 40.11,49.46 40.15,50.09C40.19,50.72 40.22,51.36 40.26,51.99C40.3,52.62 40.33,53.25 40.37,53.88C40.4,54.51 40.44,55.14 40.47,55.77C40.5,56.4 40.54,57.04 40.57,57.67C40.6,58.3 40.63,58.93 40.66,59.56C40.69,60.19 40.71,60.83 40.74,61.46C40.76,62.09 40.79,62.72 40.81,63.35C40.83,63.98 40.85,64.61 40.87,65.24C40.89,65.87 40.9,66.51 40.91,67.14C40.92,67.77 40.94,68.4 40.95,69.03C40.96,69.66 40.97,70.29 40.98,70.92C40.99,71.55 41.01,72.19 41.02,72.82C41.03,73.45 41.04,74.08 41.05,74.71C41.06,75.34 41.06,75.97 41.07,76.6C41.08,77.23 41.08,77.87 41.09,78.5C41.09,79.13 41.1,79.76 41.1,80.39C41.1,81.02 41.1,81.65 41.1,82.28C41.1,82.91 41.11,83.55 41.11,84.18C41.11,84.81 41.12,85.44 41.12,86.07C41.13,86.7 41.13,87.34 41.14,87.97C41.15,88.6 41.16,89.23 41.17,89.86C41.18,90.49 41.2,91.12 41.21,91.75C41.22,92.38 41.23,93.02 41.24,93.65C41.25,94.28 41.27,94.91 41.28,95.54C41.29,96.17 41.3,96.8 41.3,97.43C41.31,98.06 41.31,98.7 41.31,99.33C41.31,99.96 41.3,100.59 41.3,101.22C41.3,101.85 41.29,102.48 41.29,103.11C41.29,103.74 41.28,104.38 41.28,105.01C41.28,105.64 41.27,106.27 41.27,106.9C41.27,107.53 41.27,108.16 41.27,108.79C41.27,109.42 41.28,110.06 41.29,110.69C41.3,111.32 41.3,111.95 41.31,112.58C41.32,113.21 41.33,113.84 41.34,114.47C41.35,115.1 41.36,115.74 41.37,116.37C41.38,117 41.38,117.63 41.39,118.26C41.4,118.89 41.41,119.53 41.42,120.16C41.43,120.79 41.43,121.42 41.44,122.05C41.44,122.68 41.45,123.31 41.45,123.94C41.46,124.57 41.46,125.21 41.47,125.84C41.47,126.47 41.48,127.1 41.48,127.73C41.48,128.36 41.48,128.99 41.48,129.62C41.48,130.25 41.49,130.89 41.49,131.52C41.49,132.15 41.49,132.78 41.49,133.41C41.49,134.04 41.49,134.67 41.49,135.3C41.49,135.93 41.48,136.57 41.48,137.2C41.48,137.83 41.48,138.46 41.48,139.09C41.48,139.72 41.49,140.35 41.49,140.98C41.49,141.61 41.49,142.25 41.49,142.88C41.49,143.51 41.5,144.14 41.5,144.77C41.5,145.4 41.51,146.03 41.51,146.66C41.51,147.29 41.51,147.93 41.51,148.56C41.51,149.19 41.51,149.82 41.51,150.45C41.51,151.08 41.5,151.72 41.5,152.35C41.5,152.98 41.5,153.61 41.5,154.24C41.5,154.87 41.49,155.5 41.49,156.13C41.49,156.76 41.49,157.4 41.49,158.03C41.49,158.66 41.49,159.29 41.49,159.92C41.49,160.55 41.5,161.18 41.51,161.81C41.52,162.44 41.52,163.08 41.53,163.71C41.54,164.34 41.55,164.97 41.56,165.6C41.57,166.23 41.58,166.86 41.59,167.49C41.6,168.12 41.61,168.76 41.62,169.39C41.63,170.02 41.63,170.65 41.64,171.28C41.65,171.91 41.66,172.54 41.66,173.17C41.66,173.8 41.66,174.44 41.66,175.07C41.66,175.7 41.67,176.33 41.67,176.96C41.67,177.59 41.66,178.23 41.66,178.86C41.66,179.49 41.66,180.12 41.66,180.75C41.66,181.38 41.65,182.01 41.65,182.64C41.65,183.27 41.64,183.91 41.64,184.54C41.64,185.17 41.63,185.8 41.63,186.43C41.63,187.06 41.63,187.69 41.63,188.32C41.63,188.95 41.63,189.59 41.63,190.22C41.63,190.85 41.63,191.48 41.63,192.11C41.63,192.74 41.64,193.37 41.64,194C41.65,194.63 41.65,195.27 41.66,195.9C41.66,196.53 41.67,197.16 41.67,197.79C41.67,198.42 41.68,199.05 41.68,199.68C41.68,200.31 41.68,200.95 41.68,201.58C41.68,202.21 41.68,202.84 41.68,203.47C41.68,204.1 41.68,204.73 41.68,205.36C41.68,205.99 41.67,206.63 41.66,207.26C41.66,207.89 41.65,208.52 41.65,209.15C41.65,209.78 41.64,210.42 41.64,211.05C41.64,211.68 41.63,212.31 41.63,212.94C41.63,213.57 41.63,214.2 41.63,214.83C41.63,215.46 41.63,216.1 41.63,216.73C41.63,217.36 41.63,217.99 41.63,218.62C41.63,219.25 41.64,219.88 41.64,220.51C41.64,221.14 41.65,221.78 41.65,222.41C41.65,223.04 41.66,223.67 41.66,224.3C41.66,224.93 41.67,225.56 41.67,226.19C41.67,226.82 41.68,227.46 41.68,228.09C41.68,228.72 41.68,229.35 41.68,229.98C41.68,230.61 41.68,231.24 41.68,231.87C41.68,232.5 41.67,233.14 41.67,233.77C41.67,234.4 41.66,235.03 41.66,235.66C41.66,236.29 41.65,236.93 41.65,237.56C41.65,238.19 41.65,238.82 41.65,239.45C41.65,240.08 41.65,240.71 41.65,241.34C41.65,241.97 41.66,242.61 41.66,243.24C41.66,243.87 41.67,244.5 41.67,245.13C41.67,245.76 41.68,246.39 41.68,247.02C41.68,247.65 41.69,248.29 41.69,248.92C41.69,249.55 41.69,250.18 41.69,250.81C41.69,251.44 41.7,252.07 41.7,252.7C41.7,253.33 41.7,253.97 41.7,254.6C41.7,255.23 41.71,255.86 41.71,256.49C41.71,257.12 41.71,257.75 41.71,258.38C41.71,259.01 41.72,259.65 41.72,260.28C41.72,260.91 41.71,261.54 41.71,262.17C41.71,262.8 41.7,263.43 41.7,264.06C41.69,264.69 41.69,265.33 41.68,265.96C41.67,266.59 41.66,267.22 41.66,267.85C41.65,268.48 41.66,269.12 41.65,269.75C41.65,270.38 41.63,271.01 41.63,271.64C41.63,272.27 41.63,272.9 41.63,273.53C41.63,274.16 41.63,274.8 41.63,275.43C41.63,276.06 41.63,276.69 41.63,277.32C41.63,277.95 41.63,278.58 41.63,279.21C41.63,279.84 41.64,280.48 41.64,281.11C41.64,281.74 41.64,282.37 41.64,283C41.64,283.63 41.65,284.26 41.65,284.89C41.65,285.52 41.65,286.16 41.65,286.79C41.65,287.42 41.66,288.05 41.66,288.68C41.66,289.31 41.66,289.94 41.66,290.57C41.66,291.2 41.67,291.84 41.67,292.47C41.67,293.1 41.68,293.73 41.68,294.36C41.68,294.99 41.69,295.62 41.69,296.25C41.7,296.88 41.7,297.52 41.71,298.15C41.72,298.78 41.73,299.41 41.74,300.04C41.75,300.67 41.76,301.31 41.77,301.94Q41.78,302.57 41.8,303.83Z" style="vector-effect: non-scaling-stroke; stroke-width: 2px; stroke: rgb(99, 110, 250); stroke-opacity: 1; fill: rgb(99, 110, 250); fill-opacity: 0.5;"/><path class="violin" d="M171.32,303.91Q171.39,299.99 171.42,298.03C171.45,296.07 171.49,294.11 171.52,292.15C171.55,290.19 171.58,288.24 171.6,286.28C171.62,284.32 171.64,282.36 171.66,280.4C171.68,278.44 171.69,276.49 171.7,274.53C171.71,272.57 171.72,270.61 171.73,268.65C171.74,266.69 171.75,264.74 171.75,262.78C171.76,260.82 171.76,258.86 171.76,256.9C171.76,254.94 171.76,252.99 171.76,251.03C171.76,249.07 171.77,247.11 171.77,245.15C171.77,243.19 171.77,241.23 171.77,239.27C171.77,237.31 171.78,235.36 171.78,233.4C171.78,231.44 171.79,229.48 171.79,227.52C171.79,225.56 171.8,223.61 171.8,221.65C171.8,219.69 171.81,217.73 171.81,215.77C171.81,213.81 171.81,211.86 171.81,209.9C171.81,207.94 171.82,205.98 171.82,204.02C171.82,202.06 171.82,200.1 171.82,198.14C171.82,196.18 171.81,194.23 171.81,192.27C171.81,190.31 171.81,188.35 171.81,186.39C171.81,184.43 171.81,182.48 171.81,180.52C171.81,178.56 171.8,176.6 171.8,174.64C171.8,172.68 171.8,170.73 171.8,168.77C171.8,166.81 171.79,164.85 171.79,162.89C171.79,160.93 171.78,158.98 171.78,157.02C171.78,155.06 171.77,153.1 171.77,151.14C171.77,149.18 171.76,147.22 171.76,145.26C171.76,143.3 171.77,141.35 171.77,139.39C171.78,137.43 171.78,135.47 171.79,133.51C171.8,131.55 171.8,129.6 171.81,127.64C171.82,125.68 171.83,123.72 171.84,121.76C171.85,119.8 171.86,117.85 171.87,115.89C171.88,113.93 171.89,111.97 171.9,110.01C171.91,108.05 171.92,106.09 171.93,104.13C171.94,102.17 171.95,100.22 171.96,98.26C171.97,96.3 171.99,94.34 172.01,92.38C172.03,90.42 172.05,88.47 172.07,86.51C172.1,84.55 172.12,82.59 172.16,80.63C172.19,78.67 172.24,76.72 172.28,74.76C172.33,72.8 172.37,70.84 172.43,68.88C172.49,66.92 172.55,64.97 172.63,63.01C172.71,61.05 172.8,59.09 172.9,57.13C173,55.17 173.12,53.21 173.24,51.25C173.36,49.29 173.5,47.34 173.63,45.38C173.77,43.42 173.92,41.46 174.05,39.5C174.18,37.54 174.32,35.59 174.41,33.63C174.5,31.67 174.58,29.71 174.61,27.75C174.64,25.79 174.63,23.84 174.58,21.88Q174.53,19.92 174.28,16L167.57,16Q167.32,19.92 167.27,21.88C167.22,23.84 167.21,25.79 167.24,27.75C167.27,29.71 167.35,31.67 167.44,33.63C167.53,35.59 167.67,37.54 167.8,39.5C167.93,41.46 168.08,43.42 168.22,45.38C168.35,47.34 168.49,49.29 168.61,51.25C168.73,53.21 168.85,55.17 168.95,57.13C169.05,59.09 169.14,61.05 169.22,63.01C169.3,64.97 169.36,66.92 169.42,68.88C169.48,70.84 169.52,72.8 169.57,74.76C169.61,76.72 169.66,78.67 169.69,80.63C169.73,82.59 169.75,84.55 169.78,86.51C169.8,88.47 169.82,90.42 169.84,92.38C169.86,94.34 169.88,96.3 169.89,98.26C169.9,100.22 169.91,102.17 169.92,104.13C169.93,106.09 169.94,108.05 169.95,110.01C169.96,111.97 169.97,113.93 169.98,115.89C169.99,117.85 170,119.8 170.01,121.76C170.02,123.72 170.03,125.68 170.04,127.64C170.05,129.6 170.05,131.55 170.06,133.51C170.07,135.47 170.07,137.43 170.08,139.39C170.08,141.35 170.09,143.3 170.09,145.26C170.09,147.22 170.08,149.18 170.08,151.14C170.08,153.1 170.07,155.06 170.07,157.02C170.07,158.98 170.06,160.93 170.06,162.89C170.06,164.85 170.05,166.81 170.05,168.77C170.05,170.73 170.05,172.68 170.05,174.64C170.05,176.6 170.04,178.56 170.04,180.52C170.04,182.48 170.04,184.43 170.04,186.39C170.04,188.35 170.04,190.31 170.04,192.27C170.04,194.23 170.03,196.18 170.03,198.14C170.03,200.1 170.03,202.06 170.03,204.02C170.03,205.98 170.04,207.94 170.04,209.9C170.04,211.86 170.04,213.81 170.04,215.77C170.04,217.73 170.05,219.69 170.05,221.65C170.05,223.61 170.06,225.56 170.06,227.52C170.06,229.48 170.07,231.44 170.07,233.4C170.07,235.36 170.08,237.31 170.08,239.27C170.08,241.23 170.08,243.19 170.08,245.15C170.08,247.11 170.09,249.07 170.09,251.03C170.09,252.99 170.09,254.94 170.09,256.9C170.09,258.86 170.09,260.82 170.1,262.78C170.1,264.74 170.11,266.69 170.12,268.65C170.13,270.61 170.14,272.57 170.15,274.53C170.16,276.49 170.17,278.44 170.19,280.4C170.21,282.36 170.23,284.32 170.25,286.28C170.27,288.24 170.3,290.19 170.33,292.15C170.36,294.11 170.4,296.07 170.43,298.03Q170.46,299.99 170.53,303.91Z" style="vector-effect: non-scaling-stroke; stroke-width: 2px; stroke: rgb(99, 110, 250); stroke-opacity: 1; fill: rgb(99, 110, 250); fill-opacity: 0.5;"/><path class="violin" d="M300.16,304Q300.2,300.45 300.22,298.67C300.24,296.9 300.27,295.12 300.29,293.35C300.31,291.57 300.33,289.8 300.35,288.02C300.37,286.24 300.38,284.47 300.39,282.69C300.4,280.92 300.42,279.14 300.43,277.37C300.44,275.59 300.46,273.82 300.47,272.04C300.48,270.26 300.48,268.49 300.49,266.71C300.5,264.94 300.5,263.16 300.51,261.39C300.52,259.61 300.52,257.84 300.53,256.06C300.53,254.28 300.54,252.51 300.54,250.73C300.54,248.96 300.55,247.18 300.55,245.41C300.55,243.63 300.56,241.86 300.56,240.08C300.56,238.31 300.57,236.53 300.57,234.76C300.57,232.98 300.57,231.21 300.57,229.43C300.57,227.65 300.57,225.88 300.57,224.1C300.57,222.33 300.58,220.55 300.58,218.78C300.58,217 300.59,215.23 300.59,213.45C300.6,211.67 300.6,209.9 300.61,208.12C300.62,206.35 300.63,204.57 300.63,202.8C300.64,201.02 300.64,199.25 300.64,197.47C300.64,195.69 300.65,193.92 300.65,192.14C300.65,190.37 300.65,188.59 300.65,186.82C300.65,185.04 300.65,183.27 300.65,181.49C300.65,179.71 300.64,177.94 300.64,176.16C300.64,174.39 300.63,172.61 300.63,170.84C300.63,169.06 300.63,167.29 300.63,165.51C300.63,163.73 300.63,161.96 300.63,160.18C300.63,158.41 300.64,156.63 300.64,154.86C300.64,153.08 300.65,151.31 300.65,149.53C300.66,147.75 300.66,145.98 300.67,144.2C300.68,142.43 300.68,140.65 300.69,138.88C300.7,137.1 300.7,135.33 300.71,133.55C300.72,131.78 300.73,130 300.74,128.23C300.75,126.45 300.76,124.68 300.77,122.9C300.78,121.12 300.79,119.35 300.8,117.57C300.81,115.8 300.83,114.02 300.84,112.25C300.85,110.47 300.87,108.7 300.88,106.92C300.89,105.14 300.9,103.37 300.92,101.59C300.93,99.82 300.95,98.04 300.97,96.27C300.99,94.49 301.01,92.72 301.03,90.94C301.05,89.16 301.07,87.39 301.1,85.61C301.13,83.84 301.16,82.06 301.2,80.29C301.24,78.51 301.27,76.74 301.32,74.96C301.37,73.18 301.42,71.41 301.49,69.63C301.56,67.86 301.63,66.08 301.72,64.31C301.81,62.53 301.92,60.76 302.04,58.98C302.16,57.2 302.3,55.43 302.46,53.65C302.62,51.88 302.8,50.1 302.99,48.33C303.18,46.55 303.39,44.78 303.58,43C303.77,41.22 303.98,39.45 304.15,37.67C304.32,35.9 304.49,34.13 304.59,32.35C304.69,30.58 304.77,28.8 304.77,27.02C304.77,25.25 304.71,23.47 304.59,21.7Q304.47,19.92 304.06,16.37L295.79,16.37Q295.38,19.92 295.26,21.7C295.14,23.47 295.08,25.25 295.08,27.02C295.08,28.8 295.16,30.58 295.26,32.35C295.36,34.13 295.53,35.9 295.7,37.67C295.87,39.45 296.08,41.22 296.27,43C296.46,44.78 296.67,46.55 296.86,48.33C297.05,50.1 297.23,51.88 297.39,53.65C297.55,55.43 297.69,57.2 297.81,58.98C297.93,60.76 298.04,62.53 298.13,64.31C298.22,66.08 298.29,67.86 298.36,69.63C298.43,71.41 298.48,73.18 298.53,74.96C298.58,76.74 298.61,78.51 298.65,80.29C298.69,82.06 298.72,83.84 298.75,85.61C298.78,87.39 298.8,89.16 298.82,90.94C298.84,92.72 298.86,94.49 298.88,96.27C298.9,98.04 298.92,99.82 298.93,101.59C298.95,103.37 298.96,105.14 298.97,106.92C298.98,108.7 299,110.47 299.01,112.25C299.02,114.02 299.04,115.8 299.05,117.57C299.06,119.35 299.07,121.12 299.08,122.9C299.09,124.68 299.1,126.45 299.11,128.23C299.12,130 299.13,131.78 299.14,133.55C299.15,135.33 299.15,137.1 299.16,138.88C299.17,140.65 299.17,142.43 299.18,144.2C299.19,145.98 299.19,147.75 299.2,149.53C299.2,151.31 299.21,153.08 299.21,154.86C299.21,156.63 299.22,158.41 299.22,160.18C299.22,161.96 299.22,163.73 299.22,165.51C299.22,167.29 299.22,169.06 299.22,170.84C299.22,172.61 299.21,174.39 299.21,176.16C299.21,177.94 299.2,179.71 299.2,181.49C299.2,183.27 299.2,185.04 299.2,186.82C299.2,188.59 299.2,190.37 299.2,192.14C299.2,193.92 299.21,195.69 299.21,197.47C299.21,199.25 299.21,201.02 299.22,202.8C299.22,204.57 299.23,206.35 299.24,208.12C299.25,209.9 299.25,211.67 299.26,213.45C299.26,215.23 299.27,217 299.27,218.78C299.27,220.55 299.28,222.33 299.28,224.1C299.28,225.88 299.28,227.65 299.28,229.43C299.28,231.21 299.28,232.98 299.28,234.76C299.28,236.53 299.29,238.31 299.29,240.08C299.29,241.86 299.3,243.63 299.3,245.41C299.3,247.18 299.31,248.96 299.31,250.73C299.31,252.51 299.32,254.28 299.32,256.06C299.33,257.84 299.33,259.61 299.34,261.39C299.35,263.16 299.35,264.94 299.36,266.71C299.37,268.49 299.37,270.26 299.38,272.04C299.39,273.82 299.41,275.59 299.42,277.37C299.43,279.14 299.45,280.92 299.46,282.69C299.47,284.47 299.48,286.24 299.5,288.02C299.52,289.8 299.54,291.57 299.56,293.35C299.58,295.12 299.61,296.9 299.63,298.67Q299.65,300.45 299.69,304Z" style="vector-effect: non-scaling-stroke; stroke-width: 2px; stroke: rgb(99, 110, 250); stroke-opacity: 1; fill: rgb(99, 110, 250); fill-opacity: 0.5;"/><path class="violin" d="M429.02,303.75Q429.04,302.54 429.05,301.93C429.06,301.32 429.06,300.72 429.07,300.11C429.08,299.5 429.08,298.9 429.09,298.29C429.1,297.68 429.1,297.08 429.11,296.47C429.12,295.86 429.12,295.26 429.13,294.65C429.13,294.04 429.14,293.44 429.14,292.83C429.14,292.22 429.14,291.62 429.14,291.01C429.14,290.4 429.14,289.79 429.14,289.18C429.14,288.57 429.14,287.97 429.14,287.36C429.14,286.75 429.13,286.15 429.13,285.54C429.13,284.93 429.12,284.33 429.12,283.72C429.12,283.11 429.12,282.51 429.12,281.9C429.12,281.29 429.11,280.69 429.11,280.08C429.11,279.47 429.11,278.87 429.11,278.26C429.11,277.65 429.11,277.05 429.11,276.44C429.11,275.83 429.11,275.22 429.11,274.61C429.11,274 429.11,273.4 429.11,272.79C429.11,272.18 429.11,271.58 429.11,270.97C429.11,270.36 429.12,269.76 429.12,269.15C429.12,268.54 429.12,267.94 429.12,267.33C429.12,266.72 429.13,266.12 429.13,265.51C429.13,264.9 429.14,264.3 429.14,263.69C429.14,263.08 429.14,262.48 429.14,261.87C429.14,261.26 429.15,260.65 429.15,260.04C429.15,259.43 429.15,258.83 429.15,258.22C429.15,257.61 429.14,257.01 429.14,256.4C429.14,255.79 429.14,255.19 429.14,254.58C429.14,253.97 429.14,253.37 429.14,252.76C429.14,252.15 429.14,251.55 429.14,250.94C429.14,250.33 429.14,249.73 429.14,249.12C429.14,248.51 429.15,247.91 429.15,247.3C429.15,246.69 429.16,246.09 429.16,245.48C429.16,244.87 429.17,244.26 429.17,243.65C429.17,243.04 429.18,242.44 429.18,241.83C429.18,241.22 429.19,240.62 429.19,240.01C429.19,239.4 429.19,238.8 429.19,238.19C429.19,237.58 429.19,236.98 429.19,236.37C429.19,235.76 429.19,235.16 429.19,234.55C429.19,233.94 429.18,233.34 429.18,232.73C429.18,232.12 429.17,231.52 429.17,230.91C429.17,230.3 429.17,229.69 429.17,229.08C429.17,228.47 429.17,227.87 429.17,227.26C429.17,226.65 429.18,226.05 429.18,225.44C429.18,224.83 429.18,224.23 429.18,223.62C429.18,223.01 429.19,222.41 429.19,221.8C429.19,221.19 429.19,220.59 429.19,219.98C429.19,219.37 429.18,218.77 429.18,218.16C429.18,217.55 429.17,216.95 429.17,216.34C429.17,215.73 429.16,215.12 429.16,214.51C429.16,213.9 429.15,213.3 429.15,212.69C429.15,212.08 429.14,211.48 429.14,210.87C429.14,210.26 429.14,209.66 429.14,209.05C429.14,208.44 429.15,207.84 429.16,207.23C429.17,206.62 429.17,206.02 429.18,205.41C429.19,204.8 429.19,204.2 429.2,203.59C429.21,202.98 429.22,202.38 429.23,201.77C429.24,201.16 429.25,200.55 429.26,199.94C429.27,199.33 429.27,198.73 429.28,198.12C429.29,197.51 429.3,196.91 429.3,196.3C429.3,195.69 429.3,195.09 429.3,194.48C429.3,193.87 429.3,193.27 429.3,192.66C429.3,192.05 429.29,191.45 429.29,190.84C429.28,190.23 429.28,189.63 429.27,189.02C429.27,188.41 429.26,187.81 429.26,187.2C429.25,186.59 429.25,185.98 429.24,185.37C429.23,184.76 429.23,184.16 429.22,183.55C429.22,182.94 429.21,182.34 429.21,181.73C429.21,181.12 429.2,180.52 429.2,179.91C429.2,179.3 429.2,178.7 429.2,178.09C429.2,177.48 429.21,176.88 429.21,176.27C429.21,175.66 429.21,175.06 429.21,174.45C429.21,173.84 429.22,173.24 429.22,172.63C429.22,172.02 429.23,171.42 429.23,170.81C429.23,170.2 429.24,169.59 429.24,168.98C429.24,168.37 429.25,167.77 429.25,167.16C429.25,166.55 429.25,165.95 429.25,165.34C429.25,164.73 429.26,164.13 429.26,163.52C429.27,162.91 429.27,162.31 429.28,161.7C429.28,161.09 429.29,160.49 429.29,159.88C429.29,159.27 429.3,158.67 429.3,158.06C429.3,157.45 429.31,156.85 429.31,156.24C429.31,155.63 429.32,155.02 429.32,154.41C429.32,153.8 429.32,153.2 429.32,152.59C429.32,151.98 429.33,151.38 429.33,150.77C429.33,150.16 429.34,149.56 429.34,148.95C429.34,148.34 429.34,147.74 429.34,147.13C429.34,146.52 429.34,145.92 429.34,145.31C429.34,144.7 429.34,144.1 429.34,143.49C429.34,142.88 429.33,142.28 429.33,141.67C429.33,141.06 429.32,140.45 429.32,139.84C429.32,139.23 429.32,138.63 429.32,138.02C429.32,137.41 429.31,136.81 429.31,136.2C429.31,135.59 429.32,134.99 429.32,134.38C429.32,133.77 429.32,133.17 429.32,132.56C429.32,131.95 429.33,131.35 429.33,130.74C429.33,130.13 429.34,129.53 429.34,128.92C429.34,128.31 429.34,127.71 429.34,127.1C429.34,126.49 429.34,125.88 429.34,125.27C429.34,124.66 429.34,124.06 429.34,123.45C429.34,122.84 429.34,122.24 429.34,121.63C429.34,121.02 429.34,120.42 429.35,119.81C429.36,119.2 429.37,118.6 429.38,117.99C429.39,117.38 429.39,116.78 429.4,116.17C429.41,115.56 429.41,114.96 429.42,114.35C429.43,113.74 429.43,113.14 429.44,112.53C429.44,111.92 429.45,111.32 429.45,110.71C429.45,110.1 429.45,109.49 429.45,108.88C429.45,108.27 429.45,107.67 429.45,107.06C429.45,106.45 429.46,105.85 429.46,105.24C429.47,104.63 429.47,104.03 429.48,103.42C429.49,102.81 429.49,102.21 429.5,101.6C429.51,100.99 429.52,100.39 429.53,99.78C429.54,99.17 429.55,98.57 429.56,97.96C429.57,97.35 429.58,96.75 429.59,96.14C429.6,95.53 429.61,94.92 429.62,94.31C429.63,93.7 429.63,93.1 429.64,92.49C429.65,91.88 429.66,91.28 429.67,90.67C429.68,90.06 429.69,89.46 429.7,88.85C429.71,88.24 429.72,87.64 429.73,87.03C429.74,86.42 429.75,85.82 429.76,85.21C429.77,84.6 429.77,84 429.78,83.39C429.79,82.78 429.8,82.18 429.8,81.57C429.81,80.96 429.8,80.35 429.81,79.74C429.81,79.13 429.82,78.53 429.83,77.92C429.83,77.31 429.84,76.71 429.84,76.1C429.85,75.49 429.85,74.89 429.86,74.28C429.87,73.67 429.88,73.07 429.89,72.46C429.9,71.85 429.92,71.25 429.93,70.64C429.95,70.03 429.96,69.43 429.98,68.82C430,68.21 430.02,67.61 430.04,67C430.06,66.39 430.07,65.78 430.09,65.17C430.11,64.56 430.13,63.96 430.15,63.35C430.17,62.74 430.18,62.14 430.2,61.53C430.22,60.92 430.23,60.32 430.25,59.71C430.27,59.1 430.29,58.5 430.31,57.89C430.33,57.28 430.35,56.68 430.37,56.07C430.39,55.46 430.42,54.86 430.45,54.25C430.48,53.64 430.51,53.04 430.54,52.43C430.58,51.82 430.62,51.22 430.66,50.61C430.7,50 430.73,49.39 430.78,48.78C430.82,48.17 430.88,47.57 430.93,46.96C430.98,46.35 431.03,45.75 431.08,45.14C431.14,44.53 431.2,43.93 431.26,43.32C431.32,42.71 431.38,42.11 431.45,41.5C431.52,40.89 431.59,40.29 431.67,39.68C431.75,39.07 431.83,38.47 431.93,37.86C432.03,37.25 432.12,36.65 432.25,36.04C432.38,35.43 432.51,34.81 432.69,34.21C432.87,33.6 433.07,32.99 433.32,32.39C433.58,31.78 433.86,31.16 434.21,30.57C434.58,29.95 435,29.34 435.48,28.75C435.98,28.13 436.56,27.52 437.17,26.93C437.81,26.31 438.53,25.71 439.23,25.11C439.95,24.5 440.73,23.91 441.44,23.29C442.12,22.69 442.86,22.11 443.41,21.47C443.91,20.89 444.43,20.28 444.64,19.64C444.83,19.06 444.89,18.4 444.73,17.82Q444.55,17.18 443.52,16L414.33,16Q413.3,17.18 413.12,17.82C412.96,18.4 413.02,19.06 413.21,19.64C413.42,20.28 413.94,20.89 414.44,21.47C414.99,22.11 415.73,22.69 416.41,23.29C417.12,23.91 417.9,24.5 418.62,25.11C419.32,25.71 420.04,26.31 420.68,26.93C421.29,27.52 421.87,28.13 422.37,28.75C422.85,29.34 423.27,29.95 423.64,30.57C423.99,31.16 424.27,31.78 424.53,32.39C424.78,32.99 424.98,33.6 425.16,34.21C425.34,34.81 425.47,35.43 425.6,36.04C425.73,36.65 425.82,37.25 425.92,37.86C426.02,38.47 426.1,39.07 426.18,39.68C426.26,40.29 426.33,40.89 426.4,41.5C426.47,42.11 426.53,42.71 426.59,43.32C426.65,43.93 426.71,44.53 426.77,45.14C426.82,45.75 426.87,46.35 426.92,46.96C426.97,47.57 427.03,48.17 427.07,48.78C427.12,49.39 427.15,50 427.19,50.61C427.23,51.22 427.27,51.82 427.31,52.43C427.34,53.04 427.37,53.64 427.4,54.25C427.43,54.86 427.46,55.46 427.48,56.07C427.5,56.68 427.52,57.28 427.54,57.89C427.56,58.5 427.58,59.1 427.6,59.71C427.62,60.32 427.63,60.92 427.65,61.53C427.67,62.14 427.68,62.74 427.7,63.35C427.72,63.96 427.74,64.56 427.76,65.17C427.78,65.78 427.79,66.39 427.81,67C427.83,67.61 427.85,68.21 427.87,68.82C427.89,69.43 427.9,70.03 427.92,70.64C427.93,71.25 427.95,71.85 427.96,72.46C427.97,73.07 427.98,73.67 427.99,74.28C428,74.89 428,75.49 428.01,76.1C428.01,76.71 428.02,77.31 428.02,77.92C428.03,78.53 428.04,79.13 428.04,79.74C428.05,80.35 428.04,80.96 428.05,81.57C428.05,82.18 428.06,82.78 428.07,83.39C428.08,84 428.08,84.6 428.09,85.21C428.1,85.82 428.11,86.42 428.12,87.03C428.13,87.64 428.14,88.24 428.15,88.85C428.16,89.46 428.17,90.06 428.18,90.67C428.19,91.28 428.2,91.88 428.21,92.49C428.22,93.1 428.22,93.7 428.23,94.31C428.24,94.92 428.25,95.53 428.26,96.14C428.27,96.75 428.28,97.35 428.29,97.96C428.3,98.57 428.31,99.17 428.32,99.78C428.33,100.39 428.34,100.99 428.35,101.6C428.36,102.21 428.36,102.81 428.37,103.42C428.38,104.03 428.38,104.63 428.39,105.24C428.39,105.85 428.4,106.45 428.4,107.06C428.4,107.67 428.4,108.27 428.4,108.88C428.4,109.49 428.4,110.1 428.4,110.71C428.4,111.32 428.41,111.92 428.41,112.53C428.42,113.14 428.42,113.74 428.43,114.35C428.44,114.96 428.44,115.56 428.45,116.17C428.46,116.78 428.46,117.38 428.47,117.99C428.48,118.6 428.49,119.2 428.5,119.81C428.51,120.42 428.51,121.02 428.51,121.63C428.51,122.24 428.51,122.84 428.51,123.45C428.51,124.06 428.51,124.66 428.51,125.27C428.51,125.88 428.51,126.49 428.51,127.1C428.51,127.71 428.51,128.31 428.51,128.92C428.51,129.53 428.52,130.13 428.52,130.74C428.52,131.35 428.53,131.95 428.53,132.56C428.53,133.17 428.53,133.77 428.53,134.38C428.53,134.99 428.54,135.59 428.54,136.2C428.54,136.81 428.53,137.41 428.53,138.02C428.53,138.63 428.53,139.23 428.53,139.84C428.53,140.45 428.52,141.06 428.52,141.67C428.52,142.28 428.51,142.88 428.51,143.49C428.51,144.1 428.51,144.7 428.51,145.31C428.51,145.92 428.51,146.52 428.51,147.13C428.51,147.74 428.51,148.34 428.51,148.95C428.51,149.56 428.52,150.16 428.52,150.77C428.52,151.38 428.53,151.98 428.53,152.59C428.53,153.2 428.53,153.8 428.53,154.41C428.53,155.02 428.54,155.63 428.54,156.24C428.54,156.85 428.55,157.45 428.55,158.06C428.55,158.67 428.56,159.27 428.56,159.88C428.56,160.49 428.57,161.09 428.57,161.7C428.58,162.31 428.58,162.91 428.59,163.52C428.59,164.13 428.6,164.73 428.6,165.34C428.6,165.95 428.6,166.55 428.6,167.16C428.6,167.77 428.61,168.37 428.61,168.98C428.61,169.59 428.62,170.2 428.62,170.81C428.62,171.42 428.63,172.02 428.63,172.63C428.63,173.24 428.64,173.84 428.64,174.45C428.64,175.06 428.64,175.66 428.64,176.27C428.64,176.88 428.65,177.48 428.65,178.09C428.65,178.7 428.65,179.3 428.65,179.91C428.65,180.52 428.64,181.12 428.64,181.73C428.64,182.34 428.63,182.94 428.63,183.55C428.62,184.16 428.62,184.76 428.61,185.37C428.6,185.98 428.6,186.59 428.59,187.2C428.59,187.81 428.58,188.41 428.58,189.02C428.57,189.63 428.57,190.23 428.56,190.84C428.56,191.45 428.55,192.05 428.55,192.66C428.55,193.27 428.55,193.87 428.55,194.48C428.55,195.09 428.55,195.69 428.55,196.3C428.55,196.91 428.56,197.51 428.57,198.12C428.58,198.73 428.58,199.33 428.59,199.94C428.6,200.55 428.61,201.16 428.62,201.77C428.63,202.38 428.64,202.98 428.65,203.59C428.66,204.2 428.66,204.8 428.67,205.41C428.68,206.02 428.68,206.62 428.69,207.23C428.7,207.84 428.71,208.44 428.71,209.05C428.71,209.66 428.71,210.26 428.71,210.87C428.71,211.48 428.7,212.08 428.7,212.69C428.7,213.3 428.69,213.9 428.69,214.51C428.69,215.12 428.68,215.73 428.68,216.34C428.68,216.95 428.67,217.55 428.67,218.16C428.67,218.77 428.66,219.37 428.66,219.98C428.66,220.59 428.66,221.19 428.66,221.8C428.66,222.41 428.67,223.01 428.67,223.62C428.67,224.23 428.67,224.83 428.67,225.44C428.67,226.05 428.68,226.65 428.68,227.26C428.68,227.87 428.68,228.47 428.68,229.08C428.68,229.69 428.68,230.3 428.68,230.91C428.68,231.52 428.67,232.12 428.67,232.73C428.67,233.34 428.66,233.94 428.66,234.55C428.66,235.16 428.66,235.76 428.66,236.37C428.66,236.98 428.66,237.58 428.66,238.19C428.66,238.8 428.66,239.4 428.66,240.01C428.66,240.62 428.67,241.22 428.67,241.83C428.67,242.44 428.68,243.04 428.68,243.65C428.68,244.26 428.69,244.87 428.69,245.48C428.69,246.09 428.7,246.69 428.7,247.3C428.7,247.91 428.71,248.51 428.71,249.12C428.71,249.73 428.71,250.33 428.71,250.94C428.71,251.55 428.71,252.15 428.71,252.76C428.71,253.37 428.71,253.97 428.71,254.58C428.71,255.19 428.71,255.79 428.71,256.4C428.71,257.01 428.7,257.61 428.7,258.22C428.7,258.83 428.7,259.43 428.7,260.04C428.7,260.65 428.71,261.26 428.71,261.87C428.71,262.48 428.71,263.08 428.71,263.69C428.71,264.3 428.72,264.9 428.72,265.51C428.72,266.12 428.73,266.72 428.73,267.33C428.73,267.94 428.73,268.54 428.73,269.15C428.73,269.76 428.74,270.36 428.74,270.97C428.74,271.58 428.74,272.18 428.74,272.79C428.74,273.4 428.74,274 428.74,274.61C428.74,275.22 428.74,275.83 428.74,276.44C428.74,277.05 428.74,277.65 428.74,278.26C428.74,278.87 428.74,279.47 428.74,280.08C428.74,280.69 428.73,281.29 428.73,281.9C428.73,282.51 428.73,283.11 428.73,283.72C428.73,284.33 428.72,284.93 428.72,285.54C428.72,286.15 428.71,286.75 428.71,287.36C428.71,287.97 428.71,288.57 428.71,289.18C428.71,289.79 428.71,290.4 428.71,291.01C428.71,291.62 428.71,292.22 428.71,292.83C428.71,293.44 428.72,294.04 428.72,294.65C428.73,295.26 428.73,295.86 428.74,296.47C428.75,297.08 428.75,297.68 428.76,298.29C428.77,298.9 428.77,299.5 428.78,300.11C428.79,300.72 428.79,301.32 428.8,301.93Q428.81,302.54 428.83,303.75Z" style="vector-effect: non-scaling-stroke; stroke-width: 2px; stroke: rgb(99, 110, 250); stroke-opacity: 1; fill: rgb(99, 110, 250); fill-opacity: 0.5;"/><path class="box" d="M37.97,23.29H45.88M37.97,57.86H45.88V17.71H37.97ZM41.93,57.86V118.03M41.93,17.71V16.01" style="vector-effect: non-scaling-stroke; stroke-width: 2px; stroke: rgb(99, 110, 250); stroke-opacity: 1; fill: rgb(99, 110, 250); fill-opacity: 0.5;"/><path class="box" d="M166.97,69.1H174.88M166.97,179.26H174.88V23.85H166.97ZM170.93,179.26V303.91M170.93,23.85V16" style="vector-effect: non-scaling-stroke; stroke-width: 2px; stroke: rgb(99, 110, 250); stroke-opacity: 1; fill: rgb(99, 110, 250); fill-opacity: 0.5;"/><path class="box" d="M295.97,48.17H303.88M295.97,137.95H303.88V24.05H295.97ZM299.92,137.95V304M299.92,24.05V16.37" style="vector-effect: non-scaling-stroke; stroke-width: 2px; stroke: rgb(99, 110, 250); stroke-opacity: 1; fill: rgb(99, 110, 250); fill-opacity: 0.5;"/><path class="box" d="M424.97,22.85H432.88M424.97,55.5H432.88V17.33H424.97ZM428.93,55.5V112.7M428.93,17.33V16" style="vector-effect: non-scaling-stroke; stroke-width: 2px; stroke: rgb(99, 110, 250); stroke-opacity: 1; fill: rgb(99, 110, 250); fill-opacity: 0.5;"/><path class="mean" d="M37.97,54.91H45.88" style="fill: none; vector-effect: non-scaling-stroke; stroke-width: 2px; stroke-dasharray: 4px, 2px; stroke: rgb(0, 0, 0); stroke-opacity: 1;"/><path class="mean" d="M166.97,104.97H174.88" style="fill: none; vector-effect: non-scaling-stroke; stroke-width: 2px; stroke-dasharray: 4px, 2px; stroke: rgb(0, 0, 0); stroke-opacity: 1;"/><path class="mean" d="M295.97,88.46H303.88" style="fill: none; vector-effect: non-scaling-stroke; stroke-width: 2px; stroke-dasharray: 4px, 2px; stroke: rgb(0, 0, 0); stroke-opacity: 1;"/><path class="mean" d="M424.97,52.5H432.88" style="fill: none; vector-effect: non-scaling-stroke; stroke-width: 2px; stroke-dasharray: 4px, 2px; stroke: rgb(0, 0, 0); stroke-opacity: 1;"/></g><g class="trace violins" style="opacity: 1;"><path class="violin" d="M87.17,299.66Q87.19,298.45 87.2,297.84C87.21,297.23 87.21,296.63 87.22,296.02C87.23,295.41 87.23,294.81 87.24,294.2C87.25,293.59 87.25,292.99 87.26,292.38C87.27,291.78 87.27,291.17 87.28,290.57C87.29,289.96 87.29,289.36 87.3,288.75C87.3,288.14 87.31,287.54 87.31,286.93C87.32,286.32 87.32,285.72 87.33,285.11C87.33,284.5 87.34,283.9 87.34,283.29C87.34,282.69 87.34,282.08 87.34,281.48C87.34,280.87 87.35,280.27 87.35,279.66C87.35,279.05 87.36,278.45 87.36,277.84C87.36,277.23 87.36,276.63 87.36,276.02C87.36,275.41 87.36,274.81 87.36,274.2C87.36,273.59 87.36,272.99 87.36,272.38C87.36,271.78 87.36,271.17 87.36,270.57C87.36,269.96 87.37,269.36 87.37,268.75C87.37,268.14 87.37,267.54 87.37,266.93C87.37,266.32 87.37,265.72 87.37,265.11C87.37,264.5 87.38,263.9 87.38,263.29C87.38,262.68 87.39,262.08 87.39,261.47C87.39,260.87 87.39,260.26 87.39,259.66C87.39,259.05 87.39,258.45 87.39,257.84C87.39,257.23 87.39,256.63 87.39,256.02C87.39,255.41 87.38,254.81 87.38,254.2C87.38,253.59 87.37,252.99 87.37,252.38C87.37,251.77 87.37,251.17 87.37,250.56C87.37,249.96 87.36,249.35 87.36,248.75C87.36,248.14 87.36,247.54 87.36,246.93C87.36,246.32 87.35,245.72 87.35,245.11C87.35,244.5 87.34,243.9 87.34,243.29C87.34,242.68 87.33,242.08 87.33,241.47C87.33,240.86 87.33,240.26 87.32,239.65C87.32,239.05 87.3,238.44 87.3,237.84C87.29,237.23 87.29,236.63 87.29,236.02C87.29,235.41 87.28,234.81 87.28,234.2C87.28,233.59 87.27,232.99 87.27,232.38C87.27,231.77 87.27,231.17 87.27,230.56C87.27,229.96 87.27,229.35 87.27,228.75C87.27,228.14 87.28,227.54 87.28,226.93C87.28,226.32 87.29,225.72 87.29,225.11C87.3,224.5 87.3,223.9 87.31,223.29C87.32,222.68 87.33,222.08 87.34,221.47C87.35,220.86 87.35,220.26 87.36,219.65C87.37,219.05 87.38,218.44 87.38,217.84C87.39,217.23 87.39,216.63 87.39,216.02C87.39,215.41 87.4,214.81 87.4,214.2C87.4,213.59 87.4,212.99 87.4,212.38C87.4,211.77 87.39,211.17 87.39,210.56C87.39,209.95 87.39,209.35 87.38,208.74C87.38,208.14 87.37,207.53 87.36,206.93C87.35,206.32 87.35,205.72 87.34,205.11C87.33,204.5 87.33,203.9 87.32,203.29C87.31,202.68 87.31,202.08 87.3,201.47C87.29,200.86 87.29,200.26 87.28,199.65C87.28,199.04 87.27,198.44 87.27,197.83C87.27,197.23 87.26,196.62 87.26,196.02C87.26,195.41 87.26,194.81 87.26,194.2C87.26,193.59 87.26,192.99 87.26,192.38C87.26,191.77 87.27,191.17 87.27,190.56C87.28,189.95 87.28,189.35 87.29,188.74C87.29,188.14 87.29,187.53 87.3,186.93C87.31,186.32 87.32,185.72 87.33,185.11C87.34,184.5 87.34,183.9 87.35,183.29C87.35,182.68 87.36,182.08 87.36,181.47C87.37,180.86 87.38,180.26 87.38,179.65C87.38,179.04 87.38,178.44 87.38,177.83C87.38,177.23 87.39,176.62 87.39,176.02C87.39,175.41 87.4,174.81 87.4,174.2C87.4,173.59 87.41,172.99 87.41,172.38C87.41,171.77 87.42,171.17 87.42,170.56C87.42,169.95 87.43,169.35 87.43,168.74C87.44,168.13 87.44,167.53 87.45,166.92C87.45,166.32 87.46,165.71 87.46,165.11C87.46,164.5 87.46,163.9 87.46,163.29C87.46,162.68 87.46,162.08 87.46,161.47C87.46,160.86 87.45,160.26 87.45,159.65C87.45,159.04 87.45,158.44 87.45,157.83C87.45,157.22 87.44,156.62 87.44,156.01C87.44,155.41 87.44,154.8 87.44,154.2C87.44,153.59 87.44,152.99 87.44,152.38C87.44,151.77 87.44,151.17 87.44,150.56C87.44,149.95 87.43,149.35 87.43,148.74C87.43,148.13 87.43,147.53 87.43,146.92C87.43,146.31 87.43,145.71 87.43,145.1C87.43,144.5 87.43,143.89 87.43,143.29C87.43,142.68 87.43,142.08 87.43,141.47C87.43,140.86 87.44,140.26 87.44,139.65C87.45,139.04 87.45,138.44 87.46,137.83C87.47,137.22 87.47,136.62 87.48,136.01C87.49,135.41 87.49,134.8 87.5,134.2C87.51,133.59 87.51,132.99 87.52,132.38C87.52,131.77 87.53,131.17 87.53,130.56C87.53,129.95 87.54,129.35 87.54,128.74C87.54,128.13 87.54,127.53 87.54,126.92C87.54,126.31 87.54,125.71 87.54,125.1C87.54,124.5 87.55,123.89 87.55,123.29C87.55,122.68 87.55,122.08 87.55,121.47C87.55,120.86 87.56,120.26 87.57,119.65C87.58,119.04 87.58,118.44 87.59,117.83C87.6,117.22 87.6,116.62 87.61,116.01C87.62,115.4 87.62,114.8 87.63,114.19C87.63,113.59 87.64,112.98 87.64,112.38C87.64,111.77 87.63,111.17 87.63,110.56C87.63,109.95 87.62,109.35 87.62,108.74C87.62,108.13 87.61,107.53 87.61,106.92C87.61,106.31 87.6,105.71 87.6,105.1C87.6,104.49 87.59,103.89 87.59,103.28C87.59,102.68 87.59,102.07 87.6,101.47C87.61,100.86 87.62,100.26 87.63,99.65C87.64,99.04 87.65,98.44 87.66,97.83C87.67,97.22 87.68,96.62 87.69,96.01C87.7,95.4 87.72,94.8 87.74,94.19C87.75,93.59 87.77,92.98 87.78,92.38C87.8,91.77 87.81,91.17 87.83,90.56C87.84,89.95 87.86,89.35 87.87,88.74C87.88,88.13 87.89,87.53 87.9,86.92C87.91,86.31 87.92,85.71 87.93,85.1C87.94,84.49 87.95,83.89 87.96,83.28C87.97,82.68 87.97,82.07 87.97,81.47C87.98,80.86 87.98,80.26 87.99,79.65C87.99,79.04 88,78.44 88,77.83C88,77.22 88.01,76.62 88.01,76.01C88.01,75.4 88.01,74.8 88.01,74.19C88.01,73.58 88.01,72.98 88.01,72.37C88.01,71.77 88.02,71.16 88.02,70.56C88.02,69.95 88.03,69.35 88.03,68.74C88.04,68.13 88.04,67.53 88.05,66.92C88.06,66.31 88.08,65.71 88.1,65.1C88.12,64.49 88.14,63.89 88.17,63.28C88.2,62.67 88.23,62.07 88.26,61.46C88.29,60.86 88.32,60.25 88.35,59.65C88.38,59.04 88.41,58.44 88.44,57.83C88.47,57.22 88.49,56.62 88.52,56.01C88.54,55.4 88.57,54.8 88.59,54.19C88.61,53.58 88.64,52.98 88.66,52.37C88.68,51.76 88.7,51.16 88.72,50.55C88.74,49.95 88.77,49.34 88.8,48.74C88.83,48.13 88.85,47.53 88.88,46.92C88.91,46.31 88.94,45.71 88.98,45.1C89.02,44.49 89.06,43.89 89.11,43.28C89.16,42.67 89.22,42.07 89.29,41.46C89.36,40.86 89.42,40.25 89.51,39.65C89.6,39.04 89.7,38.44 89.82,37.83C89.94,37.22 90.07,36.61 90.23,36.01C90.39,35.4 90.56,34.79 90.77,34.19C90.99,33.58 91.23,32.97 91.52,32.37C91.81,31.76 92.14,31.14 92.52,30.55C92.92,29.93 93.38,29.33 93.88,28.74C94.41,28.12 95,27.51 95.62,26.92C96.27,26.3 96.99,25.7 97.7,25.1C98.41,24.49 99.19,23.9 99.88,23.28C100.54,22.68 101.26,22.1 101.77,21.46C102.23,20.88 102.71,20.27 102.88,19.64C103.03,19.06 103.02,18.4 102.82,17.83Q102.6,17.19 101.47,16.01L72.68,16.01Q71.55,17.19 71.33,17.83C71.13,18.4 71.12,19.06 71.27,19.64C71.44,20.27 71.92,20.88 72.38,21.46C72.89,22.1 73.61,22.68 74.27,23.28C74.96,23.9 75.74,24.49 76.45,25.1C77.16,25.7 77.88,26.3 78.53,26.92C79.15,27.51 79.74,28.12 80.27,28.74C80.77,29.33 81.23,29.93 81.63,30.55C82.01,31.14 82.34,31.76 82.63,32.37C82.92,32.97 83.16,33.58 83.38,34.19C83.59,34.79 83.76,35.4 83.92,36.01C84.08,36.61 84.21,37.22 84.33,37.83C84.45,38.44 84.55,39.04 84.64,39.65C84.73,40.25 84.79,40.86 84.86,41.46C84.93,42.07 84.99,42.67 85.04,43.28C85.09,43.89 85.13,44.49 85.17,45.1C85.21,45.71 85.24,46.31 85.27,46.92C85.3,47.53 85.32,48.13 85.35,48.74C85.38,49.34 85.41,49.95 85.43,50.55C85.45,51.16 85.47,51.76 85.49,52.37C85.51,52.98 85.54,53.58 85.56,54.19C85.58,54.8 85.61,55.4 85.63,56.01C85.66,56.62 85.68,57.22 85.71,57.83C85.74,58.44 85.77,59.04 85.8,59.65C85.83,60.25 85.86,60.86 85.89,61.46C85.92,62.07 85.95,62.67 85.98,63.28C86.01,63.89 86.03,64.49 86.05,65.1C86.07,65.71 86.09,66.31 86.1,66.92C86.11,67.53 86.11,68.13 86.12,68.74C86.12,69.35 86.13,69.95 86.13,70.56C86.13,71.16 86.14,71.77 86.14,72.37C86.14,72.98 86.14,73.58 86.14,74.19C86.14,74.8 86.14,75.4 86.14,76.01C86.14,76.62 86.15,77.22 86.15,77.83C86.15,78.44 86.16,79.04 86.16,79.65C86.17,80.26 86.17,80.86 86.18,81.47C86.18,82.07 86.18,82.68 86.19,83.28C86.2,83.89 86.21,84.49 86.22,85.1C86.23,85.71 86.24,86.31 86.25,86.92C86.26,87.53 86.27,88.13 86.28,88.74C86.29,89.35 86.31,89.95 86.32,90.56C86.34,91.17 86.35,91.77 86.37,92.38C86.38,92.98 86.4,93.59 86.41,94.19C86.43,94.8 86.45,95.4 86.46,96.01C86.47,96.62 86.48,97.22 86.49,97.83C86.5,98.44 86.51,99.04 86.52,99.65C86.53,100.26 86.54,100.86 86.55,101.47C86.56,102.07 86.56,102.68 86.56,103.28C86.56,103.89 86.55,104.49 86.55,105.1C86.55,105.71 86.54,106.31 86.54,106.92C86.54,107.53 86.53,108.13 86.53,108.74C86.53,109.35 86.52,109.95 86.52,110.56C86.52,111.17 86.51,111.77 86.51,112.38C86.51,112.98 86.52,113.59 86.52,114.19C86.53,114.8 86.53,115.4 86.54,116.01C86.55,116.62 86.55,117.22 86.56,117.83C86.57,118.44 86.57,119.04 86.58,119.65C86.59,120.26 86.6,120.86 86.6,121.47C86.6,122.08 86.6,122.68 86.6,123.29C86.6,123.89 86.61,124.5 86.61,125.1C86.61,125.71 86.61,126.31 86.61,126.92C86.61,127.53 86.61,128.13 86.61,128.74C86.61,129.35 86.62,129.95 86.62,130.56C86.62,131.17 86.63,131.77 86.63,132.38C86.64,132.99 86.64,133.59 86.65,134.2C86.66,134.8 86.66,135.41 86.67,136.01C86.68,136.62 86.68,137.22 86.69,137.83C86.7,138.44 86.7,139.04 86.71,139.65C86.71,140.26 86.72,140.86 86.72,141.47C86.72,142.08 86.72,142.68 86.72,143.29C86.72,143.89 86.72,144.5 86.72,145.1C86.72,145.71 86.72,146.31 86.72,146.92C86.72,147.53 86.72,148.13 86.72,148.74C86.72,149.35 86.71,149.95 86.71,150.56C86.71,151.17 86.71,151.77 86.71,152.38C86.71,152.99 86.71,153.59 86.71,154.2C86.71,154.8 86.71,155.41 86.71,156.01C86.71,156.62 86.7,157.22 86.7,157.83C86.7,158.44 86.7,159.04 86.7,159.65C86.7,160.26 86.69,160.86 86.69,161.47C86.69,162.08 86.69,162.68 86.69,163.29C86.69,163.9 86.69,164.5 86.69,165.11C86.69,165.71 86.7,166.32 86.7,166.92C86.71,167.53 86.71,168.13 86.72,168.74C86.72,169.35 86.73,169.95 86.73,170.56C86.73,171.17 86.74,171.77 86.74,172.38C86.74,172.99 86.75,173.59 86.75,174.2C86.75,174.81 86.76,175.41 86.76,176.02C86.76,176.62 86.77,177.23 86.77,177.83C86.77,178.44 86.77,179.04 86.77,179.65C86.77,180.26 86.78,180.86 86.79,181.47C86.79,182.08 86.8,182.68 86.8,183.29C86.81,183.9 86.81,184.5 86.82,185.11C86.83,185.72 86.84,186.32 86.85,186.93C86.86,187.53 86.86,188.14 86.86,188.74C86.87,189.35 86.87,189.95 86.88,190.56C86.88,191.17 86.89,191.77 86.89,192.38C86.89,192.99 86.89,193.59 86.89,194.2C86.89,194.81 86.89,195.41 86.89,196.02C86.89,196.62 86.88,197.23 86.88,197.83C86.88,198.44 86.87,199.04 86.87,199.65C86.86,200.26 86.86,200.86 86.85,201.47C86.84,202.08 86.84,202.68 86.83,203.29C86.82,203.9 86.82,204.5 86.81,205.11C86.8,205.72 86.8,206.32 86.79,206.93C86.78,207.53 86.77,208.14 86.77,208.74C86.76,209.35 86.76,209.95 86.76,210.56C86.76,211.17 86.75,211.77 86.75,212.38C86.75,212.99 86.75,213.59 86.75,214.2C86.75,214.81 86.76,215.41 86.76,216.02C86.76,216.63 86.76,217.23 86.77,217.84C86.77,218.44 86.78,219.05 86.79,219.65C86.8,220.26 86.8,220.86 86.81,221.47C86.82,222.08 86.83,222.68 86.84,223.29C86.85,223.9 86.85,224.5 86.86,225.11C86.86,225.72 86.87,226.32 86.87,226.93C86.87,227.54 86.88,228.14 86.88,228.75C86.88,229.35 86.88,229.96 86.88,230.56C86.88,231.17 86.88,231.77 86.88,232.38C86.88,232.99 86.87,233.59 86.87,234.2C86.87,234.81 86.86,235.41 86.86,236.02C86.86,236.63 86.86,237.23 86.85,237.84C86.85,238.44 86.83,239.05 86.83,239.65C86.82,240.26 86.82,240.86 86.82,241.47C86.82,242.08 86.81,242.68 86.81,243.29C86.81,243.9 86.8,244.5 86.8,245.11C86.8,245.72 86.79,246.32 86.79,246.93C86.79,247.54 86.79,248.14 86.79,248.75C86.79,249.35 86.78,249.96 86.78,250.56C86.78,251.17 86.78,251.77 86.78,252.38C86.78,252.99 86.77,253.59 86.77,254.2C86.77,254.81 86.76,255.41 86.76,256.02C86.76,256.63 86.76,257.23 86.76,257.84C86.76,258.45 86.76,259.05 86.76,259.66C86.76,260.26 86.76,260.87 86.76,261.47C86.76,262.08 86.77,262.68 86.77,263.29C86.77,263.9 86.78,264.5 86.78,265.11C86.78,265.72 86.78,266.32 86.78,266.93C86.78,267.54 86.78,268.14 86.78,268.75C86.78,269.36 86.79,269.96 86.79,270.57C86.79,271.17 86.79,271.78 86.79,272.38C86.79,272.99 86.79,273.59 86.79,274.2C86.79,274.81 86.79,275.41 86.79,276.02C86.79,276.63 86.79,277.23 86.79,277.84C86.79,278.45 86.8,279.05 86.8,279.66C86.8,280.27 86.81,280.87 86.81,281.48C86.81,282.08 86.81,282.69 86.81,283.29C86.81,283.9 86.82,284.5 86.82,285.11C86.83,285.72 86.83,286.32 86.84,286.93C86.84,287.54 86.85,288.14 86.85,288.75C86.86,289.36 86.86,289.96 86.87,290.57C86.88,291.17 86.88,291.78 86.89,292.38C86.9,292.99 86.9,293.59 86.91,294.2C86.92,294.81 86.92,295.41 86.93,296.02C86.94,296.63 86.94,297.23 86.95,297.84Q86.96,298.45 86.98,299.66Z" style="vector-effect: non-scaling-stroke; stroke-width: 2px; stroke: rgb(239, 85, 59); stroke-opacity: 1; fill: rgb(239, 85, 59); fill-opacity: 0.5;"/><path class="violin" d="M216.47,299.74Q216.54,295.88 216.58,293.95C216.61,292.02 216.65,290.09 216.68,288.16C216.71,286.23 216.73,284.3 216.75,282.37C216.77,280.44 216.79,278.51 216.81,276.58C216.83,274.65 216.84,272.71 216.85,270.78C216.86,268.85 216.86,266.92 216.87,264.99C216.87,263.06 216.88,261.13 216.88,259.2C216.88,257.27 216.89,255.34 216.89,253.41C216.89,251.48 216.9,249.55 216.9,247.62C216.9,245.69 216.9,243.76 216.9,241.83C216.9,239.9 216.9,237.97 216.9,236.04C216.9,234.11 216.91,232.18 216.91,230.25C216.91,228.32 216.91,226.39 216.91,224.46C216.91,222.53 216.91,220.6 216.91,218.67C216.91,216.74 216.91,214.81 216.91,212.88C216.91,210.95 216.91,209.02 216.91,207.09C216.91,205.16 216.9,203.23 216.9,201.3C216.9,199.37 216.9,197.44 216.9,195.51C216.9,193.58 216.9,191.65 216.9,189.72C216.9,187.79 216.89,185.86 216.89,183.93C216.89,182 216.89,180.07 216.89,178.14C216.89,176.21 216.89,174.28 216.89,172.35C216.89,170.42 216.89,168.48 216.89,166.55C216.89,164.62 216.9,162.69 216.9,160.76C216.9,158.83 216.91,156.9 216.91,154.97C216.92,153.04 216.92,151.11 216.93,149.18C216.94,147.25 216.95,145.32 216.96,143.39C216.97,141.46 216.98,139.53 216.99,137.6C217,135.67 217.01,133.74 217.02,131.81C217.03,129.88 217.05,127.95 217.06,126.02C217.07,124.09 217.07,122.16 217.08,120.23C217.09,118.3 217.1,116.37 217.11,114.44C217.12,112.51 217.12,110.58 217.13,108.65C217.14,106.72 217.15,104.79 217.16,102.86C217.17,100.93 217.18,99 217.19,97.07C217.2,95.14 217.21,93.21 217.23,91.28C217.25,89.35 217.27,87.42 217.29,85.49C217.31,83.56 217.33,81.63 217.36,79.7C217.39,77.77 217.41,75.84 217.45,73.91C217.49,71.98 217.53,70.05 217.58,68.12C217.63,66.19 217.68,64.25 217.75,62.32C217.82,60.39 217.91,58.46 218,56.53C218.1,54.6 218.2,52.67 218.32,50.74C218.44,48.81 218.58,46.88 218.72,44.95C218.86,43.02 219.02,41.09 219.16,39.16C219.3,37.23 219.44,35.3 219.55,33.37C219.65,31.44 219.75,29.51 219.79,27.58C219.83,25.65 219.84,23.72 219.79,21.79Q219.74,19.86 219.51,16L212.64,16Q212.41,19.86 212.36,21.79C212.31,23.72 212.32,25.65 212.36,27.58C212.4,29.51 212.5,31.44 212.6,33.37C212.71,35.3 212.85,37.23 212.99,39.16C213.13,41.09 213.29,43.02 213.43,44.95C213.57,46.88 213.71,48.81 213.83,50.74C213.95,52.67 214.05,54.6 214.15,56.53C214.24,58.46 214.33,60.39 214.4,62.32C214.47,64.25 214.52,66.19 214.57,68.12C214.62,70.05 214.66,71.98 214.7,73.91C214.74,75.84 214.76,77.77 214.79,79.7C214.82,81.63 214.84,83.56 214.86,85.49C214.88,87.42 214.9,89.35 214.92,91.28C214.94,93.21 214.95,95.14 214.96,97.07C214.97,99 214.98,100.93 214.99,102.86C215,104.79 215.01,106.72 215.02,108.65C215.03,110.58 215.03,112.51 215.04,114.44C215.05,116.37 215.06,118.3 215.07,120.23C215.08,122.16 215.08,124.09 215.09,126.02C215.1,127.95 215.12,129.88 215.13,131.81C215.14,133.74 215.15,135.67 215.16,137.6C215.17,139.53 215.18,141.46 215.19,143.39C215.2,145.32 215.21,147.25 215.22,149.18C215.23,151.11 215.23,153.04 215.24,154.97C215.24,156.9 215.25,158.83 215.25,160.76C215.25,162.69 215.26,164.62 215.26,166.55C215.26,168.48 215.26,170.42 215.26,172.35C215.26,174.28 215.26,176.21 215.26,178.14C215.26,180.07 215.26,182 215.26,183.93C215.26,185.86 215.25,187.79 215.25,189.72C215.25,191.65 215.25,193.58 215.25,195.51C215.25,197.44 215.25,199.37 215.25,201.3C215.25,203.23 215.24,205.16 215.24,207.09C215.24,209.02 215.24,210.95 215.24,212.88C215.24,214.81 215.24,216.74 215.24,218.67C215.24,220.6 215.24,222.53 215.24,224.46C215.24,226.39 215.24,228.32 215.24,230.25C215.24,232.18 215.25,234.11 215.25,236.04C215.25,237.97 215.25,239.9 215.25,241.83C215.25,243.76 215.25,245.69 215.25,247.62C215.25,249.55 215.26,251.48 215.26,253.41C215.26,255.34 215.27,257.27 215.27,259.2C215.27,261.13 215.28,263.06 215.28,264.99C215.29,266.92 215.29,268.85 215.3,270.78C215.31,272.71 215.32,274.65 215.34,276.58C215.36,278.51 215.38,280.44 215.4,282.37C215.42,284.3 215.44,286.23 215.47,288.16C215.5,290.09 215.54,292.02 215.57,293.95Q215.61,295.88 215.68,299.74Z" style="vector-effect: non-scaling-stroke; stroke-width: 2px; stroke: rgb(239, 85, 59); stroke-opacity: 1; fill: rgb(239, 85, 59); fill-opacity: 0.5;"/><path class="violin" d="M345.33,299.45Q345.39,296.02 345.41,294.3C345.43,292.58 345.45,290.87 345.47,289.15C345.49,287.43 345.51,285.72 345.53,284C345.55,282.29 345.57,280.57 345.58,278.86C345.59,277.14 345.6,275.43 345.61,273.71C345.62,271.99 345.62,270.28 345.63,268.56C345.63,266.84 345.64,265.13 345.64,263.41C345.64,261.7 345.64,259.98 345.64,258.27C345.64,256.55 345.64,254.84 345.64,253.12C345.64,251.4 345.64,249.69 345.64,247.97C345.64,246.26 345.64,244.54 345.64,242.83C345.64,241.11 345.64,239.4 345.64,237.68C345.64,235.96 345.65,234.25 345.65,232.53C345.65,230.81 345.65,229.1 345.65,227.38C345.65,225.67 345.65,223.95 345.65,222.24C345.65,220.52 345.66,218.81 345.66,217.09C345.66,215.37 345.67,213.66 345.67,211.94C345.68,210.22 345.68,208.51 345.69,206.79C345.7,205.08 345.7,203.36 345.71,201.65C345.72,199.93 345.72,198.22 345.73,196.5C345.74,194.78 345.74,193.07 345.75,191.35C345.76,189.64 345.77,187.92 345.77,186.21C345.78,184.49 345.78,182.78 345.78,181.06C345.79,179.34 345.79,177.63 345.8,175.91C345.8,174.19 345.8,172.48 345.81,170.76C345.81,169.05 345.82,167.33 345.83,165.62C345.84,163.9 345.85,162.19 345.86,160.47C345.87,158.75 345.87,157.04 345.88,155.32C345.89,153.6 345.9,151.89 345.91,150.17C345.92,148.46 345.92,146.74 345.93,145.03C345.94,143.31 345.94,141.6 345.95,139.88C345.96,138.16 345.96,136.45 345.97,134.73C345.98,133.02 345.99,131.3 346,129.59C346.01,127.87 346.01,126.16 346.02,124.44C346.03,122.72 346.05,121.01 346.06,119.29C346.07,117.57 346.08,115.86 346.1,114.14C346.11,112.43 346.13,110.71 346.15,109C346.17,107.28 346.19,105.57 346.21,103.85C346.23,102.13 346.24,100.42 346.26,98.7C346.28,96.98 346.29,95.27 346.31,93.55C346.33,91.84 346.34,90.12 346.36,88.41C346.38,86.69 346.39,84.98 346.41,83.26C346.43,81.54 346.44,79.83 346.47,78.11C346.5,76.4 346.53,74.68 346.57,72.97C346.61,71.25 346.65,69.54 346.71,67.82C346.77,66.1 346.84,64.39 346.92,62.67C347,60.95 347.09,59.24 347.21,57.52C347.32,55.81 347.46,54.09 347.61,52.38C347.76,50.66 347.93,48.95 348.11,47.23C348.29,45.51 348.48,43.8 348.67,42.08C348.85,40.36 349.06,38.65 349.22,36.93C349.38,35.22 349.53,33.51 349.62,31.79C349.71,30.08 349.77,28.36 349.77,26.64C349.77,24.92 349.71,23.2 349.59,21.49Q349.47,19.77 349.07,16.34L341.08,16.34Q340.68,19.77 340.56,21.49C340.44,23.2 340.38,24.92 340.38,26.64C340.38,28.36 340.44,30.08 340.53,31.79C340.62,33.51 340.77,35.22 340.93,36.93C341.09,38.65 341.3,40.36 341.48,42.08C341.67,43.8 341.86,45.51 342.04,47.23C342.22,48.95 342.39,50.66 342.54,52.38C342.69,54.09 342.83,55.81 342.94,57.52C343.06,59.24 343.15,60.95 343.23,62.67C343.31,64.39 343.38,66.1 343.44,67.82C343.5,69.54 343.54,71.25 343.58,72.97C343.62,74.68 343.65,76.4 343.68,78.11C343.71,79.83 343.72,81.54 343.74,83.26C343.76,84.98 343.77,86.69 343.79,88.41C343.81,90.12 343.82,91.84 343.84,93.55C343.86,95.27 343.87,96.98 343.89,98.7C343.91,100.42 343.92,102.13 343.94,103.85C343.96,105.57 343.98,107.28 344,109C344.02,110.71 344.04,112.43 344.05,114.14C344.07,115.86 344.08,117.57 344.09,119.29C344.1,121.01 344.12,122.72 344.13,124.44C344.14,126.16 344.14,127.87 344.15,129.59C344.16,131.3 344.17,133.02 344.18,134.73C344.19,136.45 344.19,138.16 344.2,139.88C344.21,141.6 344.21,143.31 344.22,145.03C344.23,146.74 344.23,148.46 344.24,150.17C344.25,151.89 344.26,153.6 344.27,155.32C344.28,157.04 344.28,158.75 344.29,160.47C344.3,162.19 344.31,163.9 344.32,165.62C344.33,167.33 344.34,169.05 344.34,170.76C344.35,172.48 344.35,174.19 344.35,175.91C344.36,177.63 344.36,179.34 344.37,181.06C344.37,182.78 344.37,184.49 344.38,186.21C344.38,187.92 344.39,189.64 344.4,191.35C344.41,193.07 344.41,194.78 344.42,196.5C344.43,198.22 344.43,199.93 344.44,201.65C344.45,203.36 344.45,205.08 344.46,206.79C344.47,208.51 344.47,210.22 344.48,211.94C344.48,213.66 344.49,215.37 344.49,217.09C344.49,218.81 344.5,220.52 344.5,222.24C344.5,223.95 344.5,225.67 344.5,227.38C344.5,229.1 344.5,230.81 344.5,232.53C344.5,234.25 344.51,235.96 344.51,237.68C344.51,239.4 344.51,241.11 344.51,242.83C344.51,244.54 344.51,246.26 344.51,247.97C344.51,249.69 344.51,251.4 344.51,253.12C344.51,254.84 344.51,256.55 344.51,258.27C344.51,259.98 344.51,261.7 344.51,263.41C344.51,265.13 344.52,266.84 344.52,268.56C344.53,270.28 344.53,271.99 344.54,273.71C344.55,275.43 344.56,277.14 344.57,278.86C344.58,280.57 344.6,282.29 344.62,284C344.64,285.72 344.66,287.43 344.68,289.15C344.7,290.87 344.72,292.58 344.74,294.3Q344.76,296.02 344.82,299.45Z" style="vector-effect: non-scaling-stroke; stroke-width: 2px; stroke: rgb(239, 85, 59); stroke-opacity: 1; fill: rgb(239, 85, 59); fill-opacity: 0.5;"/><path class="violin" d="M474.19,298.49Q474.2,297.29 474.21,296.69C474.22,296.09 474.22,295.49 474.23,294.89C474.23,294.29 474.24,293.69 474.24,293.09C474.24,292.49 474.25,291.89 474.25,291.29C474.25,290.69 474.25,290.09 474.25,289.49C474.25,288.89 474.25,288.29 474.25,287.69C474.25,287.09 474.25,286.49 474.25,285.89C474.25,285.29 474.25,284.69 474.25,284.09C474.25,283.49 474.26,282.89 474.26,282.29C474.26,281.69 474.27,281.09 474.27,280.49C474.27,279.89 474.28,279.29 474.28,278.69C474.28,278.09 474.29,277.49 474.29,276.89C474.29,276.29 474.3,275.7 474.3,275.1C474.3,274.5 474.31,273.9 474.31,273.3C474.31,272.7 474.31,272.1 474.31,271.5C474.31,270.9 474.31,270.3 474.31,269.7C474.31,269.1 474.32,268.5 474.32,267.9C474.32,267.3 474.32,266.7 474.32,266.1C474.32,265.5 474.33,264.9 474.33,264.3C474.33,263.7 474.34,263.1 474.34,262.5C474.34,261.9 474.34,261.3 474.34,260.7C474.34,260.1 474.35,259.5 474.35,258.9C474.35,258.3 474.35,257.7 474.35,257.1C474.35,256.5 474.35,255.9 474.35,255.3C474.35,254.7 474.35,254.1 474.35,253.5C474.35,252.9 474.34,252.31 474.34,251.71C474.33,251.11 474.32,250.51 474.32,249.91C474.32,249.31 474.32,248.71 474.32,248.11C474.32,247.51 474.31,246.91 474.31,246.31C474.31,245.71 474.31,245.11 474.31,244.51C474.31,243.91 474.31,243.31 474.31,242.71C474.31,242.11 474.31,241.51 474.31,240.91C474.31,240.31 474.32,239.71 474.32,239.11C474.32,238.51 474.32,237.91 474.32,237.31C474.32,236.71 474.32,236.11 474.32,235.51C474.32,234.91 474.33,234.31 474.33,233.71C474.33,233.11 474.33,232.51 474.33,231.91C474.33,231.31 474.33,230.71 474.33,230.11C474.33,229.51 474.33,228.91 474.33,228.31C474.33,227.71 474.33,227.12 474.33,226.52C474.33,225.92 474.32,225.32 474.32,224.72C474.32,224.12 474.31,223.52 474.31,222.92C474.31,222.32 474.3,221.72 474.3,221.12C474.3,220.52 474.29,219.92 474.29,219.32C474.29,218.72 474.28,218.12 474.28,217.52C474.28,216.92 474.28,216.32 474.28,215.72C474.28,215.12 474.28,214.52 474.28,213.92C474.28,213.32 474.28,212.72 474.28,212.12C474.28,211.52 474.28,210.92 474.28,210.32C474.28,209.72 474.29,209.12 474.29,208.52C474.29,207.92 474.29,207.32 474.29,206.72C474.29,206.12 474.3,205.52 474.3,204.92C474.31,204.32 474.31,203.72 474.32,203.12C474.32,202.52 474.33,201.93 474.33,201.33C474.34,200.73 474.34,200.13 474.35,199.53C474.35,198.93 474.36,198.33 474.36,197.73C474.36,197.13 474.37,196.53 474.37,195.93C474.37,195.33 474.38,194.73 474.38,194.13C474.38,193.53 474.37,192.93 474.37,192.33C474.37,191.73 474.37,191.13 474.37,190.53C474.37,189.93 474.36,189.33 474.36,188.73C474.36,188.13 474.36,187.53 474.36,186.93C474.36,186.33 474.37,185.73 474.37,185.13C474.37,184.53 474.38,183.93 474.38,183.33C474.39,182.73 474.39,182.13 474.4,181.53C474.4,180.93 474.41,180.33 474.41,179.73C474.41,179.13 474.42,178.54 474.42,177.94C474.42,177.34 474.42,176.74 474.42,176.14C474.42,175.54 474.42,174.94 474.42,174.34C474.42,173.74 474.43,173.14 474.43,172.54C474.43,171.94 474.43,171.34 474.43,170.74C474.43,170.14 474.43,169.54 474.43,168.94C474.43,168.34 474.44,167.74 474.44,167.14C474.44,166.54 474.45,165.94 474.45,165.34C474.45,164.74 474.45,164.14 474.45,163.54C474.45,162.94 474.46,162.34 474.46,161.74C474.46,161.14 474.46,160.54 474.46,159.94C474.46,159.34 474.47,158.74 474.47,158.14C474.47,157.54 474.47,156.94 474.47,156.34C474.47,155.74 474.48,155.14 474.48,154.54C474.48,153.94 474.47,153.35 474.47,152.75C474.47,152.15 474.46,151.55 474.46,150.95C474.46,150.35 474.45,149.75 474.45,149.15C474.45,148.55 474.44,147.95 474.44,147.35C474.44,146.75 474.44,146.15 474.44,145.55C474.44,144.95 474.44,144.35 474.44,143.75C474.44,143.15 474.45,142.55 474.45,141.95C474.45,141.35 474.46,140.75 474.46,140.15C474.46,139.55 474.47,138.95 474.47,138.35C474.48,137.75 474.48,137.15 474.49,136.55C474.49,135.95 474.5,135.35 474.5,134.75C474.5,134.15 474.5,133.55 474.5,132.95C474.5,132.35 474.51,131.75 474.51,131.15C474.51,130.55 474.51,129.96 474.51,129.36C474.51,128.76 474.52,128.16 474.53,127.56C474.53,126.96 474.54,126.36 474.54,125.76C474.55,125.16 474.55,124.56 474.56,123.96C474.57,123.36 474.57,122.76 474.58,122.16C474.59,121.56 474.6,120.96 474.6,120.36C474.6,119.76 474.6,119.16 474.6,118.56C474.6,117.96 474.6,117.36 474.6,116.76C474.6,116.16 474.59,115.56 474.59,114.96C474.58,114.36 474.58,113.76 474.57,113.16C474.57,112.56 474.56,111.96 474.56,111.36C474.56,110.76 474.55,110.16 474.55,109.56C474.55,108.96 474.55,108.36 474.55,107.76C474.55,107.16 474.56,106.56 474.57,105.96C474.58,105.36 474.58,104.77 474.59,104.17C474.6,103.57 474.61,102.97 474.62,102.37C474.63,101.77 474.64,101.17 474.65,100.57C474.66,99.97 474.67,99.37 474.68,98.77C474.69,98.17 474.7,97.57 474.71,96.97C474.72,96.37 474.74,95.77 474.75,95.17C474.76,94.57 474.78,93.97 474.79,93.37C474.8,92.77 474.82,92.17 474.83,91.57C474.84,90.97 474.86,90.37 474.87,89.77C474.88,89.17 474.89,88.57 474.9,87.97C474.91,87.37 474.91,86.77 474.91,86.17C474.91,85.57 474.92,84.97 474.92,84.37C474.92,83.77 474.93,83.17 474.93,82.57C474.93,81.97 474.93,81.37 474.93,80.77C474.93,80.17 474.94,79.58 474.95,78.98C474.96,78.38 474.96,77.78 474.97,77.18C474.98,76.58 474.99,75.98 475,75.38C475.01,74.78 475.03,74.18 475.04,73.58C475.05,72.98 475.07,72.38 475.08,71.78C475.1,71.18 475.11,70.58 475.13,69.98C475.14,69.38 475.16,68.78 475.17,68.18C475.18,67.58 475.19,66.98 475.2,66.38C475.21,65.78 475.22,65.18 475.23,64.58C475.24,63.98 475.24,63.38 475.25,62.78C475.26,62.18 475.27,61.58 475.28,60.98C475.29,60.38 475.29,59.78 475.3,59.18C475.31,58.58 475.32,57.98 475.34,57.38C475.35,56.78 475.37,56.19 475.39,55.59C475.41,54.99 475.43,54.39 475.46,53.79C475.49,53.19 475.53,52.59 475.56,51.99C475.6,51.39 475.63,50.79 475.67,50.19C475.71,49.59 475.76,48.99 475.8,48.39C475.85,47.79 475.89,47.19 475.94,46.59C475.99,45.99 476.04,45.39 476.09,44.79C476.15,44.19 476.21,43.59 476.27,42.99C476.33,42.39 476.4,41.79 476.47,41.19C476.55,40.59 476.63,39.99 476.72,39.39C476.81,38.79 476.91,38.19 477.03,37.59C477.15,36.99 477.28,36.39 477.43,35.79C477.58,35.19 477.75,34.59 477.95,33.99C478.16,33.39 478.38,32.78 478.66,32.19C478.94,31.58 479.26,30.99 479.63,30.4C480.01,29.79 480.45,29.18 480.93,28.6C481.44,27.98 482.02,27.39 482.62,26.8C483.25,26.19 483.95,25.6 484.64,25C485.34,24.39 486.1,23.81 486.78,23.2C487.44,22.61 488.14,22.03 488.66,21.4C489.13,20.83 489.62,20.23 489.8,19.6C489.97,19.02 489.99,18.37 489.81,17.8Q489.61,17.17 488.56,16L459.59,16Q458.54,17.17 458.34,17.8C458.16,18.37 458.18,19.02 458.35,19.6C458.53,20.23 459.02,20.83 459.49,21.4C460.01,22.03 460.71,22.61 461.37,23.2C462.05,23.81 462.81,24.39 463.51,25C464.2,25.6 464.9,26.19 465.53,26.8C466.13,27.39 466.71,27.98 467.22,28.6C467.7,29.18 468.14,29.79 468.52,30.4C468.89,30.99 469.21,31.58 469.49,32.19C469.77,32.78 469.99,33.39 470.2,33.99C470.4,34.59 470.57,35.19 470.72,35.79C470.87,36.39 471,36.99 471.12,37.59C471.24,38.19 471.34,38.79 471.43,39.39C471.52,39.99 471.6,40.59 471.68,41.19C471.75,41.79 471.82,42.39 471.88,42.99C471.94,43.59 472,44.19 472.06,44.79C472.11,45.39 472.16,45.99 472.21,46.59C472.26,47.19 472.3,47.79 472.35,48.39C472.39,48.99 472.44,49.59 472.48,50.19C472.52,50.79 472.55,51.39 472.59,51.99C472.62,52.59 472.66,53.19 472.69,53.79C472.72,54.39 472.74,54.99 472.76,55.59C472.78,56.19 472.8,56.78 472.81,57.38C472.83,57.98 472.84,58.58 472.85,59.18C472.86,59.78 472.86,60.38 472.87,60.98C472.88,61.58 472.89,62.18 472.9,62.78C472.91,63.38 472.91,63.98 472.92,64.58C472.93,65.18 472.94,65.78 472.95,66.38C472.96,66.98 472.97,67.58 472.98,68.18C472.99,68.78 473.01,69.38 473.02,69.98C473.04,70.58 473.05,71.18 473.07,71.78C473.08,72.38 473.1,72.98 473.11,73.58C473.12,74.18 473.14,74.78 473.15,75.38C473.16,75.98 473.17,76.58 473.18,77.18C473.19,77.78 473.19,78.38 473.2,78.98C473.21,79.58 473.22,80.17 473.22,80.77C473.22,81.37 473.22,81.97 473.22,82.57C473.22,83.17 473.23,83.77 473.23,84.37C473.23,84.97 473.24,85.57 473.24,86.17C473.24,86.77 473.24,87.37 473.25,87.97C473.26,88.57 473.27,89.17 473.28,89.77C473.29,90.37 473.31,90.97 473.32,91.57C473.33,92.17 473.35,92.77 473.36,93.37C473.37,93.97 473.39,94.57 473.4,95.17C473.41,95.77 473.43,96.37 473.44,96.97C473.45,97.57 473.46,98.17 473.47,98.77C473.48,99.37 473.49,99.97 473.5,100.57C473.51,101.17 473.52,101.77 473.53,102.37C473.54,102.97 473.55,103.57 473.56,104.17C473.57,104.77 473.57,105.36 473.58,105.96C473.59,106.56 473.6,107.16 473.6,107.76C473.6,108.36 473.6,108.96 473.6,109.56C473.6,110.16 473.59,110.76 473.59,111.36C473.59,111.96 473.58,112.56 473.58,113.16C473.57,113.76 473.57,114.36 473.56,114.96C473.56,115.56 473.55,116.16 473.55,116.76C473.55,117.36 473.55,117.96 473.55,118.56C473.55,119.16 473.55,119.76 473.55,120.36C473.55,120.96 473.56,121.56 473.57,122.16C473.58,122.76 473.58,123.36 473.59,123.96C473.6,124.56 473.6,125.16 473.61,125.76C473.61,126.36 473.62,126.96 473.62,127.56C473.63,128.16 473.64,128.76 473.64,129.36C473.64,129.96 473.64,130.55 473.64,131.15C473.64,131.75 473.65,132.35 473.65,132.95C473.65,133.55 473.65,134.15 473.65,134.75C473.65,135.35 473.66,135.95 473.66,136.55C473.67,137.15 473.67,137.75 473.68,138.35C473.68,138.95 473.69,139.55 473.69,140.15C473.69,140.75 473.7,141.35 473.7,141.95C473.7,142.55 473.71,143.15 473.71,143.75C473.71,144.35 473.71,144.95 473.71,145.55C473.71,146.15 473.71,146.75 473.71,147.35C473.71,147.95 473.7,148.55 473.7,149.15C473.7,149.75 473.69,150.35 473.69,150.95C473.69,151.55 473.68,152.15 473.68,152.75C473.68,153.35 473.67,153.94 473.67,154.54C473.67,155.14 473.68,155.74 473.68,156.34C473.68,156.94 473.68,157.54 473.68,158.14C473.68,158.74 473.69,159.34 473.69,159.94C473.69,160.54 473.69,161.14 473.69,161.74C473.69,162.34 473.7,162.94 473.7,163.54C473.7,164.14 473.7,164.74 473.7,165.34C473.7,165.94 473.71,166.54 473.71,167.14C473.71,167.74 473.72,168.34 473.72,168.94C473.72,169.54 473.72,170.14 473.72,170.74C473.72,171.34 473.72,171.94 473.72,172.54C473.72,173.14 473.73,173.74 473.73,174.34C473.73,174.94 473.73,175.54 473.73,176.14C473.73,176.74 473.73,177.34 473.73,177.94C473.73,178.54 473.74,179.13 473.74,179.73C473.74,180.33 473.75,180.93 473.75,181.53C473.76,182.13 473.76,182.73 473.77,183.33C473.77,183.93 473.78,184.53 473.78,185.13C473.78,185.73 473.79,186.33 473.79,186.93C473.79,187.53 473.79,188.13 473.79,188.73C473.79,189.33 473.78,189.93 473.78,190.53C473.78,191.13 473.78,191.73 473.78,192.33C473.78,192.93 473.77,193.53 473.77,194.13C473.77,194.73 473.78,195.33 473.78,195.93C473.78,196.53 473.79,197.13 473.79,197.73C473.79,198.33 473.8,198.93 473.8,199.53C473.81,200.13 473.81,200.73 473.82,201.33C473.82,201.93 473.83,202.52 473.83,203.12C473.84,203.72 473.84,204.32 473.85,204.92C473.85,205.52 473.86,206.12 473.86,206.72C473.86,207.32 473.86,207.92 473.86,208.52C473.86,209.12 473.87,209.72 473.87,210.32C473.87,210.92 473.87,211.52 473.87,212.12C473.87,212.72 473.87,213.32 473.87,213.92C473.87,214.52 473.87,215.12 473.87,215.72C473.87,216.32 473.87,216.92 473.87,217.52C473.87,218.12 473.86,218.72 473.86,219.32C473.86,219.92 473.85,220.52 473.85,221.12C473.85,221.72 473.84,222.32 473.84,222.92C473.84,223.52 473.83,224.12 473.83,224.72C473.83,225.32 473.82,225.92 473.82,226.52C473.82,227.12 473.82,227.71 473.82,228.31C473.82,228.91 473.82,229.51 473.82,230.11C473.82,230.71 473.82,231.31 473.82,231.91C473.82,232.51 473.82,233.11 473.82,233.71C473.82,234.31 473.83,234.91 473.83,235.51C473.83,236.11 473.83,236.71 473.83,237.31C473.83,237.91 473.83,238.51 473.83,239.11C473.83,239.71 473.84,240.31 473.84,240.91C473.84,241.51 473.84,242.11 473.84,242.71C473.84,243.31 473.84,243.91 473.84,244.51C473.84,245.11 473.84,245.71 473.84,246.31C473.84,246.91 473.83,247.51 473.83,248.11C473.83,248.71 473.83,249.31 473.83,249.91C473.83,250.51 473.82,251.11 473.81,251.71C473.81,252.31 473.8,252.9 473.8,253.5C473.8,254.1 473.8,254.7 473.8,255.3C473.8,255.9 473.8,256.5 473.8,257.1C473.8,257.7 473.8,258.3 473.8,258.9C473.8,259.5 473.81,260.1 473.81,260.7C473.81,261.3 473.81,261.9 473.81,262.5C473.81,263.1 473.82,263.7 473.82,264.3C473.82,264.9 473.83,265.5 473.83,266.1C473.83,266.7 473.83,267.3 473.83,267.9C473.83,268.5 473.84,269.1 473.84,269.7C473.84,270.3 473.84,270.9 473.84,271.5C473.84,272.1 473.84,272.7 473.84,273.3C473.84,273.9 473.85,274.5 473.85,275.1C473.85,275.7 473.86,276.29 473.86,276.89C473.86,277.49 473.87,278.09 473.87,278.69C473.87,279.29 473.88,279.89 473.88,280.49C473.88,281.09 473.89,281.69 473.89,282.29C473.89,282.89 473.9,283.49 473.9,284.09C473.9,284.69 473.9,285.29 473.9,285.89C473.9,286.49 473.9,287.09 473.9,287.69C473.9,288.29 473.9,288.89 473.9,289.49C473.9,290.09 473.9,290.69 473.9,291.29C473.9,291.89 473.91,292.49 473.91,293.09C473.91,293.69 473.92,294.29 473.92,294.89C473.93,295.49 473.93,296.09 473.94,296.69Q473.95,297.29 473.96,298.49Z" style="vector-effect: non-scaling-stroke; stroke-width: 2px; stroke: rgb(239, 85, 59); stroke-opacity: 1; fill: rgb(239, 85, 59); fill-opacity: 0.5;"/><path class="box" d="M83.12,22.75H91.03M83.12,56.08H91.03V17.58H83.12ZM87.08,56.08V113.66M87.08,17.58V16.01" style="vector-effect: non-scaling-stroke; stroke-width: 2px; stroke: rgb(239, 85, 59); stroke-opacity: 1; fill: rgb(239, 85, 59); fill-opacity: 0.5;"/><path class="box" d="M212.12,68.11H220.03M212.12,172.15H220.03V23.02H212.12ZM216.08,172.15V299.74M216.08,23.02V16" style="vector-effect: non-scaling-stroke; stroke-width: 2px; stroke: rgb(239, 85, 59); stroke-opacity: 1; fill: rgb(239, 85, 59); fill-opacity: 0.5;"/><path class="box" d="M341.12,51.09H349.03M341.12,136.16H349.03V24.19H341.12ZM345.08,136.16V299.45M345.08,24.19V16.34" style="vector-effect: non-scaling-stroke; stroke-width: 2px; stroke: rgb(239, 85, 59); stroke-opacity: 1; fill: rgb(239, 85, 59); fill-opacity: 0.5;"/><path class="box" d="M470.12,22.81H478.03M470.12,55.07H478.03V17.37H470.12ZM474.08,55.07V111.35M474.08,17.37V16" style="vector-effect: non-scaling-stroke; stroke-width: 2px; stroke: rgb(239, 85, 59); stroke-opacity: 1; fill: rgb(239, 85, 59); fill-opacity: 0.5;"/><path class="mean" d="M83.12,53.47H91.03" style="fill: none; vector-effect: non-scaling-stroke; stroke-width: 2px; stroke-dasharray: 4px, 2px; stroke: rgb(0, 0, 0); stroke-opacity: 1;"/><path class="mean" d="M212.12,102.51H220.03" style="fill: none; vector-effect: non-scaling-stroke; stroke-width: 2px; stroke-dasharray: 4px, 2px; stroke: rgb(0, 0, 0); stroke-opacity: 1;"/><path class="mean" d="M341.12,88.58H349.03" style="fill: none; vector-effect: non-scaling-stroke; stroke-width: 2px; stroke-dasharray: 4px, 2px; stroke: rgb(0, 0, 0); stroke-opacity: 1;"/><path class="mean" d="M470.12,52.33H478.03" style="fill: none; vector-effect: non-scaling-stroke; stroke-width: 2px; stroke-dasharray: 4px, 2px; stroke: rgb(0, 0, 0); stroke-opacity: 1;"/></g></g></g><g class="overplot"/><path class="xlines-above crisp" d="M0,0" style="fill: none;"/><path class="ylines-above crisp" d="M0,0" style="fill: none;"/><g class="overlines-above"/><g class="xaxislayer-above"><g class="xtick"><text text-anchor="middle" x="0" y="433" transform="translate(144.5,0)" style="font-family: 'Open Sans', verdana, arial, sans-serif; font-size: 12px; fill: rgb(42, 63, 95); fill-opacity: 1; white-space: pre; opacity: 1;">CIFAR10</text></g><g class="xtick"><text text-anchor="middle" x="0" y="433" transform="translate(273.5,0)" style="font-family: 'Open Sans', verdana, arial, sans-serif; font-size: 12px; fill: rgb(42, 63, 95); fill-opacity: 1; white-space: pre; opacity: 1;">CIFAR100</text></g><g class="xtick"><text text-anchor="middle" x="0" y="433" transform="translate(402.5,0)" style="font-family: 'Open Sans', verdana, arial, sans-serif; font-size: 12px; fill: rgb(42, 63, 95); fill-opacity: 1; white-space: pre; opacity: 1;">EMNIST</text></g><g class="xtick"><text text-anchor="middle" x="0" y="433" transform="translate(531.5,0)" style="font-family: 'Open Sans', verdana, arial, sans-serif; font-size: 12px; fill: rgb(42, 63, 95); fill-opacity: 1; white-space: pre; opacity: 1;">FashionMNIST</text></g></g><g class="yaxislayer-above"><g class="ytick"><text text-anchor="end" x="79" y="4.199999999999999" transform="translate(0,361.26)" style="font-family: 'Open Sans', verdana, arial, sans-serif; font-size: 12px; fill: rgb(42, 63, 95); fill-opacity: 1; white-space: pre; opacity: 1;">0.92</text></g><g class="ytick"><text text-anchor="end" x="79" y="4.199999999999999" style="font-family: 'Open Sans', verdana, arial, sans-serif; font-size: 12px; fill: rgb(42, 63, 95); fill-opacity: 1; white-space: pre; opacity: 1;" transform="translate(0,299.95)">0.94</text></g><g class="ytick"><text text-anchor="end" x="79" y="4.199999999999999" style="font-family: 'Open Sans', verdana, arial, sans-serif; font-size: 12px; fill: rgb(42, 63, 95); fill-opacity: 1; white-space: pre; opacity: 1;" transform="translate(0,238.63)">0.96</text></g><g class="ytick"><text text-anchor="end" x="79" y="4.199999999999999" style="font-family: 'Open Sans', verdana, arial, sans-serif; font-size: 12px; fill: rgb(42, 63, 95); fill-opacity: 1; white-space: pre; opacity: 1;" transform="translate(0,177.32)">0.98</text></g><g class="ytick"><text text-anchor="end" x="79" y="4.199999999999999" style="font-family: 'Open Sans', verdana, arial, sans-serif; font-size: 12px; fill: rgb(42, 63, 95); fill-opacity: 1; white-space: pre; opacity: 1;" transform="translate(0,116)">1</text></g></g><g class="overaxes-above"/></g></g><g class="polarlayer"/><g class="smithlayer"/><g class="ternarylayer"/><g class="geolayer"/><g class="funnelarealayer"/><g class="pielayer"/><g class="iciclelayer"/><g class="treemaplayer"/><g class="sunburstlayer"/><g class="glimages"/><defs id="topdefs-e2d094"><g class="clips"/><clipPath id="legende2d094"><rect width="82" height="67" x="0" y="0"/></clipPath></defs><g class="layer-above"><g class="imagelayer"/><g class="shapelayer"/></g><g class="infolayer"><g class="legend" pointer-events="all" transform="translate(606.32,100)"><rect class="bg" shape-rendering="crispEdges" width="82" height="67" x="0" y="0" style="stroke: rgb(68, 68, 68); stroke-opacity: 1; fill: rgb(255, 255, 255); fill-opacity: 1; stroke-width: 0px;"/><g class="scrollbox" transform="" clip-path="url(#legende2d094)"><text class="legendtitletext" text-anchor="start" x="2" y="18.2" style="font-family: 'Open Sans', verdana, arial, sans-serif; font-size: 14px; fill: rgb(42, 63, 95); fill-opacity: 1; white-space: pre;">SHAP mode</text><g class="groups"><g class="traces" transform="translate(0,32.7)" style="opacity: 1;"><text class="legendtext" text-anchor="start" x="40" y="4.680000000000001" style="font-family: 'Open Sans', verdana, arial, sans-serif; font-size: 12px; fill: rgb(42, 63, 95); fill-opacity: 1; white-space: pre;">Global</text><g class="layers" style="opacity: 1;"><g class="legendfill"/><g class="legendlines"/><g class="legendsymbols"><g class="legendpoints"><path class="legendbox" d="M6,6H-6V-6H6Z" transform="translate(20,0)" style="stroke-width: 2px; fill: rgb(99, 110, 250); fill-opacity: 0.5; stroke: rgb(99, 110, 250); stroke-opacity: 1;"/></g></g></g><rect class="legendtoggle" x="0" y="-9.5" width="74.6875" height="19" style="fill: rgb(0, 0, 0); fill-opacity: 0;"/></g><g class="traces" transform="translate(0,51.7)" style="opacity: 1;"><text class="legendtext" text-anchor="start" x="40" y="4.680000000000001" style="font-family: 'Open Sans', verdana, arial, sans-serif; font-size: 12px; fill: rgb(42, 63, 95); fill-opacity: 1; white-space: pre;">Local</text><g class="layers" style="opacity: 1;"><g class="legendfill"/><g class="legendlines"/><g class="legendsymbols"><g class="legendpoints"><path class="legendbox" d="M6,6H-6V-6H6Z" transform="translate(20,0)" style="stroke-width: 2px; fill: rgb(239, 85, 59); fill-opacity: 0.5; stroke: rgb(239, 85, 59); stroke-opacity: 1;"/></g></g></g><rect class="legendtoggle" x="0" y="-9.5" width="74.6875" height="19" style="fill: rgb(0, 0, 0); fill-opacity: 0;"/></g></g></g><rect class="scrollbar" rx="20" ry="3" width="0" height="0" x="0" y="0" style="fill: rgb(128, 139, 164); fill-opacity: 1;"/></g><g class="g-gtitle"/><g class="g-xtitle"/><g class="g-ytitle"/></g></svg>