<svg class="main-svg" xmlns="http://www.w3.org/2000/svg" xmlns:xlink="http://www.w3.org/1999/xlink" width="700" height="500" style="" viewBox="0 0 700 500"><rect x="0" y="0" width="700" height="500" style="fill: rgb(255, 255, 255); fill-opacity: 1;"/><defs id="defs-2d92a5"><g class="clips"><clipPath id="clip2d92a5xyplot" class="plotclip"><rect width="516" height="320"/></clipPath><clipPath class="axesclip" id="clip2d92a5x"><rect x="80" y="0" width="516" height="500"/></clipPath><clipPath class="axesclip" id="clip2d92a5y"><rect x="0" y="100" width="700" height="320"/></clipPath><clipPath class="axesclip" id="clip2d92a5xy"><rect x="80" y="100" width="516" height="320"/></clipPath></g><g class="gradients"/><g class="patterns"/></defs><g class="bglayer"><rect class="bg" x="80" y="100" width="516" height="320" style="fill: rgb(229, 236, 246); fill-opacity: 1; stroke-width: 0;"/></g><g class="layer-below"><g class="imagelayer"/><g class="shapelayer"/></g><g class="cartesianlayer"><g class="subplot xy"><g class="layer-subplot"><g class="shapelayer"/><g class="imagelayer"/></g><g class="gridlayer"><g class="x"/><g class="y"><path class="ygrid crisp" transform="translate(0,368.92)" d="M80,0h516" style="stroke: rgb(255, 255, 255); stroke-opacity: 1; stroke-width: 1px;"/><path class="ygrid crisp" transform="translate(0,305.43)" d="M80,0h516" style="stroke: rgb(255, 255, 255); stroke-opacity: 1; stroke-width: 1px;"/><path class="ygrid crisp" transform="translate(0,241.94)" d="M80,0h516" style="stroke: rgb(255, 255, 255); stroke-opacity: 1; stroke-width: 1px;"/><path class="ygrid crisp" transform="translate(0,178.45)" d="M80,0h516" style="stroke: rgb(255, 255, 255); stroke-opacity: 1; stroke-width: 1px;"/><path class="ygrid crisp" transform="translate(0,114.96000000000001)" d="M80,0h516" style="stroke: rgb(255, 255, 255); stroke-opacity: 1; stroke-width: 1px;"/></g></g><g class="zerolinelayer"/><path class="xlines-below"/><path class="ylines-below"/><g class="overlines-below"/><g class="xaxislayer-below"/><g class="yaxislayer-below"/><g class="overaxes-below"/><g class="plot" transform="translate(80,100)" clip-path="url(#clip2d92a5xyplot)"><g class="violinlayer mlayer"><g class="trace violins" style="opacity: 1;"><path class="violin" d="M45.86,237.61Q47,235.28 47.62,234.12C48.25,232.95 48.95,231.79 49.61,230.63C50.28,229.46 50.98,228.3 51.61,227.13C52.23,225.97 52.86,224.82 53.38,223.64C53.89,222.49 54.36,221.33 54.71,220.15C55.05,219 55.32,217.83 55.48,216.66C55.64,215.5 55.69,214.33 55.69,213.17C55.69,212 55.58,210.83 55.46,209.67C55.33,208.5 55.13,207.34 54.94,206.18C54.75,205.02 54.52,203.85 54.31,202.69C54.1,201.53 53.89,200.36 53.69,199.2C53.49,198.04 53.3,196.87 53.13,195.71C52.96,194.55 52.81,193.38 52.67,192.22C52.53,191.05 52.4,189.89 52.27,188.72C52.15,187.56 52.03,186.39 51.92,185.23C51.81,184.07 51.71,182.9 51.61,181.74C51.51,180.58 51.42,179.41 51.33,178.25C51.25,177.09 51.17,175.92 51.1,174.76C51.03,173.6 50.97,172.43 50.92,171.27C50.87,170.1 50.83,168.94 50.8,167.77C50.77,166.61 50.75,165.44 50.73,164.28C50.71,163.12 50.7,161.95 50.69,160.79C50.68,159.63 50.68,158.46 50.67,157.3C50.66,156.14 50.66,154.97 50.65,153.81C50.64,152.64 50.63,151.48 50.62,150.31C50.61,149.15 50.6,147.98 50.59,146.82C50.58,145.66 50.56,144.49 50.55,143.33C50.54,142.17 50.52,141 50.51,139.84C50.49,138.68 50.48,137.51 50.46,136.35C50.44,135.19 50.42,134.02 50.4,132.86C50.38,131.69 50.36,130.53 50.33,129.36C50.3,128.2 50.27,127.03 50.23,125.87C50.19,124.71 50.15,123.54 50.1,122.38C50.05,121.22 50,120.05 49.95,118.89C49.9,117.73 49.85,116.56 49.8,115.4C49.75,114.24 49.7,113.07 49.66,111.91C49.62,110.74 49.58,109.58 49.55,108.41C49.52,107.25 49.48,106.08 49.46,104.92C49.44,103.76 49.42,102.59 49.41,101.43C49.4,100.27 49.39,99.1 49.38,97.94C49.37,96.78 49.36,95.61 49.36,94.45C49.35,93.28 49.35,92.12 49.35,90.95C49.35,89.79 49.34,88.62 49.34,87.46C49.33,86.3 49.33,85.13 49.32,83.97C49.31,82.81 49.28,81.64 49.26,80.48C49.23,79.32 49.21,78.15 49.17,76.99C49.13,75.83 49.09,74.66 49.04,73.5C48.99,72.33 48.93,71.17 48.86,70C48.79,68.84 48.72,67.67 48.63,66.51C48.54,65.35 48.44,64.18 48.34,63.02C48.23,61.86 48.13,60.69 48,59.53C47.87,58.37 47.73,57.2 47.58,56.04C47.43,54.88 47.26,53.71 47.08,52.55C46.9,51.38 46.7,50.21 46.5,49.05C46.3,47.88 46.08,46.72 45.86,45.56C45.64,44.4 45.4,43.23 45.17,42.07C44.94,40.91 44.71,39.74 44.49,38.58C44.27,37.42 44.06,36.26 43.86,35.09C43.66,33.93 43.48,32.76 43.31,31.59Q43.14,30.43 42.86,28.1L40.99,28.1Q40.71,30.43 40.54,31.59C40.37,32.76 40.19,33.93 39.99,35.09C39.79,36.26 39.58,37.42 39.36,38.58C39.14,39.74 38.91,40.91 38.68,42.07C38.45,43.23 38.21,44.4 37.99,45.56C37.77,46.72 37.55,47.88 37.35,49.05C37.15,50.21 36.95,51.38 36.77,52.55C36.59,53.71 36.42,54.88 36.27,56.04C36.12,57.2 35.98,58.37 35.85,59.53C35.72,60.69 35.62,61.86 35.51,63.02C35.41,64.18 35.31,65.35 35.22,66.51C35.13,67.67 35.06,68.84 34.99,70C34.92,71.17 34.86,72.33 34.81,73.5C34.76,74.66 34.72,75.83 34.68,76.99C34.64,78.15 34.62,79.32 34.59,80.48C34.57,81.64 34.54,82.81 34.53,83.97C34.52,85.13 34.52,86.3 34.51,87.46C34.51,88.62 34.5,89.79 34.5,90.95C34.5,92.12 34.5,93.28 34.49,94.45C34.49,95.61 34.48,96.78 34.47,97.94C34.46,99.1 34.45,100.27 34.44,101.43C34.43,102.59 34.41,103.76 34.39,104.92C34.37,106.08 34.33,107.25 34.3,108.41C34.27,109.58 34.23,110.74 34.19,111.91C34.15,113.07 34.1,114.24 34.05,115.4C34,116.56 33.95,117.73 33.9,118.89C33.85,120.05 33.8,121.22 33.75,122.38C33.7,123.54 33.66,124.71 33.62,125.87C33.58,127.03 33.55,128.2 33.52,129.36C33.49,130.53 33.47,131.69 33.45,132.86C33.43,134.02 33.41,135.19 33.39,136.35C33.37,137.51 33.36,138.68 33.34,139.84C33.33,141 33.31,142.17 33.3,143.33C33.29,144.49 33.27,145.66 33.26,146.82C33.25,147.98 33.24,149.15 33.23,150.31C33.22,151.48 33.21,152.64 33.2,153.81C33.19,154.97 33.19,156.14 33.18,157.3C33.17,158.46 33.17,159.63 33.16,160.79C33.15,161.95 33.14,163.12 33.12,164.28C33.1,165.44 33.08,166.61 33.05,167.77C33.02,168.94 32.98,170.1 32.93,171.27C32.88,172.43 32.82,173.6 32.75,174.76C32.68,175.92 32.6,177.09 32.52,178.25C32.43,179.41 32.34,180.58 32.24,181.74C32.14,182.9 32.04,184.07 31.93,185.23C31.82,186.39 31.7,187.56 31.58,188.72C31.45,189.89 31.32,191.05 31.18,192.22C31.04,193.38 30.89,194.55 30.72,195.71C30.55,196.87 30.36,198.04 30.16,199.2C29.96,200.36 29.75,201.53 29.54,202.69C29.33,203.85 29.1,205.02 28.91,206.18C28.72,207.34 28.52,208.5 28.39,209.67C28.27,210.83 28.16,212 28.16,213.17C28.16,214.33 28.21,215.5 28.37,216.66C28.53,217.83 28.8,219 29.14,220.15C29.49,221.33 29.96,222.49 30.47,223.64C30.99,224.82 31.62,225.97 32.24,227.13C32.87,228.3 33.57,229.46 34.24,230.63C34.9,231.79 35.6,232.95 36.23,234.12Q36.85,235.28 37.99,237.61Z" style="vector-effect: non-scaling-stroke; stroke-width: 2px; stroke: rgb(99, 110, 250); stroke-opacity: 1; fill: rgb(99, 110, 250); fill-opacity: 0.5;"/><path class="violin" d="M171.12,266.61Q171.22,263.98 171.31,262.67C171.4,261.35 171.5,260.03 171.64,258.72C171.78,257.4 171.94,256.09 172.14,254.78C172.34,253.46 172.58,252.14 172.83,250.83C173.08,249.51 173.38,248.2 173.66,246.89C173.94,245.58 174.25,244.27 174.53,242.95C174.8,241.64 175.08,240.32 175.31,239C175.54,237.69 175.75,236.38 175.91,235.06C176.07,233.75 176.19,232.43 176.27,231.11C176.35,229.8 176.38,228.48 176.39,227.17C176.4,225.86 176.38,224.54 176.35,223.23C176.32,221.91 176.27,220.6 176.22,219.28C176.18,217.97 176.12,216.65 176.08,215.34C176.04,214.02 176,212.71 175.96,211.39C175.92,210.08 175.89,208.76 175.86,207.45C175.83,206.14 175.81,204.82 175.79,203.51C175.77,202.19 175.75,200.88 175.73,199.56C175.71,198.25 175.7,196.93 175.68,195.62C175.66,194.3 175.64,192.99 175.62,191.67C175.6,190.36 175.59,189.04 175.57,187.73C175.55,186.41 175.53,185.1 175.52,183.78C175.51,182.47 175.5,181.15 175.49,179.84C175.48,178.53 175.48,177.21 175.48,175.9C175.48,174.58 175.48,173.27 175.5,171.95C175.52,170.64 175.55,169.32 175.58,168.01C175.62,166.69 175.66,165.38 175.71,164.06C175.76,162.75 175.82,161.43 175.88,160.12C175.94,158.81 176.01,157.49 176.08,156.18C176.15,154.86 176.23,153.55 176.3,152.23C176.37,150.92 176.44,149.6 176.51,148.29C176.58,146.97 176.64,145.66 176.7,144.34C176.76,143.03 176.82,141.71 176.88,140.4C176.94,139.09 176.99,137.77 177.05,136.46C177.11,135.14 177.16,133.83 177.22,132.51C177.28,131.2 177.33,129.88 177.39,128.57C177.45,127.25 177.51,125.94 177.57,124.62C177.63,123.31 177.7,121.99 177.77,120.68C177.84,119.37 177.9,118.05 177.98,116.74C178.06,115.42 178.14,114.11 178.23,112.79C178.32,111.48 178.41,110.16 178.52,108.85C178.63,107.53 178.75,106.22 178.87,104.9C178.99,103.59 179.13,102.27 179.26,100.96C179.4,99.65 179.54,98.33 179.68,97.02C179.83,95.7 179.98,94.39 180.13,93.07C180.28,91.76 180.43,90.44 180.59,89.13C180.75,87.81 180.92,86.5 181.09,85.18C181.26,83.87 181.44,82.55 181.63,81.24C181.83,79.93 182.04,78.61 182.26,77.3C182.49,75.98 182.72,74.66 182.98,73.35C183.24,72.03 183.52,70.72 183.8,69.41C184.09,68.09 184.4,66.78 184.69,65.46C184.98,64.15 185.29,62.84 185.56,61.52C185.83,60.21 186.1,58.89 186.3,57.57C186.49,56.26 186.67,54.95 186.73,53.63C186.79,52.32 186.79,51 186.66,49.69C186.53,48.37 186.3,47.04 185.96,45.74C185.61,44.41 185.12,43.1 184.57,41.8C184,40.47 183.29,39.15 182.58,37.85C181.85,36.52 181.04,35.22 180.25,33.91C179.46,32.59 178.61,31.29 177.85,29.97Q177.1,28.66 175.69,26.02L166.16,26.02Q164.75,28.66 164,29.97C163.24,31.29 162.39,32.59 161.6,33.91C160.81,35.22 160,36.52 159.27,37.85C158.56,39.15 157.85,40.47 157.28,41.8C156.73,43.1 156.24,44.41 155.89,45.74C155.55,47.04 155.32,48.37 155.19,49.69C155.06,51 155.06,52.32 155.12,53.63C155.18,54.95 155.36,56.26 155.55,57.57C155.75,58.89 156.02,60.21 156.29,61.52C156.56,62.84 156.87,64.15 157.16,65.46C157.45,66.78 157.76,68.09 158.05,69.41C158.33,70.72 158.61,72.03 158.87,73.35C159.13,74.66 159.36,75.98 159.59,77.3C159.81,78.61 160.02,79.93 160.22,81.24C160.41,82.55 160.59,83.87 160.76,85.18C160.93,86.5 161.1,87.81 161.26,89.13C161.42,90.44 161.57,91.76 161.72,93.07C161.87,94.39 162.02,95.7 162.17,97.02C162.31,98.33 162.45,99.65 162.59,100.96C162.72,102.27 162.86,103.59 162.98,104.9C163.1,106.22 163.22,107.53 163.33,108.85C163.44,110.16 163.53,111.48 163.62,112.79C163.71,114.11 163.79,115.42 163.87,116.74C163.95,118.05 164.01,119.37 164.08,120.68C164.15,121.99 164.22,123.31 164.28,124.62C164.34,125.94 164.4,127.25 164.46,128.57C164.52,129.88 164.57,131.2 164.63,132.51C164.69,133.83 164.74,135.14 164.8,136.46C164.86,137.77 164.91,139.09 164.97,140.4C165.03,141.71 165.09,143.03 165.15,144.34C165.21,145.66 165.27,146.97 165.34,148.29C165.41,149.6 165.48,150.92 165.55,152.23C165.62,153.55 165.7,154.86 165.77,156.18C165.84,157.49 165.91,158.81 165.97,160.12C166.03,161.43 166.09,162.75 166.14,164.06C166.19,165.38 166.23,166.69 166.27,168.01C166.3,169.32 166.33,170.64 166.35,171.95C166.37,173.27 166.37,174.58 166.37,175.9C166.37,177.21 166.37,178.53 166.36,179.84C166.35,181.15 166.34,182.47 166.33,183.78C166.32,185.1 166.3,186.41 166.28,187.73C166.26,189.04 166.25,190.36 166.23,191.67C166.21,192.99 166.19,194.3 166.17,195.62C166.15,196.93 166.14,198.25 166.12,199.56C166.1,200.88 166.08,202.19 166.06,203.51C166.04,204.82 166.02,206.14 165.99,207.45C165.96,208.76 165.93,210.08 165.89,211.39C165.85,212.71 165.81,214.02 165.77,215.34C165.73,216.65 165.67,217.97 165.63,219.28C165.58,220.6 165.53,221.91 165.5,223.23C165.47,224.54 165.45,225.86 165.46,227.17C165.47,228.48 165.5,229.8 165.58,231.11C165.66,232.43 165.78,233.75 165.94,235.06C166.1,236.38 166.31,237.69 166.54,239C166.77,240.32 167.05,241.64 167.32,242.95C167.6,244.27 167.91,245.58 168.19,246.89C168.47,248.2 168.77,249.51 169.02,250.83C169.27,252.14 169.51,253.46 169.71,254.78C169.91,256.09 170.07,257.4 170.21,258.72C170.35,260.03 170.45,261.35 170.54,262.67Q170.63,263.98 170.73,266.61Z" style="vector-effect: non-scaling-stroke; stroke-width: 2px; stroke: rgb(99, 110, 250); stroke-opacity: 1; fill: rgb(99, 110, 250); fill-opacity: 0.5;"/><path class="violin" d="M302.46,304Q302.88,301.41 303.06,300.11C303.24,298.81 303.41,297.52 303.56,296.22C303.71,294.92 303.84,293.62 303.94,292.32C304.04,291.02 304.12,289.73 304.18,288.43C304.24,287.13 304.28,285.84 304.31,284.54C304.34,283.24 304.37,281.95 304.38,280.65C304.39,279.35 304.4,278.06 304.4,276.76C304.4,275.46 304.4,274.16 304.4,272.86C304.4,271.56 304.4,270.27 304.39,268.97C304.38,267.67 304.37,266.38 304.35,265.08C304.33,263.78 304.3,262.49 304.28,261.19C304.25,259.89 304.23,258.6 304.2,257.3C304.17,256 304.13,254.71 304.1,253.41C304.07,252.11 304.04,250.81 304.01,249.51C303.98,248.21 303.96,246.92 303.94,245.62C303.92,244.32 303.91,243.03 303.89,241.73C303.88,240.43 303.86,239.14 303.85,237.84C303.84,236.54 303.84,235.25 303.83,233.95C303.82,232.65 303.82,231.35 303.81,230.05C303.8,228.75 303.8,227.46 303.79,226.16C303.78,224.86 303.78,223.57 303.77,222.27C303.77,220.97 303.76,219.68 303.76,218.38C303.76,217.08 303.77,215.79 303.78,214.49C303.79,213.19 303.81,211.89 303.84,210.59C303.87,209.29 303.91,208 303.96,206.7C304.01,205.4 304.07,204.11 304.15,202.81C304.23,201.51 304.32,200.22 304.42,198.92C304.53,197.62 304.64,196.33 304.78,195.03C304.92,193.73 305.08,192.44 305.26,191.14C305.44,189.84 305.64,188.54 305.86,187.24C306.08,185.94 306.32,184.65 306.57,183.35C306.82,182.05 307.1,180.76 307.37,179.46C307.64,178.16 307.92,176.87 308.2,175.57C308.47,174.27 308.75,172.98 309.02,171.68C309.28,170.38 309.55,169.08 309.79,167.78C310.03,166.48 310.26,165.19 310.48,163.89C310.69,162.59 310.89,161.3 311.08,160C311.27,158.7 311.45,157.41 311.62,156.11C311.79,154.81 311.95,153.52 312.11,152.22C312.27,150.92 312.43,149.62 312.58,148.32C312.73,147.02 312.87,145.73 313.01,144.43C313.14,143.13 313.27,141.84 313.39,140.54C313.51,139.24 313.62,137.95 313.71,136.65C313.8,135.35 313.88,134.06 313.94,132.76C314,131.46 314.04,130.16 314.05,128.86C314.06,127.56 314.04,126.27 314,124.97C313.96,123.67 313.88,122.38 313.78,121.08C313.67,119.78 313.54,118.48 313.37,117.19C313.2,115.89 313,114.59 312.77,113.3C312.54,112 312.28,110.71 312,109.41C311.72,108.11 311.41,106.81 311.09,105.51C310.77,104.21 310.42,102.91 310.07,101.62C309.72,100.32 309.35,99.03 308.97,97.73C308.59,96.43 308.2,95.14 307.81,93.84C307.42,92.54 307.02,91.25 306.64,89.95C306.25,88.65 305.87,87.35 305.5,86.05C305.14,84.75 304.78,83.46 304.45,82.16C304.12,80.87 303.81,79.57 303.53,78.27C303.25,76.98 302.99,75.68 302.76,74.38C302.53,73.09 302.32,71.79 302.14,70.49C301.96,69.19 301.81,67.89 301.68,66.59C301.55,65.29 301.44,64 301.34,62.7C301.25,61.4 301.17,60.11 301.11,58.81C301.05,57.51 301,56.22 300.96,54.92C300.92,53.62 300.9,52.33 300.87,51.03C300.85,49.73 300.82,48.44 300.81,47.14C300.79,45.84 300.79,44.54 300.78,43.24C300.77,41.94 300.77,40.65 300.76,39.35C300.75,38.05 300.74,36.76 300.73,35.46C300.72,34.16 300.71,32.87 300.69,31.57C300.67,30.27 300.64,28.98 300.62,27.68C300.59,26.38 300.57,25.08 300.54,23.78C300.51,22.48 300.47,21.19 300.44,19.89Q300.4,18.59 300.33,16L299.52,16Q299.45,18.59 299.41,19.89C299.38,21.19 299.34,22.48 299.31,23.78C299.28,25.08 299.26,26.38 299.23,27.68C299.21,28.98 299.18,30.27 299.16,31.57C299.14,32.87 299.13,34.16 299.12,35.46C299.11,36.76 299.1,38.05 299.09,39.35C299.08,40.65 299.08,41.94 299.07,43.24C299.06,44.54 299.06,45.84 299.04,47.14C299.03,48.44 299,49.73 298.98,51.03C298.95,52.33 298.93,53.62 298.89,54.92C298.85,56.22 298.8,57.51 298.74,58.81C298.68,60.11 298.6,61.4 298.51,62.7C298.41,64 298.3,65.29 298.17,66.59C298.04,67.89 297.89,69.19 297.71,70.49C297.53,71.79 297.32,73.09 297.09,74.38C296.86,75.68 296.6,76.98 296.32,78.27C296.04,79.57 295.73,80.87 295.4,82.16C295.07,83.46 294.71,84.75 294.35,86.05C293.98,87.35 293.6,88.65 293.21,89.95C292.83,91.25 292.43,92.54 292.04,93.84C291.65,95.14 291.26,96.43 290.88,97.73C290.5,99.03 290.13,100.32 289.78,101.62C289.43,102.91 289.08,104.21 288.76,105.51C288.44,106.81 288.13,108.11 287.85,109.41C287.57,110.71 287.31,112 287.08,113.3C286.85,114.59 286.65,115.89 286.48,117.19C286.31,118.48 286.18,119.78 286.07,121.08C285.97,122.38 285.89,123.67 285.85,124.97C285.81,126.27 285.79,127.56 285.8,128.86C285.81,130.16 285.85,131.46 285.91,132.76C285.97,134.06 286.05,135.35 286.14,136.65C286.23,137.95 286.34,139.24 286.46,140.54C286.58,141.84 286.71,143.13 286.84,144.43C286.98,145.73 287.12,147.02 287.27,148.32C287.42,149.62 287.58,150.92 287.74,152.22C287.9,153.52 288.06,154.81 288.23,156.11C288.4,157.41 288.58,158.7 288.77,160C288.96,161.3 289.16,162.59 289.37,163.89C289.59,165.19 289.82,166.48 290.06,167.78C290.3,169.08 290.57,170.38 290.83,171.68C291.1,172.98 291.38,174.27 291.65,175.57C291.93,176.87 292.21,178.16 292.48,179.46C292.75,180.76 293.03,182.05 293.28,183.35C293.53,184.65 293.77,185.94 293.99,187.24C294.21,188.54 294.41,189.84 294.59,191.14C294.77,192.44 294.93,193.73 295.07,195.03C295.21,196.33 295.32,197.62 295.43,198.92C295.53,200.22 295.62,201.51 295.7,202.81C295.78,204.11 295.84,205.4 295.89,206.7C295.94,208 295.98,209.29 296.01,210.59C296.04,211.89 296.06,213.19 296.07,214.49C296.08,215.79 296.09,217.08 296.09,218.38C296.09,219.68 296.08,220.97 296.08,222.27C296.07,223.57 296.07,224.86 296.06,226.16C296.05,227.46 296.05,228.75 296.04,230.05C296.03,231.35 296.03,232.65 296.02,233.95C296.01,235.25 296.01,236.54 296,237.84C295.99,239.14 295.97,240.43 295.96,241.73C295.94,243.03 295.93,244.32 295.91,245.62C295.89,246.92 295.87,248.21 295.84,249.51C295.81,250.81 295.78,252.11 295.75,253.41C295.72,254.71 295.68,256 295.65,257.3C295.62,258.6 295.6,259.89 295.57,261.19C295.55,262.49 295.52,263.78 295.5,265.08C295.48,266.38 295.47,267.67 295.46,268.97C295.45,270.27 295.45,271.56 295.45,272.86C295.45,274.16 295.45,275.46 295.45,276.76C295.45,278.06 295.46,279.35 295.47,280.65C295.48,281.95 295.51,283.24 295.54,284.54C295.57,285.84 295.61,287.13 295.67,288.43C295.73,289.73 295.81,291.02 295.91,292.32C296.01,293.62 296.14,294.92 296.29,296.22C296.44,297.52 296.61,298.81 296.79,300.11Q296.97,301.41 297.39,304Z" style="vector-effect: non-scaling-stroke; stroke-width: 2px; stroke: rgb(99, 110, 250); stroke-opacity: 1; fill: rgb(99, 110, 250); fill-opacity: 0.5;"/><path class="violin" d="M428.97,278.1Q428.98,276.11 428.99,275.12C429,274.13 429.02,273.13 429.04,272.14C429.06,271.15 429.08,270.15 429.12,269.16C429.16,268.17 429.21,267.17 429.28,266.18C429.35,265.19 429.43,264.19 429.53,263.2C429.63,262.21 429.76,261.22 429.9,260.23C430.05,259.24 430.21,258.24 430.4,257.25C430.59,256.25 430.81,255.26 431.05,254.27C431.29,253.27 431.55,252.28 431.83,251.29C432.11,250.29 432.42,249.3 432.75,248.31C433.08,247.31 433.43,246.32 433.81,245.33C434.19,244.33 434.59,243.34 435.01,242.35C435.43,241.35 435.89,240.36 436.35,239.37C436.82,238.37 437.31,237.38 437.8,236.39C438.29,235.4 438.79,234.41 439.28,233.42C439.77,232.43 440.26,231.44 440.72,230.44C441.17,229.45 441.62,228.46 442.01,227.46C442.39,226.47 442.74,225.48 443.02,224.48C443.3,223.49 443.52,222.5 443.68,221.5C443.83,220.51 443.92,219.51 443.95,218.52C443.98,217.53 443.94,216.53 443.87,215.54C443.8,214.55 443.67,213.55 443.53,212.56C443.39,211.56 443.21,210.57 443.03,209.58C442.86,208.59 442.66,207.6 442.48,206.61C442.3,205.62 442.12,204.62 441.96,203.63C441.8,202.64 441.65,201.64 441.51,200.65C441.37,199.66 441.25,198.66 441.13,197.67C441.02,196.68 440.91,195.68 440.82,194.69C440.73,193.7 440.65,192.7 440.58,191.71C440.51,190.72 440.46,189.72 440.42,188.73C440.38,187.74 440.35,186.74 440.34,185.75C440.33,184.76 440.33,183.77 440.34,182.78C440.35,181.79 440.37,180.79 440.39,179.8C440.41,178.81 440.45,177.81 440.48,176.82C440.51,175.83 440.53,174.83 440.55,173.84C440.57,172.85 440.59,171.85 440.6,170.86C440.61,169.87 440.61,168.87 440.6,167.88C440.59,166.89 440.57,165.89 440.55,164.9C440.53,163.91 440.49,162.91 440.46,161.92C440.42,160.93 440.39,159.93 440.34,158.94C440.29,157.95 440.23,156.96 440.16,155.97C440.09,154.98 440.02,153.98 439.94,152.99C439.85,152 439.75,151 439.65,150.01C439.54,149.02 439.43,148.02 439.31,147.03C439.19,146.04 439.06,145.04 438.92,144.05C438.78,143.06 438.63,142.06 438.49,141.07C438.34,140.08 438.2,139.08 438.05,138.09C437.9,137.1 437.74,136.1 437.59,135.11C437.44,134.12 437.29,133.12 437.14,132.13C436.99,131.14 436.85,130.15 436.71,129.16C436.57,128.17 436.43,127.17 436.3,126.18C436.18,125.19 436.06,124.19 435.96,123.2C435.86,122.21 435.77,121.21 435.69,120.22C435.61,119.23 435.55,118.23 435.5,117.24C435.45,116.25 435.41,115.25 435.38,114.26C435.35,113.27 435.34,112.27 435.33,111.28C435.32,110.29 435.31,109.29 435.3,108.3C435.29,107.31 435.29,106.31 435.27,105.32C435.26,104.33 435.24,103.34 435.21,102.35C435.18,101.36 435.14,100.36 435.09,99.37C435.04,98.38 434.97,97.38 434.9,96.39C434.83,95.4 434.74,94.4 434.65,93.41C434.56,92.42 434.45,91.42 434.34,90.43C434.23,89.44 434.1,88.44 433.98,87.45C433.86,86.46 433.73,85.46 433.6,84.47C433.47,83.48 433.34,82.48 433.21,81.49C433.08,80.5 432.94,79.5 432.8,78.51C432.67,77.52 432.53,76.53 432.4,75.54C432.27,74.55 432.13,73.55 432,72.56C431.87,71.57 431.74,70.57 431.62,69.58C431.5,68.59 431.38,67.59 431.26,66.6C431.14,65.61 431.03,64.61 430.92,63.62C430.81,62.63 430.7,61.63 430.6,60.64C430.5,59.65 430.4,58.65 430.3,57.66C430.2,56.67 430.1,55.67 430.01,54.68C429.92,53.69 429.83,52.69 429.75,51.7C429.67,50.71 429.59,49.72 429.52,48.73Q429.45,47.74 429.33,45.75L428.52,45.75Q428.4,47.74 428.33,48.73C428.26,49.72 428.18,50.71 428.1,51.7C428.02,52.69 427.93,53.69 427.84,54.68C427.75,55.67 427.65,56.67 427.55,57.66C427.45,58.65 427.35,59.65 427.25,60.64C427.15,61.63 427.04,62.63 426.93,63.62C426.82,64.61 426.71,65.61 426.59,66.6C426.47,67.59 426.35,68.59 426.23,69.58C426.11,70.57 425.98,71.57 425.85,72.56C425.72,73.55 425.58,74.55 425.45,75.54C425.32,76.53 425.18,77.52 425.05,78.51C424.91,79.5 424.77,80.5 424.64,81.49C424.51,82.48 424.38,83.48 424.25,84.47C424.12,85.46 423.99,86.46 423.87,87.45C423.75,88.44 423.62,89.44 423.51,90.43C423.4,91.42 423.29,92.42 423.2,93.41C423.11,94.4 423.02,95.4 422.95,96.39C422.88,97.38 422.81,98.38 422.76,99.37C422.71,100.36 422.67,101.36 422.64,102.35C422.61,103.34 422.59,104.33 422.58,105.32C422.56,106.31 422.56,107.31 422.55,108.3C422.54,109.29 422.53,110.29 422.52,111.28C422.51,112.27 422.5,113.27 422.47,114.26C422.44,115.25 422.4,116.25 422.35,117.24C422.3,118.23 422.24,119.23 422.16,120.22C422.08,121.21 421.99,122.21 421.89,123.2C421.79,124.19 421.67,125.19 421.55,126.18C421.42,127.17 421.28,128.17 421.14,129.16C421,130.15 420.86,131.14 420.71,132.13C420.56,133.12 420.41,134.12 420.26,135.11C420.11,136.1 419.95,137.1 419.8,138.09C419.65,139.08 419.51,140.08 419.36,141.07C419.22,142.06 419.07,143.06 418.93,144.05C418.79,145.04 418.66,146.04 418.54,147.03C418.42,148.02 418.31,149.02 418.2,150.01C418.1,151 418,152 417.91,152.99C417.83,153.98 417.76,154.98 417.69,155.97C417.62,156.96 417.56,157.95 417.51,158.94C417.46,159.93 417.43,160.93 417.39,161.92C417.36,162.91 417.32,163.91 417.3,164.9C417.28,165.89 417.26,166.89 417.25,167.88C417.24,168.87 417.24,169.87 417.25,170.86C417.26,171.85 417.28,172.85 417.3,173.84C417.32,174.83 417.34,175.83 417.37,176.82C417.4,177.81 417.44,178.81 417.46,179.8C417.48,180.79 417.5,181.79 417.51,182.78C417.52,183.77 417.52,184.76 417.51,185.75C417.5,186.74 417.47,187.74 417.43,188.73C417.39,189.72 417.34,190.72 417.27,191.71C417.2,192.7 417.12,193.7 417.03,194.69C416.94,195.68 416.83,196.68 416.72,197.67C416.6,198.66 416.48,199.66 416.34,200.65C416.2,201.64 416.05,202.64 415.89,203.63C415.73,204.62 415.55,205.62 415.37,206.61C415.19,207.6 414.99,208.59 414.82,209.58C414.64,210.57 414.46,211.56 414.32,212.56C414.18,213.55 414.05,214.55 413.98,215.54C413.91,216.53 413.87,217.53 413.9,218.52C413.93,219.51 414.02,220.51 414.17,221.5C414.33,222.5 414.55,223.49 414.83,224.48C415.11,225.48 415.46,226.47 415.84,227.46C416.23,228.46 416.68,229.45 417.13,230.44C417.59,231.44 418.08,232.43 418.57,233.42C419.06,234.41 419.56,235.4 420.05,236.39C420.54,237.38 421.03,238.37 421.5,239.37C421.96,240.36 422.42,241.35 422.84,242.35C423.26,243.34 423.66,244.33 424.04,245.33C424.42,246.32 424.77,247.31 425.1,248.31C425.43,249.3 425.74,250.29 426.02,251.29C426.3,252.28 426.56,253.27 426.8,254.27C427.04,255.26 427.26,256.25 427.45,257.25C427.64,258.24 427.8,259.24 427.95,260.23C428.09,261.22 428.22,262.21 428.32,263.2C428.42,264.19 428.5,265.19 428.57,266.18C428.64,267.17 428.69,268.17 428.73,269.16C428.77,270.15 428.79,271.15 428.81,272.14C428.83,273.13 428.85,274.13 428.86,275.12Q428.87,276.11 428.88,278.1Z" style="vector-effect: non-scaling-stroke; stroke-width: 2px; stroke: rgb(99, 110, 250); stroke-opacity: 1; fill: rgb(99, 110, 250); fill-opacity: 0.5;"/><path class="box" d="M37.97,156.17H45.88M37.97,201.39H45.88V103.92H37.97ZM41.93,201.39V237.61M41.93,103.92V28.1" style="vector-effect: non-scaling-stroke; stroke-width: 2px; stroke: rgb(99, 110, 250); stroke-opacity: 1; fill: rgb(99, 110, 250); fill-opacity: 0.5;"/><path class="box" d="M166.97,94.56H174.88M166.97,160.03H174.88V56.93H166.97ZM170.93,160.03V266.61M170.93,56.93V26.02" style="vector-effect: non-scaling-stroke; stroke-width: 2px; stroke: rgb(99, 110, 250); stroke-opacity: 1; fill: rgb(99, 110, 250); fill-opacity: 0.5;"/><path class="box" d="M295.97,149H303.88M295.97,201.76H303.88V118.7H295.97ZM299.92,201.76V304M299.92,118.7V16" style="vector-effect: non-scaling-stroke; stroke-width: 2px; stroke: rgb(99, 110, 250); stroke-opacity: 1; fill: rgb(99, 110, 250); fill-opacity: 0.5;"/><path class="box" d="M424.97,175.96H432.88M424.97,212.71H432.88V137.32H424.97ZM428.93,212.71V278.1M428.93,137.32V45.75" style="vector-effect: non-scaling-stroke; stroke-width: 2px; stroke: rgb(99, 110, 250); stroke-opacity: 1; fill: rgb(99, 110, 250); fill-opacity: 0.5;"/><path class="mean" d="M37.97,150.23H45.88" style="fill: none; vector-effect: non-scaling-stroke; stroke-width: 2px; stroke-dasharray: 4px, 2px; stroke: rgb(0, 0, 0); stroke-opacity: 1;"/><path class="mean" d="M166.97,112.35H174.88" style="fill: none; vector-effect: non-scaling-stroke; stroke-width: 2px; stroke-dasharray: 4px, 2px; stroke: rgb(0, 0, 0); stroke-opacity: 1;"/><path class="mean" d="M295.97,163.72H303.88" style="fill: none; vector-effect: non-scaling-stroke; stroke-width: 2px; stroke-dasharray: 4px, 2px; stroke: rgb(0, 0, 0); stroke-opacity: 1;"/><path class="mean" d="M424.97,171.12H432.88" style="fill: none; vector-effect: non-scaling-stroke; stroke-width: 2px; stroke-dasharray: 4px, 2px; stroke: rgb(0, 0, 0); stroke-opacity: 1;"/></g><g class="trace violins" style="opacity: 1;"><path class="violin" d="M88.28,239.25Q88.6,238.95 88.78,238.8C88.96,238.65 89.16,238.5 89.36,238.35C89.56,238.2 89.77,238.04 89.97,237.89C90.17,237.74 90.37,237.59 90.55,237.44C90.73,237.29 90.9,237.15 91.05,236.99C91.19,236.84 91.33,236.69 91.43,236.53C91.52,236.38 91.6,236.23 91.64,236.08C91.68,235.93 91.69,235.78 91.68,235.63C91.67,235.48 91.62,235.32 91.58,235.17C91.54,235.02 91.48,234.87 91.43,234.72C91.39,234.57 91.33,234.42 91.31,234.27C91.29,234.12 91.29,233.96 91.32,233.81C91.36,233.66 91.43,233.5 91.53,233.36C91.65,233.2 91.82,233.05 92,232.91C92.21,232.75 92.45,232.6 92.71,232.45C92.99,232.29 93.31,232.15 93.62,232C93.95,231.85 94.3,231.7 94.63,231.55C94.96,231.4 95.3,231.25 95.61,231.09C95.9,230.94 96.2,230.8 96.45,230.64C96.68,230.5 96.89,230.35 97.07,230.19C97.23,230.05 97.36,229.89 97.48,229.73C97.59,229.58 97.68,229.43 97.78,229.28C97.88,229.13 97.97,228.98 98.09,228.83C98.21,228.67 98.36,228.52 98.51,228.37C98.67,228.21 98.87,228.07 99.05,227.92C99.24,227.77 99.44,227.63 99.62,227.47C99.79,227.32 99.96,227.17 100.08,227.01C100.18,226.87 100.28,226.71 100.3,226.56C100.32,226.41 100.29,226.25 100.23,226.11C100.16,225.95 100.01,225.8 99.87,225.65C99.72,225.49 99.52,225.35 99.33,225.2C99.13,225.05 98.91,224.9 98.71,224.75C98.51,224.6 98.31,224.46 98.14,224.3C97.98,224.15 97.83,224 97.71,223.84C97.6,223.69 97.5,223.55 97.44,223.39C97.38,223.24 97.36,223.09 97.34,222.94C97.32,222.79 97.33,222.63 97.34,222.48C97.35,222.33 97.37,222.18 97.37,222.03C97.37,221.88 97.37,221.73 97.36,221.58C97.35,221.43 97.33,221.27 97.29,221.12C97.25,220.97 97.19,220.82 97.11,220.67C97.03,220.52 96.93,220.37 96.81,220.22C96.68,220.06 96.52,219.91 96.35,219.76C96.16,219.6 95.93,219.45 95.7,219.31C95.45,219.15 95.17,219.01 94.89,218.86C94.6,218.7 94.29,218.55 93.98,218.4C93.67,218.25 93.35,218.1 93.04,217.95C92.74,217.8 92.45,217.66 92.17,217.5C91.91,217.35 91.65,217.2 91.42,217.04C91.21,216.89 91,216.75 90.82,216.59C90.65,216.45 90.5,216.3 90.36,216.14C90.23,215.99 90.12,215.84 90.02,215.68C89.92,215.53 89.85,215.38 89.77,215.23C89.7,215.08 89.63,214.93 89.57,214.78C89.51,214.63 89.46,214.47 89.41,214.32C89.36,214.17 89.31,214.02 89.26,213.87C89.21,213.72 89.17,213.57 89.12,213.42C89.07,213.27 89.03,213.11 88.98,212.96C88.93,212.81 88.88,212.66 88.84,212.51C88.8,212.36 88.76,212.21 88.72,212.06C88.68,211.91 88.65,211.75 88.62,211.6C88.59,211.45 88.57,211.3 88.54,211.15C88.52,211 88.49,210.85 88.47,210.7C88.45,210.55 88.44,210.39 88.42,210.24C88.41,210.09 88.39,209.94 88.38,209.79C88.37,209.64 88.35,209.49 88.34,209.34C88.33,209.19 88.31,209.03 88.3,208.88C88.29,208.73 88.28,208.58 88.27,208.43C88.26,208.28 88.25,208.13 88.24,207.98C88.23,207.83 88.23,207.67 88.22,207.52C88.21,207.37 88.2,207.22 88.19,207.07C88.18,206.92 88.16,206.77 88.15,206.62C88.14,206.47 88.13,206.31 88.11,206.16C88.1,206.01 88.08,205.86 88.06,205.71C88.04,205.56 88.03,205.41 88.01,205.26C87.99,205.11 87.98,204.95 87.96,204.8C87.95,204.65 87.93,204.5 87.92,204.35C87.91,204.2 87.89,204.05 87.88,203.9C87.87,203.75 87.85,203.59 87.84,203.44C87.83,203.29 87.82,203.14 87.81,202.99C87.8,202.84 87.78,202.69 87.77,202.54C87.76,202.39 87.75,202.23 87.73,202.08C87.72,201.93 87.7,201.78 87.68,201.63C87.66,201.48 87.64,201.33 87.63,201.18C87.62,201.03 87.61,200.88 87.6,200.73C87.59,200.58 87.59,200.42 87.58,200.27C87.58,200.12 87.57,199.97 87.57,199.82C87.57,199.67 87.58,199.52 87.58,199.37C87.59,199.22 87.59,199.06 87.6,198.91C87.61,198.76 87.61,198.61 87.62,198.46C87.63,198.31 87.64,198.16 87.65,198.01C87.66,197.86 87.67,197.7 87.68,197.55C87.69,197.4 87.69,197.25 87.7,197.1C87.7,196.95 87.71,196.8 87.71,196.65C87.71,196.5 87.71,196.34 87.7,196.19C87.69,196.04 87.68,195.89 87.67,195.74C87.66,195.59 87.65,195.44 87.64,195.29C87.63,195.14 87.61,194.98 87.6,194.83C87.59,194.68 87.58,194.53 87.57,194.38C87.56,194.23 87.55,194.08 87.54,193.93C87.53,193.78 87.53,193.62 87.53,193.47C87.53,193.32 87.54,193.17 87.54,193.02C87.54,192.87 87.55,192.72 87.55,192.57C87.56,192.42 87.56,192.26 87.57,192.11C87.58,191.96 87.59,191.81 87.6,191.66C87.61,191.51 87.61,191.36 87.61,191.21C87.62,191.06 87.63,190.9 87.63,190.75C87.63,190.6 87.63,190.45 87.63,190.3C87.63,190.15 87.62,190 87.62,189.85C87.61,189.7 87.61,189.54 87.6,189.39C87.6,189.24 87.59,189.09 87.59,188.94C87.58,188.79 87.58,188.64 87.57,188.49C87.56,188.34 87.55,188.18 87.54,188.03C87.53,187.88 87.52,187.73 87.51,187.58C87.5,187.43 87.49,187.28 87.48,187.13C87.47,186.98 87.45,186.82 87.44,186.67C87.43,186.52 87.41,186.37 87.4,186.22C87.38,186.07 87.37,185.92 87.35,185.77Q87.33,185.62 87.3,185.31L86.85,185.31Q86.82,185.62 86.8,185.77C86.78,185.92 86.77,186.07 86.75,186.22C86.74,186.37 86.72,186.52 86.71,186.67C86.7,186.82 86.68,186.98 86.67,187.13C86.66,187.28 86.65,187.43 86.64,187.58C86.63,187.73 86.62,187.88 86.61,188.03C86.6,188.18 86.59,188.34 86.58,188.49C86.57,188.64 86.57,188.79 86.56,188.94C86.56,189.09 86.55,189.24 86.55,189.39C86.54,189.54 86.54,189.7 86.53,189.85C86.53,190 86.52,190.15 86.52,190.3C86.52,190.45 86.52,190.6 86.52,190.75C86.52,190.9 86.53,191.06 86.54,191.21C86.54,191.36 86.54,191.51 86.55,191.66C86.56,191.81 86.57,191.96 86.58,192.11C86.59,192.26 86.59,192.42 86.6,192.57C86.6,192.72 86.61,192.87 86.61,193.02C86.61,193.17 86.62,193.32 86.62,193.47C86.62,193.62 86.62,193.78 86.61,193.93C86.6,194.08 86.59,194.23 86.58,194.38C86.57,194.53 86.56,194.68 86.55,194.83C86.54,194.98 86.52,195.14 86.51,195.29C86.5,195.44 86.49,195.59 86.48,195.74C86.47,195.89 86.46,196.04 86.45,196.19C86.44,196.34 86.44,196.5 86.44,196.65C86.44,196.8 86.45,196.95 86.45,197.1C86.46,197.25 86.46,197.4 86.47,197.55C86.48,197.7 86.49,197.86 86.5,198.01C86.51,198.16 86.52,198.31 86.53,198.46C86.54,198.61 86.54,198.76 86.55,198.91C86.56,199.06 86.56,199.22 86.57,199.37C86.57,199.52 86.58,199.67 86.58,199.82C86.58,199.97 86.57,200.12 86.57,200.27C86.56,200.42 86.56,200.58 86.55,200.73C86.54,200.88 86.53,201.03 86.52,201.18C86.51,201.33 86.49,201.48 86.47,201.63C86.45,201.78 86.43,201.93 86.42,202.08C86.4,202.23 86.39,202.39 86.38,202.54C86.37,202.69 86.35,202.84 86.34,202.99C86.33,203.14 86.32,203.29 86.31,203.44C86.3,203.59 86.28,203.75 86.27,203.9C86.26,204.05 86.24,204.2 86.23,204.35C86.22,204.5 86.2,204.65 86.19,204.8C86.17,204.95 86.16,205.11 86.14,205.26C86.12,205.41 86.11,205.56 86.09,205.71C86.07,205.86 86.05,206.01 86.04,206.16C86.02,206.31 86.01,206.47 86,206.62C85.99,206.77 85.97,206.92 85.96,207.07C85.95,207.22 85.94,207.37 85.93,207.52C85.92,207.67 85.92,207.83 85.91,207.98C85.9,208.13 85.89,208.28 85.88,208.43C85.87,208.58 85.86,208.73 85.85,208.88C85.84,209.03 85.82,209.19 85.81,209.34C85.8,209.49 85.78,209.64 85.77,209.79C85.76,209.94 85.74,210.09 85.73,210.24C85.71,210.39 85.7,210.55 85.68,210.7C85.66,210.85 85.63,211 85.61,211.15C85.58,211.3 85.56,211.45 85.53,211.6C85.5,211.75 85.47,211.91 85.43,212.06C85.39,212.21 85.35,212.36 85.31,212.51C85.27,212.66 85.22,212.81 85.17,212.96C85.12,213.11 85.08,213.27 85.03,213.42C84.98,213.57 84.94,213.72 84.89,213.87C84.84,214.02 84.79,214.17 84.74,214.32C84.69,214.47 84.64,214.63 84.58,214.78C84.52,214.93 84.45,215.08 84.38,215.23C84.3,215.38 84.23,215.53 84.13,215.68C84.03,215.84 83.92,215.99 83.79,216.14C83.65,216.3 83.5,216.45 83.33,216.59C83.15,216.75 82.94,216.89 82.73,217.04C82.5,217.2 82.24,217.35 81.98,217.5C81.7,217.66 81.41,217.8 81.11,217.95C80.8,218.1 80.48,218.25 80.17,218.4C79.86,218.55 79.55,218.7 79.26,218.86C78.98,219.01 78.7,219.15 78.45,219.31C78.22,219.45 77.99,219.6 77.8,219.76C77.63,219.91 77.47,220.06 77.34,220.22C77.22,220.37 77.12,220.52 77.04,220.67C76.96,220.82 76.9,220.97 76.86,221.12C76.82,221.27 76.8,221.43 76.79,221.58C76.78,221.73 76.78,221.88 76.78,222.03C76.78,222.18 76.8,222.33 76.81,222.48C76.82,222.63 76.83,222.79 76.81,222.94C76.79,223.09 76.77,223.24 76.71,223.39C76.65,223.55 76.55,223.69 76.44,223.84C76.32,224 76.17,224.15 76.01,224.3C75.84,224.46 75.64,224.6 75.44,224.75C75.24,224.9 75.02,225.05 74.82,225.2C74.63,225.35 74.43,225.49 74.28,225.65C74.14,225.8 73.99,225.95 73.92,226.11C73.86,226.25 73.83,226.41 73.85,226.56C73.87,226.71 73.97,226.87 74.07,227.01C74.19,227.17 74.36,227.32 74.53,227.47C74.71,227.63 74.91,227.77 75.1,227.92C75.28,228.07 75.48,228.21 75.64,228.37C75.79,228.52 75.94,228.67 76.06,228.83C76.18,228.98 76.27,229.13 76.37,229.28C76.47,229.43 76.56,229.58 76.67,229.73C76.79,229.89 76.92,230.05 77.08,230.19C77.26,230.35 77.47,230.5 77.7,230.64C77.95,230.8 78.25,230.94 78.54,231.09C78.85,231.25 79.19,231.4 79.52,231.55C79.85,231.7 80.2,231.85 80.53,232C80.84,232.15 81.16,232.29 81.44,232.45C81.7,232.6 81.94,232.75 82.15,232.91C82.33,233.05 82.5,233.2 82.62,233.36C82.72,233.5 82.79,233.66 82.83,233.81C82.86,233.96 82.86,234.12 82.84,234.27C82.82,234.42 82.76,234.57 82.72,234.72C82.67,234.87 82.61,235.02 82.57,235.17C82.53,235.32 82.48,235.48 82.47,235.63C82.46,235.78 82.47,235.93 82.51,236.08C82.55,236.23 82.63,236.38 82.72,236.53C82.82,236.69 82.96,236.84 83.1,236.99C83.25,237.15 83.42,237.29 83.6,237.44C83.78,237.59 83.98,237.74 84.18,237.89C84.38,238.04 84.59,238.2 84.79,238.35C84.99,238.5 85.19,238.65 85.37,238.8Q85.55,238.95 85.87,239.25Z" style="vector-effect: non-scaling-stroke; stroke-width: 2px; stroke: rgb(239, 85, 59); stroke-opacity: 1; fill: rgb(239, 85, 59); fill-opacity: 0.5;"/><path class="violin" d="M225.76,242.5Q227.6,241.97 228.44,241.68C229.2,241.42 229.98,241.17 230.57,240.85C231.04,240.6 231.57,240.35 231.77,240.02C231.92,239.77 231.97,239.45 231.88,239.19C231.77,238.88 231.35,238.62 231,238.36C230.57,238.05 229.99,237.8 229.45,237.53C228.87,237.24 228.22,236.99 227.6,236.71C226.99,236.44 226.35,236.16 225.76,235.88C225.2,235.61 224.65,235.34 224.14,235.05C223.67,234.78 223.22,234.51 222.82,234.22C222.45,233.95 222.11,233.68 221.8,233.39C221.51,233.12 221.25,232.85 221.02,232.56C220.8,232.29 220.61,232.01 220.44,231.73C220.27,231.46 220.13,231.19 219.99,230.91C219.86,230.64 219.74,230.36 219.63,230.08C219.52,229.81 219.43,229.53 219.34,229.25C219.25,228.97 219.17,228.7 219.1,228.42C219.03,228.14 218.97,227.87 218.91,227.59C218.85,227.31 218.81,227.04 218.76,226.76C218.71,226.49 218.67,226.21 218.63,225.94C218.59,225.66 218.56,225.39 218.52,225.11C218.48,224.83 218.45,224.56 218.41,224.28C218.37,224 218.33,223.73 218.29,223.45C218.25,223.17 218.21,222.9 218.17,222.62C218.13,222.34 218.09,222.07 218.05,221.79C218.01,221.52 217.97,221.24 217.94,220.97C217.91,220.69 217.89,220.42 217.86,220.14C217.84,219.86 217.81,219.59 217.79,219.31C217.77,219.03 217.76,218.76 217.75,218.48C217.74,218.2 217.74,217.93 217.73,217.65C217.73,217.37 217.72,217.1 217.72,216.82C217.71,216.54 217.71,216.27 217.7,215.99C217.69,215.72 217.69,215.44 217.68,215.17C217.67,214.89 217.66,214.62 217.65,214.34C217.64,214.06 217.63,213.79 217.62,213.51C217.61,213.23 217.6,212.96 217.59,212.68C217.58,212.4 217.58,212.13 217.58,211.85C217.58,211.57 217.57,211.3 217.57,211.02C217.57,210.75 217.56,210.47 217.56,210.2C217.55,209.92 217.55,209.65 217.54,209.37C217.53,209.09 217.53,208.82 217.52,208.54C217.51,208.26 217.49,207.99 217.48,207.71C217.47,207.43 217.45,207.16 217.44,206.88C217.43,206.6 217.42,206.33 217.41,206.05C217.4,205.77 217.4,205.5 217.39,205.22C217.39,204.95 217.38,204.67 217.38,204.4C217.38,204.12 217.38,203.85 217.38,203.57C217.38,203.29 217.39,203.02 217.39,202.74C217.39,202.46 217.39,202.19 217.39,201.91C217.39,201.63 217.39,201.36 217.39,201.08C217.39,200.8 217.39,200.53 217.39,200.25C217.39,199.98 217.39,199.7 217.39,199.43C217.39,199.15 217.38,198.88 217.38,198.6C217.37,198.32 217.37,198.05 217.36,197.77C217.35,197.49 217.34,197.22 217.33,196.94C217.32,196.66 217.3,196.39 217.29,196.11C217.28,195.83 217.26,195.56 217.25,195.28C217.24,195.01 217.23,194.73 217.22,194.46C217.21,194.18 217.19,193.91 217.19,193.63C217.19,193.35 217.19,193.08 217.19,192.8C217.19,192.52 217.2,192.25 217.21,191.97C217.22,191.69 217.22,191.42 217.23,191.14C217.24,190.86 217.25,190.59 217.25,190.31C217.25,190.03 217.25,189.76 217.24,189.48C217.23,189.21 217.23,188.93 217.21,188.66C217.19,188.38 217.16,188.11 217.13,187.83C217.1,187.55 217.05,187.28 217.01,187C216.96,186.72 216.91,186.45 216.86,186.17Q216.81,185.89 216.69,185.34L215.46,185.34Q215.34,185.89 215.29,186.17C215.24,186.45 215.19,186.72 215.14,187C215.1,187.28 215.05,187.55 215.02,187.83C214.99,188.11 214.96,188.38 214.94,188.66C214.92,188.93 214.92,189.21 214.91,189.48C214.9,189.76 214.9,190.03 214.9,190.31C214.9,190.59 214.91,190.86 214.92,191.14C214.93,191.42 214.93,191.69 214.94,191.97C214.95,192.25 214.96,192.52 214.96,192.8C214.96,193.08 214.96,193.35 214.96,193.63C214.96,193.91 214.94,194.18 214.93,194.46C214.92,194.73 214.91,195.01 214.9,195.28C214.89,195.56 214.87,195.83 214.86,196.11C214.85,196.39 214.83,196.66 214.82,196.94C214.81,197.22 214.8,197.49 214.79,197.77C214.78,198.05 214.78,198.32 214.77,198.6C214.77,198.88 214.76,199.15 214.76,199.43C214.76,199.7 214.76,199.98 214.76,200.25C214.76,200.53 214.76,200.8 214.76,201.08C214.76,201.36 214.76,201.63 214.76,201.91C214.76,202.19 214.76,202.46 214.76,202.74C214.76,203.02 214.77,203.29 214.77,203.57C214.77,203.85 214.77,204.12 214.77,204.4C214.77,204.67 214.76,204.95 214.76,205.22C214.75,205.5 214.75,205.77 214.74,206.05C214.73,206.33 214.72,206.6 214.71,206.88C214.7,207.16 214.68,207.43 214.67,207.71C214.66,207.99 214.64,208.26 214.63,208.54C214.62,208.82 214.62,209.09 214.61,209.37C214.6,209.65 214.6,209.92 214.59,210.2C214.59,210.47 214.58,210.75 214.58,211.02C214.58,211.3 214.57,211.57 214.57,211.85C214.57,212.13 214.57,212.4 214.56,212.68C214.55,212.96 214.54,213.23 214.53,213.51C214.52,213.79 214.51,214.06 214.5,214.34C214.49,214.62 214.48,214.89 214.47,215.17C214.46,215.44 214.46,215.72 214.45,215.99C214.44,216.27 214.44,216.54 214.43,216.82C214.43,217.1 214.42,217.37 214.42,217.65C214.41,217.93 214.41,218.2 214.4,218.48C214.39,218.76 214.38,219.03 214.36,219.31C214.34,219.59 214.31,219.86 214.29,220.14C214.26,220.42 214.24,220.69 214.21,220.97C214.18,221.24 214.14,221.52 214.1,221.79C214.06,222.07 214.02,222.34 213.98,222.62C213.94,222.9 213.9,223.17 213.86,223.45C213.82,223.73 213.78,224 213.74,224.28C213.7,224.56 213.67,224.83 213.63,225.11C213.59,225.39 213.56,225.66 213.52,225.94C213.48,226.21 213.44,226.49 213.39,226.76C213.34,227.04 213.3,227.31 213.24,227.59C213.18,227.87 213.12,228.14 213.05,228.42C212.98,228.7 212.9,228.97 212.81,229.25C212.72,229.53 212.63,229.81 212.52,230.08C212.41,230.36 212.29,230.64 212.16,230.91C212.02,231.19 211.88,231.46 211.71,231.73C211.54,232.01 211.35,232.29 211.13,232.56C210.9,232.85 210.64,233.12 210.35,233.39C210.04,233.68 209.7,233.95 209.33,234.22C208.93,234.51 208.48,234.78 208.01,235.05C207.5,235.34 206.95,235.61 206.39,235.88C205.8,236.16 205.16,236.44 204.55,236.71C203.93,236.99 203.28,237.24 202.7,237.53C202.16,237.8 201.58,238.05 201.15,238.36C200.8,238.62 200.38,238.88 200.27,239.19C200.18,239.45 200.23,239.77 200.38,240.02C200.58,240.35 201.11,240.6 201.58,240.85C202.17,241.17 202.95,241.42 203.71,241.68Q204.55,241.97 206.39,242.5Z" style="vector-effect: non-scaling-stroke; stroke-width: 2px; stroke: rgb(239, 85, 59); stroke-opacity: 1; fill: rgb(239, 85, 59); fill-opacity: 0.5;"/><path class="violin" d="M348.38,275.29Q348.76,273.29 348.89,272.29C349.02,271.29 349.11,270.29 349.15,269.29C349.19,268.29 349.18,267.3 349.14,266.3C349.1,265.3 349.01,264.3 348.91,263.3C348.81,262.3 348.68,261.3 348.56,260.3C348.44,259.3 348.29,258.3 348.17,257.3C348.05,256.3 347.93,255.31 347.82,254.31C347.71,253.31 347.62,252.31 347.53,251.31C347.45,250.31 347.38,249.31 347.31,248.31C347.24,247.31 347.18,246.32 347.13,245.32C347.07,244.32 347.03,243.32 346.98,242.32C346.93,241.32 346.88,240.32 346.84,239.32C346.8,238.32 346.76,237.33 346.72,236.33C346.68,235.33 346.65,234.33 346.62,233.33C346.59,232.33 346.57,231.33 346.55,230.33C346.53,229.33 346.52,228.33 346.51,227.33C346.5,226.33 346.5,225.34 346.5,224.34C346.5,223.34 346.51,222.34 346.51,221.34C346.51,220.34 346.52,219.34 346.52,218.34C346.52,217.34 346.52,216.35 346.52,215.35C346.52,214.35 346.52,213.35 346.52,212.35C346.52,211.35 346.52,210.35 346.51,209.35C346.51,208.35 346.5,207.36 346.49,206.36C346.48,205.36 346.47,204.36 346.46,203.36C346.45,202.36 346.44,201.36 346.42,200.36C346.4,199.36 346.38,198.36 346.35,197.36C346.32,196.36 346.28,195.37 346.24,194.37C346.2,193.37 346.15,192.37 346.09,191.37C346.03,190.37 345.96,189.37 345.9,188.37Q345.84,187.37 345.71,185.38L344.44,185.38Q344.31,187.37 344.25,188.37C344.19,189.37 344.12,190.37 344.06,191.37C344,192.37 343.95,193.37 343.91,194.37C343.87,195.37 343.83,196.36 343.8,197.36C343.77,198.36 343.75,199.36 343.73,200.36C343.71,201.36 343.7,202.36 343.69,203.36C343.68,204.36 343.67,205.36 343.66,206.36C343.65,207.36 343.64,208.35 343.64,209.35C343.63,210.35 343.63,211.35 343.63,212.35C343.63,213.35 343.63,214.35 343.63,215.35C343.63,216.35 343.63,217.34 343.63,218.34C343.63,219.34 343.64,220.34 343.64,221.34C343.64,222.34 343.65,223.34 343.65,224.34C343.65,225.34 343.65,226.33 343.64,227.33C343.63,228.33 343.62,229.33 343.6,230.33C343.58,231.33 343.56,232.33 343.53,233.33C343.5,234.33 343.47,235.33 343.43,236.33C343.39,237.33 343.35,238.32 343.31,239.32C343.27,240.32 343.22,241.32 343.17,242.32C343.12,243.32 343.08,244.32 343.02,245.32C342.97,246.32 342.91,247.31 342.84,248.31C342.77,249.31 342.7,250.31 342.62,251.31C342.53,252.31 342.44,253.31 342.33,254.31C342.22,255.31 342.1,256.3 341.98,257.3C341.86,258.3 341.71,259.3 341.59,260.3C341.47,261.3 341.34,262.3 341.24,263.3C341.14,264.3 341.05,265.3 341.01,266.3C340.97,267.3 340.96,268.29 341,269.29C341.04,270.29 341.13,271.29 341.26,272.29Q341.39,273.29 341.77,275.29Z" style="vector-effect: non-scaling-stroke; stroke-width: 2px; stroke: rgb(239, 85, 59); stroke-opacity: 1; fill: rgb(239, 85, 59); fill-opacity: 0.5;"/><path class="violin" d="M475.12,256.6Q475.32,256.06 475.41,255.79C475.5,255.52 475.59,255.25 475.66,254.98C475.73,254.71 475.8,254.44 475.85,254.17C475.9,253.9 475.94,253.63 475.98,253.36C476.02,253.09 476.04,252.82 476.07,252.55C476.1,252.28 476.13,252.01 476.16,251.74C476.19,251.47 476.22,251.2 476.25,250.93C476.29,250.66 476.33,250.39 476.37,250.12C476.41,249.85 476.46,249.58 476.5,249.31C476.54,249.04 476.58,248.77 476.62,248.5C476.66,248.23 476.7,247.96 476.74,247.69C476.77,247.42 476.8,247.15 476.83,246.88C476.86,246.61 476.88,246.34 476.9,246.07C476.92,245.8 476.95,245.53 476.97,245.26C477,244.99 477.02,244.72 477.05,244.45C477.08,244.18 477.11,243.91 477.15,243.64C477.19,243.37 477.24,243.1 477.3,242.83C477.36,242.56 477.42,242.29 477.5,242.02C477.58,241.75 477.67,241.48 477.77,241.21C477.87,240.94 477.97,240.67 478.08,240.4C478.19,240.13 478.3,239.86 478.41,239.59C478.52,239.32 478.62,239.05 478.73,238.78C478.83,238.51 478.94,238.24 479.04,237.97C479.14,237.7 479.23,237.43 479.32,237.16C479.41,236.89 479.5,236.62 479.58,236.35C479.66,236.08 479.74,235.81 479.81,235.54C479.88,235.27 479.94,235 480,234.73C480.06,234.46 480.11,234.19 480.15,233.92C480.19,233.65 480.21,233.38 480.23,233.11C480.25,232.84 480.26,232.57 480.27,232.3C480.28,232.03 480.28,231.77 480.28,231.5C480.29,231.23 480.28,230.96 480.3,230.69C480.32,230.42 480.34,230.15 480.38,229.88C480.42,229.61 480.48,229.34 480.55,229.07C480.62,228.8 480.7,228.53 480.78,228.26C480.86,227.99 480.95,227.72 481.02,227.45C481.09,227.18 481.15,226.91 481.18,226.64C481.21,226.37 481.22,226.1 481.2,225.83C481.18,225.56 481.14,225.29 481.08,225.02C481.02,224.75 480.93,224.48 480.85,224.21C480.77,223.94 480.67,223.67 480.59,223.4C480.51,223.13 480.43,222.86 480.35,222.59C480.28,222.32 480.21,222.05 480.14,221.78C480.07,221.51 480.01,221.24 479.93,220.97C479.85,220.7 479.77,220.43 479.66,220.16C479.55,219.89 479.43,219.62 479.29,219.35C479.15,219.08 478.98,218.81 478.81,218.54C478.64,218.27 478.44,218 478.26,217.73C478.07,217.46 477.88,217.19 477.7,216.92C477.52,216.65 477.33,216.38 477.16,216.11C476.99,215.84 476.84,215.57 476.69,215.3C476.55,215.03 476.41,214.76 476.29,214.49C476.17,214.22 476.07,213.95 475.97,213.68C475.88,213.41 475.79,213.14 475.72,212.87C475.65,212.6 475.59,212.33 475.53,212.06C475.47,211.79 475.42,211.52 475.38,211.25C475.34,210.98 475.3,210.71 475.27,210.44C475.24,210.17 475.21,209.9 475.18,209.63C475.15,209.36 475.13,209.09 475.11,208.82C475.09,208.55 475.08,208.28 475.06,208.01C475.05,207.74 475.03,207.47 475.02,207.2C475.01,206.93 474.99,206.66 474.98,206.39C474.97,206.12 474.96,205.85 474.95,205.58C474.94,205.31 474.94,205.04 474.93,204.77C474.92,204.5 474.92,204.23 474.91,203.96C474.9,203.69 474.89,203.42 474.88,203.15C474.87,202.88 474.87,202.61 474.86,202.34C474.85,202.07 474.85,201.8 474.84,201.53C474.84,201.26 474.83,200.99 474.83,200.72C474.83,200.45 474.84,200.18 474.84,199.91C474.84,199.64 474.84,199.37 474.84,199.1C474.84,198.83 474.85,198.56 474.85,198.29C474.85,198.02 474.86,197.75 474.86,197.48C474.86,197.21 474.86,196.94 474.86,196.67C474.86,196.4 474.85,196.14 474.85,195.87C474.85,195.6 474.84,195.33 474.84,195.06C474.83,194.79 474.83,194.52 474.82,194.25C474.81,193.98 474.81,193.71 474.8,193.44C474.79,193.17 474.79,192.9 474.78,192.63C474.77,192.36 474.77,192.09 474.76,191.82C474.75,191.55 474.74,191.28 474.73,191.01C474.72,190.74 474.72,190.47 474.71,190.2C474.7,189.93 474.68,189.66 474.67,189.39C474.66,189.12 474.64,188.85 474.63,188.58C474.61,188.31 474.6,188.04 474.58,187.77C474.56,187.5 474.54,187.23 474.52,186.96C474.5,186.69 474.47,186.42 474.44,186.15Q474.41,185.88 474.36,185.34L473.79,185.34Q473.74,185.88 473.71,186.15C473.68,186.42 473.65,186.69 473.63,186.96C473.61,187.23 473.59,187.5 473.57,187.77C473.55,188.04 473.54,188.31 473.52,188.58C473.51,188.85 473.49,189.12 473.48,189.39C473.47,189.66 473.45,189.93 473.44,190.2C473.43,190.47 473.43,190.74 473.42,191.01C473.41,191.28 473.4,191.55 473.39,191.82C473.38,192.09 473.38,192.36 473.37,192.63C473.36,192.9 473.36,193.17 473.35,193.44C473.34,193.71 473.34,193.98 473.33,194.25C473.32,194.52 473.32,194.79 473.31,195.06C473.31,195.33 473.3,195.6 473.3,195.87C473.3,196.14 473.29,196.4 473.29,196.67C473.29,196.94 473.29,197.21 473.29,197.48C473.29,197.75 473.3,198.02 473.3,198.29C473.3,198.56 473.31,198.83 473.31,199.1C473.31,199.37 473.31,199.64 473.31,199.91C473.31,200.18 473.32,200.45 473.32,200.72C473.32,200.99 473.31,201.26 473.31,201.53C473.3,201.8 473.3,202.07 473.29,202.34C473.28,202.61 473.28,202.88 473.27,203.15C473.26,203.42 473.25,203.69 473.24,203.96C473.23,204.23 473.23,204.5 473.22,204.77C473.21,205.04 473.21,205.31 473.2,205.58C473.19,205.85 473.18,206.12 473.17,206.39C473.16,206.66 473.14,206.93 473.13,207.2C473.12,207.47 473.1,207.74 473.09,208.01C473.07,208.28 473.06,208.55 473.04,208.82C473.02,209.09 473,209.36 472.97,209.63C472.94,209.9 472.91,210.17 472.88,210.44C472.85,210.71 472.81,210.98 472.77,211.25C472.73,211.52 472.68,211.79 472.62,212.06C472.56,212.33 472.5,212.6 472.43,212.87C472.36,213.14 472.27,213.41 472.18,213.68C472.08,213.95 471.98,214.22 471.86,214.49C471.74,214.76 471.6,215.03 471.46,215.3C471.31,215.57 471.16,215.84 470.99,216.11C470.82,216.38 470.63,216.65 470.45,216.92C470.27,217.19 470.08,217.46 469.89,217.73C469.71,218 469.51,218.27 469.34,218.54C469.17,218.81 469,219.08 468.86,219.35C468.72,219.62 468.6,219.89 468.49,220.16C468.38,220.43 468.3,220.7 468.22,220.97C468.14,221.24 468.08,221.51 468.01,221.78C467.94,222.05 467.87,222.32 467.8,222.59C467.72,222.86 467.64,223.13 467.56,223.4C467.48,223.67 467.38,223.94 467.3,224.21C467.22,224.48 467.13,224.75 467.07,225.02C467.01,225.29 466.97,225.56 466.95,225.83C466.93,226.1 466.94,226.37 466.97,226.64C467,226.91 467.06,227.18 467.13,227.45C467.2,227.72 467.29,227.99 467.37,228.26C467.45,228.53 467.53,228.8 467.6,229.07C467.67,229.34 467.73,229.61 467.77,229.88C467.81,230.15 467.83,230.42 467.85,230.69C467.87,230.96 467.86,231.23 467.87,231.5C467.87,231.77 467.87,232.03 467.88,232.3C467.89,232.57 467.9,232.84 467.92,233.11C467.94,233.38 467.96,233.65 468,233.92C468.04,234.19 468.09,234.46 468.15,234.73C468.21,235 468.27,235.27 468.34,235.54C468.41,235.81 468.49,236.08 468.57,236.35C468.65,236.62 468.74,236.89 468.83,237.16C468.92,237.43 469.01,237.7 469.11,237.97C469.21,238.24 469.32,238.51 469.42,238.78C469.53,239.05 469.63,239.32 469.74,239.59C469.85,239.86 469.96,240.13 470.07,240.4C470.18,240.67 470.28,240.94 470.38,241.21C470.48,241.48 470.57,241.75 470.65,242.02C470.73,242.29 470.79,242.56 470.85,242.83C470.91,243.1 470.96,243.37 471,243.64C471.04,243.91 471.07,244.18 471.1,244.45C471.13,244.72 471.15,244.99 471.18,245.26C471.2,245.53 471.23,245.8 471.25,246.07C471.27,246.34 471.29,246.61 471.32,246.88C471.35,247.15 471.38,247.42 471.41,247.69C471.45,247.96 471.49,248.23 471.53,248.5C471.57,248.77 471.61,249.04 471.65,249.31C471.69,249.58 471.74,249.85 471.78,250.12C471.82,250.39 471.86,250.66 471.9,250.93C471.93,251.2 471.96,251.47 471.99,251.74C472.02,252.01 472.05,252.28 472.08,252.55C472.11,252.82 472.13,253.09 472.17,253.36C472.21,253.63 472.25,253.9 472.3,254.17C472.35,254.44 472.42,254.71 472.49,254.98C472.56,255.25 472.65,255.52 472.74,255.79Q472.83,256.06 473.03,256.6Z" style="vector-effect: non-scaling-stroke; stroke-width: 2px; stroke: rgb(239, 85, 59); stroke-opacity: 1; fill: rgb(239, 85, 59); fill-opacity: 0.5;"/><path class="box" d="M83.12,225.2H91.03M83.12,229.54H91.03V219.95H83.12ZM87.08,229.54V239.25M87.08,219.95V205.62" style="vector-effect: non-scaling-stroke; stroke-width: 2px; stroke: rgb(239, 85, 59); stroke-opacity: 1; fill: rgb(239, 85, 59); fill-opacity: 0.5;"/><path class="box" d="M212.12,236.8H220.03M212.12,240.05H220.03V223.4H212.12ZM216.08,240.05V242.5M216.08,223.4V198.52" style="vector-effect: non-scaling-stroke; stroke-width: 2px; stroke: rgb(239, 85, 59); stroke-opacity: 1; fill: rgb(239, 85, 59); fill-opacity: 0.5;"/><path class="box" d="M341.12,253.73H349.03M341.12,268.96H349.03V223.71H341.12ZM345.08,268.96V275.29M345.08,223.71V185.38" style="vector-effect: non-scaling-stroke; stroke-width: 2px; stroke: rgb(239, 85, 59); stroke-opacity: 1; fill: rgb(239, 85, 59); fill-opacity: 0.5;"/><path class="box" d="M470.12,228.77H478.03M470.12,237.97H478.03V220.88H470.12ZM474.08,237.97V256.6M474.08,220.88V195.26" style="vector-effect: non-scaling-stroke; stroke-width: 2px; stroke: rgb(239, 85, 59); stroke-opacity: 1; fill: rgb(239, 85, 59); fill-opacity: 0.5;"/><path class="mean" d="M83.12,223.62H91.03" style="fill: none; vector-effect: non-scaling-stroke; stroke-width: 2px; stroke-dasharray: 4px, 2px; stroke: rgb(0, 0, 0); stroke-opacity: 1;"/><path class="mean" d="M212.12,229.26H220.03" style="fill: none; vector-effect: non-scaling-stroke; stroke-width: 2px; stroke-dasharray: 4px, 2px; stroke: rgb(0, 0, 0); stroke-opacity: 1;"/><path class="mean" d="M341.12,245.46H349.03" style="fill: none; vector-effect: non-scaling-stroke; stroke-width: 2px; stroke-dasharray: 4px, 2px; stroke: rgb(0, 0, 0); stroke-opacity: 1;"/><path class="mean" d="M470.12,228.76H478.03" style="fill: none; vector-effect: non-scaling-stroke; stroke-width: 2px; stroke-dasharray: 4px, 2px; stroke: rgb(0, 0, 0); stroke-opacity: 1;"/></g></g></g><g class="overplot"/><path class="xlines-above crisp" d="M0,0" style="fill: none;"/><path class="ylines-above crisp" d="M0,0" style="fill: none;"/><g class="overlines-above"/><g class="xaxislayer-above"><g class="xtick"><text text-anchor="middle" x="0" y="433" transform="translate(144.5,0)" style="font-family: 'Open Sans', verdana, arial, sans-serif; font-size: 12px; fill: rgb(42, 63, 95); fill-opacity: 1; white-space: pre; opacity: 1;">CIFAR10</text></g><g class="xtick"><text text-anchor="middle" x="0" y="433" transform="translate(273.5,0)" style="font-family: 'Open Sans', verdana, arial, sans-serif; font-size: 12px; fill: rgb(42, 63, 95); fill-opacity: 1; white-space: pre; opacity: 1;">CIFAR100</text></g><g class="xtick"><text text-anchor="middle" x="0" y="433" transform="translate(402.5,0)" style="font-family: 'Open Sans', verdana, arial, sans-serif; font-size: 12px; fill: rgb(42, 63, 95); fill-opacity: 1; white-space: pre; opacity: 1;">EMNIST</text></g><g class="xtick"><text text-anchor="middle" x="0" y="433" transform="translate(531.5,0)" style="font-family: 'Open Sans', verdana, arial, sans-serif; font-size: 12px; fill: rgb(42, 63, 95); fill-opacity: 1; white-space: pre; opacity: 1;">FashionMNIST</text></g></g><g class="yaxislayer-above"><g class="ytick"><text text-anchor="end" x="79" y="4.199999999999999" transform="translate(0,368.92)" style="font-family: 'Open Sans', verdana, arial, sans-serif; font-size: 12px; fill: rgb(42, 63, 95); fill-opacity: 1; white-space: pre; opacity: 1;">0.2</text></g><g class="ytick"><text text-anchor="end" x="79" y="4.199999999999999" style="font-family: 'Open Sans', verdana, arial, sans-serif; font-size: 12px; fill: rgb(42, 63, 95); fill-opacity: 1; white-space: pre; opacity: 1;" transform="translate(0,305.43)">0.4</text></g><g class="ytick"><text text-anchor="end" x="79" y="4.199999999999999" style="font-family: 'Open Sans', verdana, arial, sans-serif; font-size: 12px; fill: rgb(42, 63, 95); fill-opacity: 1; white-space: pre; opacity: 1;" transform="translate(0,241.94)">0.6</text></g><g class="ytick"><text text-anchor="end" x="79" y="4.199999999999999" style="font-family: 'Open Sans', verdana, arial, sans-serif; font-size: 12px; fill: rgb(42, 63, 95); fill-opacity: 1; white-space: pre; opacity: 1;" transform="translate(0,178.45)">0.8</text></g><g class="ytick"><text text-anchor="end" x="79" y="4.199999999999999" style="font-family: 'Open Sans', verdana, arial, sans-serif; font-size: 12px; fill: rgb(42, 63, 95); fill-opacity: 1; white-space: pre; opacity: 1;" transform="translate(0,114.96000000000001)">1</text></g></g><g class="overaxes-above"/></g></g><g class="polarlayer"/><g class="smithlayer"/><g class="ternarylayer"/><g class="geolayer"/><g class="funnelarealayer"/><g class="pielayer"/><g class="iciclelayer"/><g class="treemaplayer"/><g class="sunburstlayer"/><g class="glimages"/><defs id="topdefs-2d92a5"><g class="clips"/><clipPath id="legend2d92a5"><rect width="82" height="67" x="0" y="0"/></clipPath></defs><g class="layer-above"><g class="imagelayer"/><g class="shapelayer"/></g><g class="infolayer"><g class="legend" pointer-events="all" transform="translate(606.32,100)"><rect class="bg" shape-rendering="crispEdges" width="82" height="67" x="0" y="0" style="stroke: rgb(68, 68, 68); stroke-opacity: 1; fill: rgb(255, 255, 255); fill-opacity: 1; stroke-width: 0px;"/><g class="scrollbox" transform="" clip-path="url(#legend2d92a5)"><text class="legendtitletext" text-anchor="start" x="2" y="18.2" style="font-family: 'Open Sans', verdana, arial, sans-serif; font-size: 14px; fill: rgb(42, 63, 95); fill-opacity: 1; white-space: pre;">SHAP mode</text><g class="groups"><g class="traces" transform="translate(0,32.7)" style="opacity: 1;"><text class="legendtext" text-anchor="start" x="40" y="4.680000000000001" style="font-family: 'Open Sans', verdana, arial, sans-serif; font-size: 12px; fill: rgb(42, 63, 95); fill-opacity: 1; white-space: pre;">Global</text><g class="layers" style="opacity: 1;"><g class="legendfill"/><g class="legendlines"/><g class="legendsymbols"><g class="legendpoints"><path class="legendbox" d="M6,6H-6V-6H6Z" transform="translate(20,0)" style="stroke-width: 2px; fill: rgb(99, 110, 250); fill-opacity: 0.5; stroke: rgb(99, 110, 250); stroke-opacity: 1;"/></g></g></g><rect class="legendtoggle" x="0" y="-9.5" width="74.6875" height="19" style="fill: rgb(0, 0, 0); fill-opacity: 0;"/></g><g class="traces" transform="translate(0,51.7)" style="opacity: 1;"><text class="legendtext" text-anchor="start" x="40" y="4.680000000000001" style="font-family: 'Open Sans', verdana, arial, sans-serif; font-size: 12px; fill: rgb(42, 63, 95); fill-opacity: 1; white-space: pre;">Local</text><g class="layers" style="opacity: 1;"><g class="legendfill"/><g class="legendlines"/><g class="legendsymbols"><g class="legendpoints"><path class="legendbox" d="M6,6H-6V-6H6Z" transform="translate(20,0)" style="stroke-width: 2px; fill: rgb(239, 85, 59); fill-opacity: 0.5; stroke: rgb(239, 85, 59); stroke-opacity: 1;"/></g></g></g><rect class="legendtoggle" x="0" y="-9.5" width="74.6875" height="19" style="fill: rgb(0, 0, 0); fill-opacity: 0;"/></g></g></g><rect class="scrollbar" rx="20" ry="3" width="0" height="0" x="0" y="0" style="fill: rgb(128, 139, 164); fill-opacity: 1;"/></g><g class="g-gtitle"/><g class="g-xtitle"/><g class="g-ytitle"/></g></svg>