<svg class="main-svg" xmlns="http://www.w3.org/2000/svg" xmlns:xlink="http://www.w3.org/1999/xlink" width="700" height="500" style="" viewBox="0 0 700 500"><rect x="0" y="0" width="700" height="500" style="fill: rgb(255, 255, 255); fill-opacity: 1;"/><defs id="defs-00032b"><g class="clips"><clipPath id="clip00032bxyplot" class="plotclip"><rect width="516" height="320"/></clipPath><clipPath class="axesclip" id="clip00032bx"><rect x="80" y="0" width="516" height="500"/></clipPath><clipPath class="axesclip" id="clip00032by"><rect x="0" y="100" width="700" height="320"/></clipPath><clipPath class="axesclip" id="clip00032bxy"><rect x="80" y="100" width="516" height="320"/></clipPath></g><g class="gradients"/><g class="patterns"/></defs><g class="bglayer"><rect class="bg" x="80" y="100" width="516" height="320" style="fill: rgb(229, 236, 246); fill-opacity: 1; stroke-width: 0;"/></g><g class="layer-below"><g class="imagelayer"/><g class="shapelayer"/></g><g class="cartesianlayer"><g class="subplot xy"><g class="layer-subplot"><g class="shapelayer"/><g class="imagelayer"/></g><g class="gridlayer"><g class="x"/><g class="y"><path class="ygrid crisp" transform="translate(0,370.1)" d="M80,0h516" style="stroke: rgb(255, 255, 255); stroke-opacity: 1; stroke-width: 1px;"/><path class="ygrid crisp" transform="translate(0,306.22)" d="M80,0h516" style="stroke: rgb(255, 255, 255); stroke-opacity: 1; stroke-width: 1px;"/><path class="ygrid crisp" transform="translate(0,242.34)" d="M80,0h516" style="stroke: rgb(255, 255, 255); stroke-opacity: 1; stroke-width: 1px;"/><path class="ygrid crisp" transform="translate(0,178.45999999999998)" d="M80,0h516" style="stroke: rgb(255, 255, 255); stroke-opacity: 1; stroke-width: 1px;"/><path class="ygrid crisp" transform="translate(0,114.58)" d="M80,0h516" style="stroke: rgb(255, 255, 255); stroke-opacity: 1; stroke-width: 1px;"/></g></g><g class="zerolinelayer"/><path class="xlines-below"/><path class="ylines-below"/><g class="overlines-below"/><g class="xaxislayer-below"/><g class="yaxislayer-below"/><g class="overaxes-below"/><g class="plot" transform="translate(80,100)" clip-path="url(#clip00032bxyplot)"><g class="violinlayer mlayer"><g class="trace violins" style="opacity: 1;"><path class="violin" d="M42.68,149.3Q42.82,148.05 42.89,147.43C42.96,146.81 43.03,146.18 43.1,145.56C43.17,144.94 43.23,144.31 43.29,143.69C43.35,143.07 43.39,142.44 43.44,141.82C43.48,141.2 43.53,140.57 43.56,139.95C43.59,139.33 43.61,138.7 43.63,138.08C43.65,137.46 43.66,136.83 43.67,136.21C43.68,135.59 43.68,134.96 43.68,134.34C43.68,133.72 43.69,133.09 43.69,132.47C43.69,131.85 43.69,131.22 43.69,130.6C43.69,129.98 43.7,129.36 43.71,128.74C43.72,128.12 43.73,127.49 43.74,126.87C43.75,126.25 43.77,125.62 43.79,125C43.81,124.38 43.84,123.75 43.86,123.13C43.88,122.51 43.9,121.88 43.93,121.26C43.96,120.64 43.99,120.01 44.02,119.39C44.05,118.77 44.09,118.14 44.12,117.52C44.16,116.9 44.19,116.27 44.23,115.65C44.27,115.03 44.31,114.4 44.35,113.78C44.39,113.16 44.42,112.53 44.46,111.91C44.5,111.29 44.54,110.66 44.57,110.04C44.6,109.42 44.63,108.79 44.66,108.17C44.68,107.55 44.7,106.92 44.72,106.3C44.74,105.68 44.75,105.05 44.76,104.43C44.77,103.81 44.79,103.18 44.8,102.56C44.81,101.94 44.82,101.31 44.83,100.69C44.84,100.07 44.85,99.44 44.87,98.82C44.89,98.2 44.91,97.57 44.93,96.95C44.95,96.33 44.98,95.7 45.01,95.08C45.04,94.46 45.09,93.83 45.13,93.21C45.17,92.59 45.22,91.96 45.27,91.34C45.32,90.72 45.39,90.1 45.45,89.48C45.51,88.86 45.58,88.23 45.64,87.61C45.71,86.99 45.77,86.36 45.84,85.74C45.91,85.12 45.99,84.49 46.06,83.87C46.14,83.25 46.21,82.62 46.29,82C46.37,81.38 46.46,80.75 46.56,80.13C46.66,79.51 46.76,78.88 46.87,78.26C46.98,77.64 47.09,77.01 47.2,76.39C47.32,75.77 47.44,75.14 47.56,74.52C47.68,73.9 47.8,73.27 47.92,72.65C48.04,72.03 48.16,71.4 48.27,70.78C48.38,70.16 48.49,69.53 48.6,68.91C48.71,68.29 48.81,67.66 48.91,67.04C49.01,66.42 49.11,65.79 49.21,65.17C49.31,64.55 49.42,63.92 49.53,63.3C49.64,62.68 49.76,62.05 49.88,61.43C50.01,60.81 50.13,60.18 50.28,59.56C50.43,58.94 50.59,58.31 50.76,57.69C50.93,57.07 51.12,56.44 51.31,55.82C51.5,55.2 51.7,54.57 51.91,53.95C52.12,53.33 52.33,52.7 52.55,52.08C52.77,51.46 53,50.83 53.22,50.21C53.44,49.59 53.66,48.97 53.87,48.35C54.08,47.73 54.29,47.1 54.5,46.48C54.71,45.86 54.91,45.23 55.11,44.61C55.31,43.99 55.49,43.36 55.68,42.74C55.87,42.12 56.05,41.49 56.23,40.87C56.41,40.25 56.59,39.62 56.75,39C56.91,38.38 57.07,37.76 57.21,37.13C57.34,36.51 57.47,35.89 57.56,35.26C57.65,34.64 57.72,34.01 57.73,33.39C57.74,32.77 57.71,32.14 57.62,31.52C57.53,30.89 57.38,30.26 57.16,29.65C56.93,29.01 56.63,28.39 56.27,27.78C55.9,27.14 55.44,26.52 54.95,25.91C54.43,25.27 53.84,24.65 53.24,24.04C52.62,23.41 51.94,22.79 51.27,22.17C50.59,21.54 49.88,20.93 49.21,20.3C48.55,19.68 47.88,19.06 47.26,18.43Q46.66,17.82 45.57,16.56L38.28,16.56Q37.19,17.82 36.59,18.43C35.97,19.06 35.3,19.68 34.64,20.3C33.97,20.93 33.26,21.54 32.58,22.17C31.91,22.79 31.23,23.41 30.61,24.04C30.01,24.65 29.42,25.27 28.9,25.91C28.41,26.52 27.95,27.14 27.58,27.78C27.22,28.39 26.92,29.01 26.69,29.65C26.47,30.26 26.32,30.89 26.23,31.52C26.14,32.14 26.11,32.77 26.12,33.39C26.13,34.01 26.2,34.64 26.29,35.26C26.38,35.89 26.51,36.51 26.64,37.13C26.78,37.76 26.94,38.38 27.1,39C27.26,39.62 27.44,40.25 27.62,40.87C27.8,41.49 27.98,42.12 28.17,42.74C28.36,43.36 28.54,43.99 28.74,44.61C28.94,45.23 29.14,45.86 29.35,46.48C29.56,47.1 29.77,47.73 29.98,48.35C30.19,48.97 30.41,49.59 30.63,50.21C30.85,50.83 31.08,51.46 31.3,52.08C31.52,52.7 31.73,53.33 31.94,53.95C32.15,54.57 32.35,55.2 32.54,55.82C32.73,56.44 32.92,57.07 33.09,57.69C33.26,58.31 33.42,58.94 33.57,59.56C33.72,60.18 33.84,60.81 33.97,61.43C34.09,62.05 34.21,62.68 34.32,63.3C34.43,63.92 34.54,64.55 34.64,65.17C34.74,65.79 34.84,66.42 34.94,67.04C35.04,67.66 35.14,68.29 35.25,68.91C35.36,69.53 35.47,70.16 35.58,70.78C35.69,71.4 35.81,72.03 35.93,72.65C36.05,73.27 36.17,73.9 36.29,74.52C36.41,75.14 36.53,75.77 36.65,76.39C36.76,77.01 36.87,77.64 36.98,78.26C37.09,78.88 37.19,79.51 37.29,80.13C37.39,80.75 37.48,81.38 37.56,82C37.64,82.62 37.71,83.25 37.79,83.87C37.86,84.49 37.94,85.12 38.01,85.74C38.08,86.36 38.14,86.99 38.21,87.61C38.27,88.23 38.34,88.86 38.4,89.48C38.46,90.1 38.53,90.72 38.58,91.34C38.63,91.96 38.68,92.59 38.72,93.21C38.76,93.83 38.81,94.46 38.84,95.08C38.87,95.7 38.9,96.33 38.92,96.95C38.94,97.57 38.96,98.2 38.98,98.82C39,99.44 39.01,100.07 39.02,100.69C39.03,101.31 39.04,101.94 39.05,102.56C39.06,103.18 39.08,103.81 39.09,104.43C39.1,105.05 39.11,105.68 39.13,106.3C39.15,106.92 39.17,107.55 39.19,108.17C39.22,108.79 39.25,109.42 39.28,110.04C39.31,110.66 39.35,111.29 39.39,111.91C39.43,112.53 39.46,113.16 39.5,113.78C39.54,114.4 39.58,115.03 39.62,115.65C39.66,116.27 39.69,116.9 39.73,117.52C39.76,118.14 39.8,118.77 39.83,119.39C39.86,120.01 39.89,120.64 39.92,121.26C39.95,121.88 39.97,122.51 39.99,123.13C40.01,123.75 40.04,124.38 40.06,125C40.08,125.62 40.1,126.25 40.11,126.87C40.12,127.49 40.13,128.12 40.14,128.74C40.15,129.36 40.16,129.98 40.16,130.6C40.16,131.22 40.16,131.85 40.16,132.47C40.16,133.09 40.17,133.72 40.17,134.34C40.17,134.96 40.17,135.59 40.18,136.21C40.19,136.83 40.2,137.46 40.22,138.08C40.24,138.7 40.26,139.33 40.29,139.95C40.32,140.57 40.37,141.2 40.41,141.82C40.46,142.44 40.5,143.07 40.56,143.69C40.62,144.31 40.68,144.94 40.75,145.56C40.82,146.18 40.89,146.81 40.96,147.43Q41.03,148.05 41.17,149.3Z" style="vector-effect: non-scaling-stroke; stroke-width: 2px; stroke: rgb(99, 110, 250); stroke-opacity: 1; fill: rgb(99, 110, 250); fill-opacity: 0.5;"/><path class="violin" d="M171.97,149.3Q172.16,147.93 172.25,147.24C172.34,146.55 172.43,145.86 172.5,145.17C172.57,144.48 172.64,143.8 172.69,143.11C172.74,142.42 172.79,141.73 172.82,141.04C172.85,140.35 172.87,139.67 172.88,138.98C172.89,138.29 172.9,137.61 172.9,136.92C172.9,136.23 172.9,135.54 172.9,134.85C172.9,134.16 172.9,133.48 172.91,132.79C172.92,132.1 172.93,131.42 172.94,130.73C172.96,130.04 172.97,129.35 173,128.66C173.02,127.97 173.06,127.29 173.09,126.6C173.12,125.91 173.15,125.22 173.19,124.53C173.23,123.84 173.27,123.16 173.31,122.47C173.35,121.78 173.39,121.1 173.43,120.41C173.47,119.72 173.52,119.03 173.56,118.34C173.6,117.65 173.65,116.97 173.69,116.28C173.73,115.59 173.78,114.91 173.82,114.22C173.86,113.53 173.9,112.84 173.94,112.15C173.98,111.46 174.01,110.78 174.04,110.09C174.07,109.4 174.1,108.72 174.13,108.03C174.16,107.34 174.19,106.65 174.21,105.96C174.23,105.27 174.25,104.59 174.27,103.9C174.29,103.21 174.31,102.52 174.33,101.83C174.35,101.14 174.37,100.46 174.4,99.77C174.43,99.08 174.45,98.4 174.49,97.71C174.53,97.02 174.57,96.33 174.62,95.64C174.67,94.95 174.72,94.27 174.77,93.58C174.83,92.89 174.89,92.21 174.95,91.52C175.01,90.83 175.07,90.14 175.14,89.45C175.2,88.76 175.27,88.08 175.34,87.39C175.41,86.7 175.47,86.01 175.54,85.32C175.61,84.63 175.69,83.95 175.76,83.26C175.84,82.57 175.91,81.89 175.99,81.2C176.07,80.51 176.14,79.82 176.22,79.13C176.3,78.44 176.39,77.76 176.47,77.07C176.56,76.38 176.64,75.7 176.73,75.01C176.82,74.32 176.9,73.63 176.99,72.94C177.08,72.25 177.18,71.57 177.28,70.88C177.38,70.19 177.47,69.51 177.58,68.82C177.69,68.13 177.81,67.44 177.93,66.75C178.05,66.06 178.18,65.38 178.31,64.69C178.44,64 178.58,63.31 178.73,62.62C178.88,61.93 179.03,61.25 179.19,60.56C179.35,59.87 179.51,59.19 179.67,58.5C179.84,57.81 180.01,57.12 180.18,56.43C180.35,55.74 180.53,55.06 180.71,54.37C180.89,53.68 181.06,53 181.24,52.31C181.42,51.62 181.61,50.93 181.79,50.24C181.97,49.55 182.16,48.87 182.34,48.18C182.52,47.49 182.7,46.8 182.89,46.11C183.07,45.42 183.27,44.74 183.45,44.05C183.63,43.36 183.81,42.68 183.98,41.99C184.15,41.3 184.33,40.61 184.48,39.92C184.63,39.23 184.77,38.55 184.88,37.86C184.99,37.18 185.1,36.49 185.15,35.8C185.2,35.11 185.22,34.42 185.19,33.73C185.16,33.04 185.08,32.35 184.94,31.67C184.8,30.98 184.59,30.29 184.33,29.61C184.06,28.91 183.71,28.22 183.32,27.54C182.92,26.84 182.44,26.16 181.94,25.48C181.42,24.78 180.84,24.09 180.26,23.41C179.67,22.72 179.04,22.04 178.43,21.35C177.82,20.66 177.19,19.99 176.61,19.29Q176.04,18.61 174.97,17.22L166.88,17.22Q165.81,18.61 165.24,19.29C164.66,19.99 164.03,20.66 163.42,21.35C162.81,22.04 162.18,22.72 161.59,23.41C161.01,24.09 160.43,24.78 159.91,25.48C159.41,26.16 158.93,26.84 158.53,27.54C158.14,28.22 157.79,28.91 157.52,29.61C157.26,30.29 157.05,30.98 156.91,31.67C156.77,32.35 156.69,33.04 156.66,33.73C156.63,34.42 156.65,35.11 156.7,35.8C156.75,36.49 156.86,37.18 156.97,37.86C157.08,38.55 157.22,39.23 157.37,39.92C157.52,40.61 157.7,41.3 157.87,41.99C158.04,42.68 158.22,43.36 158.4,44.05C158.58,44.74 158.78,45.42 158.96,46.11C159.15,46.8 159.33,47.49 159.51,48.18C159.69,48.87 159.88,49.55 160.06,50.24C160.24,50.93 160.43,51.62 160.61,52.31C160.79,53 160.96,53.68 161.14,54.37C161.32,55.06 161.5,55.74 161.67,56.43C161.84,57.12 162.01,57.81 162.18,58.5C162.34,59.19 162.5,59.87 162.66,60.56C162.82,61.25 162.97,61.93 163.12,62.62C163.27,63.31 163.41,64 163.54,64.69C163.67,65.38 163.8,66.06 163.92,66.75C164.04,67.44 164.16,68.13 164.27,68.82C164.38,69.51 164.47,70.19 164.57,70.88C164.67,71.57 164.77,72.25 164.86,72.94C164.95,73.63 165.03,74.32 165.12,75.01C165.21,75.7 165.29,76.38 165.38,77.07C165.46,77.76 165.55,78.44 165.63,79.13C165.71,79.82 165.78,80.51 165.86,81.2C165.94,81.89 166.01,82.57 166.09,83.26C166.16,83.95 166.24,84.63 166.31,85.32C166.38,86.01 166.44,86.7 166.51,87.39C166.58,88.08 166.65,88.76 166.71,89.45C166.78,90.14 166.84,90.83 166.9,91.52C166.96,92.21 167.02,92.89 167.08,93.58C167.13,94.27 167.18,94.95 167.23,95.64C167.28,96.33 167.32,97.02 167.36,97.71C167.4,98.4 167.42,99.08 167.45,99.77C167.48,100.46 167.5,101.14 167.52,101.83C167.54,102.52 167.56,103.21 167.58,103.9C167.6,104.59 167.62,105.27 167.64,105.96C167.66,106.65 167.69,107.34 167.72,108.03C167.75,108.72 167.78,109.4 167.81,110.09C167.84,110.78 167.87,111.46 167.91,112.15C167.95,112.84 167.99,113.53 168.03,114.22C168.07,114.91 168.12,115.59 168.16,116.28C168.2,116.97 168.25,117.65 168.29,118.34C168.33,119.03 168.38,119.72 168.42,120.41C168.46,121.1 168.5,121.78 168.54,122.47C168.58,123.16 168.62,123.84 168.66,124.53C168.7,125.22 168.73,125.91 168.76,126.6C168.79,127.29 168.83,127.97 168.85,128.66C168.88,129.35 168.89,130.04 168.91,130.73C168.92,131.42 168.93,132.1 168.94,132.79C168.95,133.48 168.95,134.16 168.95,134.85C168.95,135.54 168.95,136.23 168.95,136.92C168.95,137.61 168.96,138.29 168.97,138.98C168.98,139.67 169,140.35 169.03,141.04C169.06,141.73 169.11,142.42 169.16,143.11C169.21,143.8 169.28,144.48 169.35,145.17C169.42,145.86 169.51,146.55 169.6,147.24Q169.69,147.93 169.88,149.3Z" style="vector-effect: non-scaling-stroke; stroke-width: 2px; stroke: rgb(99, 110, 250); stroke-opacity: 1; fill: rgb(99, 110, 250); fill-opacity: 0.5;"/><path class="violin" d="M300.83,149.31Q300.99,147.94 301.07,147.26C301.14,146.58 301.22,145.9 301.28,145.22C301.34,144.54 301.4,143.86 301.45,143.18C301.5,142.5 301.53,141.81 301.57,141.13C301.6,140.45 301.63,139.77 301.66,139.09C301.69,138.41 301.71,137.73 301.73,137.05C301.75,136.37 301.78,135.69 301.8,135.01C301.82,134.33 301.84,133.64 301.87,132.96C301.9,132.28 301.93,131.6 301.96,130.92C301.99,130.24 302.03,129.56 302.06,128.88C302.1,128.2 302.13,127.51 302.17,126.83C302.21,126.15 302.24,125.47 302.28,124.79C302.31,124.11 302.35,123.43 302.38,122.75C302.41,122.07 302.44,121.38 302.47,120.7C302.5,120.02 302.53,119.34 302.55,118.66C302.57,117.98 302.59,117.3 302.61,116.62C302.63,115.94 302.65,115.26 302.66,114.58C302.68,113.9 302.68,113.21 302.7,112.53C302.71,111.85 302.73,111.17 302.75,110.49C302.77,109.81 302.78,109.13 302.8,108.45C302.82,107.77 302.84,107.08 302.86,106.4C302.88,105.72 302.91,105.04 302.93,104.36C302.96,103.68 302.98,103 303.01,102.32C303.04,101.64 303.07,100.95 303.11,100.27C303.15,99.59 303.19,98.91 303.23,98.23C303.27,97.55 303.32,96.87 303.37,96.19C303.42,95.51 303.48,94.83 303.54,94.15C303.6,93.47 303.66,92.78 303.72,92.1C303.78,91.42 303.84,90.74 303.9,90.06C303.96,89.38 304.02,88.7 304.08,88.02C304.14,87.34 304.2,86.65 304.26,85.97C304.32,85.29 304.38,84.61 304.44,83.93C304.5,83.25 304.55,82.57 304.61,81.89C304.67,81.21 304.72,80.52 304.78,79.84C304.84,79.16 304.89,78.48 304.95,77.8C305.01,77.12 305.07,76.44 305.13,75.76C305.19,75.08 305.25,74.4 305.32,73.72C305.39,73.04 305.47,72.35 305.56,71.67C305.64,70.99 305.73,70.31 305.83,69.63C305.93,68.95 306.05,68.27 306.17,67.59C306.3,66.91 306.43,66.22 306.58,65.54C306.73,64.86 306.88,64.18 307.05,63.5C307.22,62.82 307.4,62.14 307.58,61.46C307.76,60.78 307.95,60.1 308.15,59.42C308.35,58.74 308.55,58.05 308.76,57.37C308.97,56.69 309.18,56.01 309.4,55.33C309.62,54.65 309.84,53.97 310.06,53.29C310.28,52.61 310.51,51.92 310.74,51.24C310.97,50.56 311.21,49.88 311.44,49.2C311.67,48.52 311.91,47.84 312.14,47.16C312.37,46.48 312.6,45.79 312.83,45.11C313.06,44.43 313.28,43.75 313.5,43.07C313.71,42.39 313.93,41.71 314.12,41.03C314.31,40.35 314.48,39.67 314.63,38.99C314.78,38.31 314.91,37.62 315,36.94C315.09,36.26 315.16,35.58 315.17,34.9C315.18,34.22 315.16,33.54 315.07,32.86C314.98,32.17 314.85,31.48 314.65,30.81C314.44,30.12 314.16,29.44 313.83,28.77C313.48,28.08 313.05,27.4 312.59,26.73C312.11,26.03 311.55,25.35 310.97,24.68C310.38,23.99 309.72,23.32 309.07,22.64C308.41,21.96 307.72,21.28 307.06,20.6C306.41,19.92 305.75,19.25 305.15,18.56Q304.56,17.89 303.49,16.51L296.36,16.51Q295.29,17.89 294.7,18.56C294.1,19.25 293.44,19.92 292.79,20.6C292.13,21.28 291.44,21.96 290.78,22.64C290.13,23.32 289.47,23.99 288.88,24.68C288.3,25.35 287.74,26.03 287.26,26.73C286.8,27.4 286.37,28.08 286.02,28.77C285.69,29.44 285.41,30.12 285.2,30.81C285,31.48 284.87,32.17 284.78,32.86C284.69,33.54 284.67,34.22 284.68,34.9C284.69,35.58 284.76,36.26 284.85,36.94C284.94,37.62 285.07,38.31 285.22,38.99C285.37,39.67 285.54,40.35 285.73,41.03C285.92,41.71 286.14,42.39 286.35,43.07C286.57,43.75 286.79,44.43 287.02,45.11C287.25,45.79 287.48,46.48 287.71,47.16C287.94,47.84 288.18,48.52 288.41,49.2C288.64,49.88 288.88,50.56 289.11,51.24C289.34,51.92 289.57,52.61 289.79,53.29C290.01,53.97 290.23,54.65 290.45,55.33C290.67,56.01 290.88,56.69 291.09,57.37C291.3,58.05 291.5,58.74 291.7,59.42C291.9,60.1 292.09,60.78 292.27,61.46C292.45,62.14 292.63,62.82 292.8,63.5C292.97,64.18 293.12,64.86 293.27,65.54C293.42,66.22 293.55,66.91 293.68,67.59C293.8,68.27 293.92,68.95 294.02,69.63C294.12,70.31 294.21,70.99 294.29,71.67C294.38,72.35 294.46,73.04 294.53,73.72C294.6,74.4 294.66,75.08 294.72,75.76C294.78,76.44 294.84,77.12 294.9,77.8C294.96,78.48 295.01,79.16 295.07,79.84C295.13,80.52 295.18,81.21 295.24,81.89C295.3,82.57 295.35,83.25 295.41,83.93C295.47,84.61 295.53,85.29 295.59,85.97C295.65,86.65 295.71,87.34 295.77,88.02C295.83,88.7 295.89,89.38 295.95,90.06C296.01,90.74 296.07,91.42 296.13,92.1C296.19,92.78 296.25,93.47 296.31,94.15C296.37,94.83 296.43,95.51 296.48,96.19C296.53,96.87 296.58,97.55 296.62,98.23C296.66,98.91 296.7,99.59 296.74,100.27C296.78,100.95 296.81,101.64 296.84,102.32C296.87,103 296.89,103.68 296.92,104.36C296.94,105.04 296.97,105.72 296.99,106.4C297.01,107.08 297.03,107.77 297.05,108.45C297.07,109.13 297.08,109.81 297.1,110.49C297.12,111.17 297.14,111.85 297.15,112.53C297.17,113.21 297.17,113.9 297.19,114.58C297.2,115.26 297.22,115.94 297.24,116.62C297.26,117.3 297.28,117.98 297.3,118.66C297.32,119.34 297.35,120.02 297.38,120.7C297.41,121.38 297.44,122.07 297.47,122.75C297.5,123.43 297.54,124.11 297.57,124.79C297.61,125.47 297.64,126.15 297.68,126.83C297.72,127.51 297.75,128.2 297.79,128.88C297.82,129.56 297.86,130.24 297.89,130.92C297.92,131.6 297.95,132.28 297.98,132.96C298.01,133.64 298.03,134.33 298.05,135.01C298.07,135.69 298.1,136.37 298.12,137.05C298.14,137.73 298.16,138.41 298.19,139.09C298.22,139.77 298.25,140.45 298.28,141.13C298.32,141.81 298.35,142.5 298.4,143.18C298.45,143.86 298.51,144.54 298.57,145.22C298.63,145.9 298.71,146.58 298.78,147.26Q298.86,147.94 299.02,149.31Z" style="vector-effect: non-scaling-stroke; stroke-width: 2px; stroke: rgb(99, 110, 250); stroke-opacity: 1; fill: rgb(99, 110, 250); fill-opacity: 0.5;"/><path class="violin" d="M429.89,149.36Q430.06,147.99 430.15,147.31C430.23,146.63 430.32,145.95 430.4,145.27C430.48,144.59 430.55,143.9 430.62,143.22C430.69,142.54 430.75,141.86 430.8,141.18C430.85,140.5 430.9,139.81 430.94,139.13C430.98,138.45 431.01,137.77 431.04,137.09C431.07,136.41 431.09,135.72 431.11,135.04C431.13,134.36 431.14,133.68 431.15,133C431.17,132.32 431.18,131.63 431.2,130.95C431.22,130.27 431.23,129.59 431.25,128.91C431.27,128.23 431.3,127.54 431.33,126.86C431.36,126.18 431.39,125.5 431.43,124.82C431.47,124.14 431.52,123.45 431.57,122.77C431.62,122.09 431.67,121.41 431.72,120.73C431.77,120.05 431.83,119.36 431.88,118.68C431.93,118 431.98,117.32 432.03,116.64C432.08,115.96 432.13,115.27 432.18,114.59C432.23,113.91 432.28,113.23 432.33,112.55C432.38,111.87 432.42,111.18 432.47,110.5C432.52,109.82 432.56,109.14 432.61,108.46C432.66,107.78 432.71,107.1 432.75,106.42C432.8,105.74 432.84,105.05 432.88,104.37C432.92,103.69 432.96,103.01 432.99,102.33C433.03,101.65 433.06,100.96 433.09,100.28C433.12,99.6 433.15,98.92 433.18,98.24C433.21,97.56 433.24,96.87 433.28,96.19C433.32,95.51 433.36,94.83 433.41,94.15C433.46,93.47 433.5,92.78 433.56,92.1C433.62,91.42 433.68,90.74 433.75,90.06C433.82,89.38 433.89,88.69 433.96,88.01C434.03,87.33 434.11,86.65 434.18,85.97C434.25,85.29 434.32,84.6 434.39,83.92C434.46,83.24 434.52,82.56 434.59,81.88C434.66,81.2 434.73,80.51 434.8,79.83C434.87,79.15 434.95,78.47 435.03,77.79C435.11,77.11 435.2,76.42 435.3,75.74C435.4,75.06 435.51,74.38 435.63,73.7C435.75,73.02 435.87,72.33 436,71.65C436.13,70.97 436.27,70.29 436.41,69.61C436.55,68.93 436.69,68.24 436.82,67.56C436.95,66.88 437.08,66.2 437.21,65.52C437.34,64.84 437.47,64.15 437.59,63.47C437.71,62.79 437.83,62.11 437.95,61.43C438.07,60.75 438.18,60.06 438.31,59.38C438.43,58.7 438.57,58.02 438.7,57.34C438.84,56.66 438.98,55.97 439.12,55.29C439.26,54.61 439.41,53.93 439.56,53.25C439.71,52.57 439.87,51.88 440.02,51.2C440.17,50.52 440.32,49.84 440.47,49.16C440.62,48.48 440.76,47.79 440.91,47.11C441.05,46.43 441.21,45.75 441.34,45.07C441.48,44.39 441.6,43.7 441.72,43.02C441.84,42.34 441.95,41.66 442.04,40.98C442.12,40.3 442.2,39.62 442.23,38.94C442.26,38.26 442.26,37.57 442.22,36.89C442.18,36.21 442.1,35.53 441.97,34.85C441.83,34.16 441.64,33.47 441.41,32.8C441.17,32.11 440.87,31.43 440.54,30.76C440.2,30.07 439.79,29.38 439.37,28.71C438.94,28.02 438.45,27.35 437.96,26.67C437.46,25.98 436.93,25.3 436.41,24.62C435.89,23.94 435.35,23.26 434.83,22.58C434.32,21.9 433.8,21.22 433.33,20.53Q432.87,19.86 432.02,18.49L425.83,18.49Q424.98,19.86 424.52,20.53C424.05,21.22 423.53,21.9 423.02,22.58C422.5,23.26 421.96,23.94 421.44,24.62C420.92,25.3 420.39,25.98 419.89,26.67C419.4,27.35 418.91,28.02 418.48,28.71C418.06,29.38 417.65,30.07 417.31,30.76C416.98,31.43 416.68,32.11 416.44,32.8C416.21,33.47 416.02,34.16 415.88,34.85C415.75,35.53 415.67,36.21 415.63,36.89C415.59,37.57 415.59,38.26 415.62,38.94C415.65,39.62 415.73,40.3 415.81,40.98C415.9,41.66 416.01,42.34 416.13,43.02C416.25,43.7 416.37,44.39 416.51,45.07C416.64,45.75 416.8,46.43 416.94,47.11C417.09,47.79 417.23,48.48 417.38,49.16C417.53,49.84 417.68,50.52 417.83,51.2C417.98,51.88 418.14,52.57 418.29,53.25C418.44,53.93 418.59,54.61 418.73,55.29C418.87,55.97 419.01,56.66 419.15,57.34C419.28,58.02 419.42,58.7 419.54,59.38C419.67,60.06 419.78,60.75 419.9,61.43C420.02,62.11 420.14,62.79 420.26,63.47C420.38,64.15 420.51,64.84 420.64,65.52C420.77,66.2 420.9,66.88 421.03,67.56C421.16,68.24 421.3,68.93 421.44,69.61C421.58,70.29 421.72,70.97 421.85,71.65C421.98,72.33 422.1,73.02 422.22,73.7C422.34,74.38 422.45,75.06 422.55,75.74C422.65,76.42 422.74,77.11 422.82,77.79C422.9,78.47 422.98,79.15 423.05,79.83C423.12,80.51 423.19,81.2 423.26,81.88C423.33,82.56 423.39,83.24 423.46,83.92C423.53,84.6 423.6,85.29 423.67,85.97C423.74,86.65 423.82,87.33 423.89,88.01C423.96,88.69 424.03,89.38 424.1,90.06C424.17,90.74 424.23,91.42 424.29,92.1C424.35,92.78 424.39,93.47 424.44,94.15C424.49,94.83 424.53,95.51 424.57,96.19C424.61,96.87 424.64,97.56 424.67,98.24C424.7,98.92 424.73,99.6 424.76,100.28C424.79,100.96 424.82,101.65 424.86,102.33C424.89,103.01 424.93,103.69 424.97,104.37C425.01,105.05 425.05,105.74 425.1,106.42C425.14,107.1 425.19,107.78 425.24,108.46C425.29,109.14 425.33,109.82 425.38,110.5C425.43,111.18 425.47,111.87 425.52,112.55C425.57,113.23 425.62,113.91 425.67,114.59C425.72,115.27 425.77,115.96 425.82,116.64C425.87,117.32 425.92,118 425.97,118.68C426.02,119.36 426.08,120.05 426.13,120.73C426.18,121.41 426.23,122.09 426.28,122.77C426.33,123.45 426.38,124.14 426.42,124.82C426.46,125.5 426.49,126.18 426.52,126.86C426.55,127.54 426.58,128.23 426.6,128.91C426.62,129.59 426.63,130.27 426.65,130.95C426.67,131.63 426.68,132.32 426.7,133C426.71,133.68 426.72,134.36 426.74,135.04C426.76,135.72 426.78,136.41 426.81,137.09C426.84,137.77 426.87,138.45 426.91,139.13C426.95,139.81 427,140.5 427.05,141.18C427.1,141.86 427.16,142.54 427.23,143.22C427.3,143.9 427.37,144.59 427.45,145.27C427.53,145.95 427.62,146.63 427.7,147.31Q427.79,147.99 427.96,149.36Z" style="vector-effect: non-scaling-stroke; stroke-width: 2px; stroke: rgb(99, 110, 250); stroke-opacity: 1; fill: rgb(99, 110, 250); fill-opacity: 0.5;"/><path class="box" d="M37.97,47.9H45.88M37.97,72.85H45.88V33.46H37.97ZM41.93,72.85V131.93M41.93,33.46V16.56" style="vector-effect: non-scaling-stroke; stroke-width: 2px; stroke: rgb(99, 110, 250); stroke-opacity: 1; fill: rgb(99, 110, 250); fill-opacity: 0.5;"/><path class="box" d="M166.97,51.26H174.88M166.97,79.5H174.88V34.94H166.97ZM170.93,79.5V146.3M170.93,34.94V17.22" style="vector-effect: non-scaling-stroke; stroke-width: 2px; stroke: rgb(99, 110, 250); stroke-opacity: 1; fill: rgb(99, 110, 250); fill-opacity: 0.5;"/><path class="box" d="M295.97,49.19H303.88M295.97,77.38H303.88V34.52H295.97ZM299.92,77.38V141.44M299.92,34.52V16.51" style="vector-effect: non-scaling-stroke; stroke-width: 2px; stroke: rgb(99, 110, 250); stroke-opacity: 1; fill: rgb(99, 110, 250); fill-opacity: 0.5;"/><path class="box" d="M424.97,56.06H432.88M424.97,84.29H432.88V38.82H424.97ZM428.93,84.29V149.36M428.93,38.82V18.49" style="vector-effect: non-scaling-stroke; stroke-width: 2px; stroke: rgb(99, 110, 250); stroke-opacity: 1; fill: rgb(99, 110, 250); fill-opacity: 0.5;"/><path class="mean" d="M37.97,57.4H45.88" style="fill: none; vector-effect: non-scaling-stroke; stroke-width: 2px; stroke-dasharray: 4px, 2px; stroke: rgb(0, 0, 0); stroke-opacity: 1;"/><path class="mean" d="M166.97,60.7H174.88" style="fill: none; vector-effect: non-scaling-stroke; stroke-width: 2px; stroke-dasharray: 4px, 2px; stroke: rgb(0, 0, 0); stroke-opacity: 1;"/><path class="mean" d="M295.97,59.19H303.88" style="fill: none; vector-effect: non-scaling-stroke; stroke-width: 2px; stroke-dasharray: 4px, 2px; stroke: rgb(0, 0, 0); stroke-opacity: 1;"/><path class="mean" d="M424.97,64.37H432.88" style="fill: none; vector-effect: non-scaling-stroke; stroke-width: 2px; stroke-dasharray: 4px, 2px; stroke: rgb(0, 0, 0); stroke-opacity: 1;"/></g><g class="trace violins" style="opacity: 1;"><path class="violin" d="M87.33,303.82Q87.38,301.85 87.41,300.86C87.44,299.87 87.47,298.88 87.5,297.89C87.53,296.9 87.56,295.91 87.59,294.92C87.62,293.93 87.65,292.94 87.67,291.95C87.69,290.96 87.71,289.98 87.73,288.99C87.75,288 87.76,287.01 87.77,286.02C87.78,285.03 87.79,284.04 87.79,283.05C87.79,282.06 87.79,281.08 87.79,280.09C87.79,279.1 87.79,278.11 87.79,277.12C87.79,276.13 87.79,275.14 87.79,274.15C87.79,273.16 87.8,272.17 87.8,271.18C87.8,270.19 87.81,269.21 87.81,268.22C87.82,267.23 87.82,266.24 87.83,265.25C87.83,264.26 87.84,263.27 87.84,262.28C87.84,261.29 87.85,260.3 87.85,259.31C87.85,258.32 87.86,257.34 87.86,256.35C87.86,255.36 87.86,254.37 87.86,253.38C87.86,252.39 87.85,251.4 87.85,250.41C87.85,249.42 87.85,248.44 87.85,247.45C87.85,246.46 87.84,245.47 87.84,244.48C87.83,243.49 87.83,242.5 87.82,241.51C87.82,240.52 87.81,239.53 87.81,238.54C87.81,237.55 87.8,236.57 87.8,235.58C87.8,234.59 87.8,233.6 87.8,232.61C87.8,231.62 87.81,230.63 87.81,229.64C87.81,228.65 87.82,227.67 87.82,226.68C87.83,225.69 87.83,224.7 87.84,223.71C87.85,222.72 87.85,221.73 87.86,220.74C87.87,219.75 87.88,218.76 87.88,217.77C87.88,216.78 87.88,215.8 87.88,214.81C87.88,213.82 87.89,212.83 87.89,211.84C87.89,210.85 87.88,209.86 87.88,208.87C87.88,207.88 87.88,206.89 87.88,205.9C87.88,204.91 87.87,203.93 87.87,202.94C87.87,201.95 87.88,200.96 87.88,199.97C87.88,198.98 87.88,197.99 87.88,197C87.88,196.01 87.89,195.03 87.9,194.04C87.91,193.05 87.91,192.06 87.92,191.07C87.93,190.08 87.93,189.09 87.94,188.1C87.95,187.11 87.95,186.12 87.96,185.13C87.96,184.14 87.97,183.16 87.97,182.17C87.97,181.18 87.98,180.19 87.98,179.2C87.99,178.21 87.99,177.22 88,176.23C88,175.24 88,174.25 88.01,173.26C88.02,172.27 88.03,171.29 88.04,170.3C88.05,169.31 88.06,168.32 88.07,167.33C88.08,166.34 88.1,165.35 88.11,164.36C88.12,163.37 88.13,162.39 88.14,161.4C88.15,160.41 88.16,159.42 88.16,158.43C88.16,157.44 88.16,156.45 88.16,155.46C88.16,154.47 88.16,153.48 88.16,152.49C88.16,151.5 88.15,150.52 88.14,149.53C88.13,148.54 88.13,147.55 88.12,146.56C88.11,145.57 88.1,144.58 88.1,143.59C88.1,142.6 88.1,141.61 88.1,140.62C88.1,139.63 88.1,138.65 88.1,137.66C88.1,136.67 88.11,135.68 88.12,134.69C88.13,133.7 88.13,132.71 88.14,131.72C88.15,130.73 88.15,129.75 88.16,128.76C88.17,127.77 88.18,126.78 88.19,125.79C88.2,124.8 88.22,123.81 88.23,122.82C88.24,121.83 88.26,120.84 88.27,119.85C88.28,118.86 88.29,117.88 88.31,116.89C88.33,115.9 88.35,114.91 88.37,113.92C88.39,112.93 88.42,111.94 88.45,110.95C88.48,109.96 88.5,108.97 88.53,107.98C88.56,106.99 88.58,106.01 88.61,105.02C88.64,104.03 88.66,103.04 88.69,102.05C88.71,101.06 88.74,100.07 88.76,99.08C88.78,98.09 88.8,97.11 88.82,96.12C88.84,95.13 88.85,94.14 88.87,93.15C88.89,92.16 88.92,91.17 88.94,90.18C88.96,89.19 88.98,88.2 89.01,87.21C89.03,86.22 89.06,85.24 89.09,84.25C89.12,83.26 89.15,82.27 89.19,81.28C89.23,80.29 89.27,79.3 89.31,78.31C89.35,77.32 89.4,76.34 89.45,75.35C89.5,74.36 89.55,73.37 89.61,72.38C89.67,71.39 89.75,70.4 89.83,69.41C89.91,68.42 90,67.43 90.11,66.44C90.22,65.45 90.35,64.47 90.49,63.48C90.64,62.49 90.79,61.5 90.98,60.51C91.17,59.52 91.38,58.53 91.62,57.54C91.86,56.55 92.12,55.55 92.42,54.57C92.72,53.58 93.06,52.59 93.42,51.61C93.79,50.62 94.19,49.62 94.62,48.64C95.06,47.64 95.54,46.65 96.04,45.67C96.54,44.68 97.08,43.69 97.62,42.71C98.16,41.72 98.74,40.73 99.28,39.74C99.82,38.75 100.38,37.77 100.86,36.77C101.33,35.79 101.8,34.8 102.14,33.8C102.47,32.83 102.76,31.84 102.88,30.84C103,29.86 103.01,28.85 102.86,27.87C102.71,26.87 102.39,25.87 101.97,24.9C101.53,23.88 100.92,22.9 100.27,21.93C99.59,20.92 98.77,19.95 97.97,18.97Q97.15,17.97 95.42,16L78.73,16Q77,17.97 76.18,18.97C75.38,19.95 74.56,20.92 73.88,21.93C73.23,22.9 72.62,23.88 72.18,24.9C71.76,25.87 71.44,26.87 71.29,27.87C71.14,28.85 71.15,29.86 71.27,30.84C71.39,31.84 71.68,32.83 72.01,33.8C72.35,34.8 72.82,35.79 73.29,36.77C73.77,37.77 74.33,38.75 74.87,39.74C75.41,40.73 75.99,41.72 76.53,42.71C77.07,43.69 77.61,44.68 78.11,45.67C78.61,46.65 79.09,47.64 79.53,48.64C79.96,49.62 80.36,50.62 80.73,51.61C81.09,52.59 81.43,53.58 81.73,54.57C82.03,55.55 82.29,56.55 82.53,57.54C82.77,58.53 82.98,59.52 83.17,60.51C83.36,61.5 83.51,62.49 83.66,63.48C83.8,64.47 83.93,65.45 84.04,66.44C84.15,67.43 84.24,68.42 84.32,69.41C84.4,70.4 84.48,71.39 84.54,72.38C84.6,73.37 84.65,74.36 84.7,75.35C84.75,76.34 84.8,77.32 84.84,78.31C84.88,79.3 84.92,80.29 84.96,81.28C85,82.27 85.03,83.26 85.06,84.25C85.09,85.24 85.12,86.22 85.14,87.21C85.17,88.2 85.19,89.19 85.21,90.18C85.23,91.17 85.26,92.16 85.28,93.15C85.3,94.14 85.31,95.13 85.33,96.12C85.35,97.11 85.37,98.09 85.39,99.08C85.41,100.07 85.44,101.06 85.46,102.05C85.49,103.04 85.51,104.03 85.54,105.02C85.57,106.01 85.59,106.99 85.62,107.98C85.65,108.97 85.67,109.96 85.7,110.95C85.73,111.94 85.76,112.93 85.78,113.92C85.8,114.91 85.82,115.9 85.84,116.89C85.86,117.88 85.87,118.86 85.88,119.85C85.89,120.84 85.91,121.83 85.92,122.82C85.93,123.81 85.95,124.8 85.96,125.79C85.97,126.78 85.98,127.77 85.99,128.76C86,129.75 86,130.73 86.01,131.72C86.02,132.71 86.02,133.7 86.03,134.69C86.04,135.68 86.05,136.67 86.05,137.66C86.05,138.65 86.05,139.63 86.05,140.62C86.05,141.61 86.05,142.6 86.05,143.59C86.05,144.58 86.04,145.57 86.03,146.56C86.02,147.55 86.02,148.54 86.01,149.53C86,150.52 85.99,151.5 85.99,152.49C85.99,153.48 85.99,154.47 85.99,155.46C85.99,156.45 85.99,157.44 85.99,158.43C85.99,159.42 86,160.41 86.01,161.4C86.02,162.39 86.03,163.37 86.04,164.36C86.05,165.35 86.07,166.34 86.08,167.33C86.09,168.32 86.1,169.31 86.11,170.3C86.12,171.29 86.13,172.27 86.14,173.26C86.15,174.25 86.15,175.24 86.15,176.23C86.16,177.22 86.16,178.21 86.17,179.2C86.17,180.19 86.18,181.18 86.18,182.17C86.18,183.16 86.19,184.14 86.19,185.13C86.2,186.12 86.2,187.11 86.21,188.1C86.22,189.09 86.22,190.08 86.23,191.07C86.24,192.06 86.24,193.05 86.25,194.04C86.26,195.03 86.27,196.01 86.27,197C86.27,197.99 86.27,198.98 86.27,199.97C86.27,200.96 86.28,201.95 86.28,202.94C86.28,203.93 86.27,204.91 86.27,205.9C86.27,206.89 86.27,207.88 86.27,208.87C86.27,209.86 86.26,210.85 86.26,211.84C86.26,212.83 86.27,213.82 86.27,214.81C86.27,215.8 86.27,216.78 86.27,217.77C86.27,218.76 86.28,219.75 86.29,220.74C86.3,221.73 86.3,222.72 86.31,223.71C86.32,224.7 86.32,225.69 86.33,226.68C86.33,227.67 86.34,228.65 86.34,229.64C86.34,230.63 86.35,231.62 86.35,232.61C86.35,233.6 86.35,234.59 86.35,235.58C86.35,236.57 86.34,237.55 86.34,238.54C86.34,239.53 86.33,240.52 86.33,241.51C86.32,242.5 86.32,243.49 86.31,244.48C86.31,245.47 86.3,246.46 86.3,247.45C86.3,248.44 86.3,249.42 86.3,250.41C86.3,251.4 86.29,252.39 86.29,253.38C86.29,254.37 86.29,255.36 86.29,256.35C86.29,257.34 86.3,258.32 86.3,259.31C86.3,260.3 86.31,261.29 86.31,262.28C86.31,263.27 86.32,264.26 86.32,265.25C86.33,266.24 86.33,267.23 86.34,268.22C86.34,269.21 86.35,270.19 86.35,271.18C86.35,272.17 86.36,273.16 86.36,274.15C86.36,275.14 86.36,276.13 86.36,277.12C86.36,278.11 86.36,279.1 86.36,280.09C86.36,281.08 86.36,282.06 86.36,283.05C86.36,284.04 86.37,285.03 86.38,286.02C86.39,287.01 86.4,288 86.42,288.99C86.44,289.98 86.46,290.96 86.48,291.95C86.5,292.94 86.53,293.93 86.56,294.92C86.59,295.91 86.62,296.9 86.65,297.89C86.68,298.88 86.71,299.87 86.74,300.86Q86.77,301.85 86.82,303.82Z" style="vector-effect: non-scaling-stroke; stroke-width: 2px; stroke: rgb(239, 85, 59); stroke-opacity: 1; fill: rgb(239, 85, 59); fill-opacity: 0.5;"/><path class="violin" d="M216.47,304Q216.53,301.93 216.56,300.9C216.58,299.87 216.61,298.84 216.62,297.81C216.64,296.78 216.64,295.74 216.65,294.71C216.66,293.68 216.67,292.65 216.67,291.62C216.67,290.59 216.66,289.55 216.66,288.52C216.66,287.49 216.65,286.45 216.65,285.42C216.65,284.39 216.64,283.36 216.64,282.33C216.64,281.3 216.64,280.26 216.64,279.23C216.64,278.2 216.65,277.17 216.65,276.14C216.66,275.11 216.66,274.07 216.67,273.04C216.68,272.01 216.68,270.97 216.69,269.94C216.7,268.91 216.7,267.88 216.71,266.85C216.72,265.82 216.72,264.78 216.73,263.75C216.74,262.72 216.75,261.69 216.75,260.66C216.76,259.63 216.76,258.59 216.76,257.56C216.77,256.53 216.77,255.49 216.78,254.46C216.78,253.43 216.79,252.4 216.79,251.37C216.8,250.34 216.8,249.3 216.81,248.27C216.82,247.24 216.82,246.2 216.83,245.17C216.84,244.14 216.84,243.11 216.85,242.08C216.86,241.05 216.86,240.01 216.87,238.98C216.88,237.95 216.89,236.92 216.89,235.89C216.89,234.86 216.89,233.82 216.89,232.79C216.89,231.76 216.88,230.72 216.88,229.69C216.88,228.66 216.87,227.63 216.87,226.6C216.87,225.57 216.86,224.53 216.86,223.5C216.86,222.47 216.85,221.44 216.85,220.41C216.85,219.38 216.85,218.34 216.85,217.31C216.85,216.28 216.85,215.24 216.85,214.21C216.85,213.18 216.86,212.15 216.86,211.12C216.86,210.09 216.86,209.05 216.86,208.02C216.86,206.99 216.86,205.96 216.86,204.93C216.86,203.9 216.86,202.86 216.86,201.83C216.86,200.8 216.86,199.76 216.86,198.73C216.86,197.7 216.86,196.67 216.86,195.64C216.86,194.61 216.86,193.57 216.86,192.54C216.86,191.51 216.86,190.48 216.86,189.45C216.86,188.42 216.87,187.38 216.87,186.35C216.87,185.32 216.87,184.28 216.87,183.25C216.87,182.22 216.87,181.19 216.87,180.16C216.87,179.13 216.88,178.09 216.88,177.06C216.88,176.03 216.88,175 216.88,173.97C216.88,172.94 216.89,171.9 216.89,170.87C216.89,169.84 216.89,168.8 216.9,167.77C216.9,166.74 216.91,165.71 216.92,164.68C216.93,163.65 216.93,162.61 216.94,161.58C216.95,160.55 216.96,159.52 216.97,158.49C216.98,157.46 217,156.42 217.01,155.39C217.03,154.36 217.04,153.32 217.06,152.29C217.07,151.26 217.08,150.23 217.1,149.2C217.12,148.17 217.14,147.13 217.16,146.1C217.18,145.07 217.2,144.04 217.22,143.01C217.24,141.98 217.27,140.94 217.29,139.91C217.32,138.88 217.34,137.84 217.37,136.81C217.39,135.78 217.42,134.75 217.44,133.72C217.46,132.69 217.49,131.65 217.51,130.62C217.53,129.59 217.54,128.55 217.56,127.52C217.57,126.49 217.59,125.46 217.6,124.43C217.61,123.4 217.62,122.36 217.63,121.33C217.64,120.3 217.64,119.27 217.65,118.24C217.66,117.21 217.66,116.17 217.67,115.14C217.68,114.11 217.68,113.07 217.69,112.04C217.7,111.01 217.71,109.98 217.72,108.95C217.73,107.92 217.73,106.88 217.74,105.85C217.75,104.82 217.76,103.79 217.77,102.76C217.78,101.73 217.79,100.69 217.8,99.66C217.81,98.63 217.83,97.59 217.84,96.56C217.85,95.53 217.87,94.5 217.88,93.47C217.9,92.44 217.91,91.4 217.93,90.37C217.95,89.34 217.98,88.31 218,87.28C218.03,86.25 218.05,85.21 218.08,84.18C218.11,83.15 218.13,82.11 218.17,81.08C218.21,80.05 218.25,79.02 218.3,77.99C218.35,76.96 218.39,75.92 218.45,74.89C218.51,73.86 218.58,72.83 218.65,71.8C218.73,70.77 218.81,69.73 218.9,68.7C219,67.67 219.1,66.63 219.22,65.6C219.34,64.57 219.47,63.54 219.63,62.51C219.79,61.48 219.97,60.44 220.18,59.41C220.39,58.38 220.62,57.35 220.89,56.32C221.16,55.28 221.47,54.25 221.81,53.22C222.16,52.18 222.54,51.15 222.96,50.12C223.38,49.08 223.85,48.06 224.34,47.03C224.83,45.99 225.36,44.96 225.89,43.93C226.42,42.9 227,41.87 227.54,40.84C228.08,39.81 228.64,38.78 229.13,37.74C229.61,36.71 230.1,35.69 230.46,34.64C230.81,33.62 231.13,32.59 231.29,31.55C231.45,30.53 231.51,29.48 231.41,28.45C231.31,27.41 231.05,26.36 230.69,25.35C230.31,24.3 229.76,23.27 229.16,22.26C228.54,21.2 227.76,20.18 227,19.16Q226.22,18.12 224.53,16.07L207.62,16.07Q205.93,18.12 205.15,19.16C204.39,20.18 203.61,21.2 202.99,22.26C202.39,23.27 201.84,24.3 201.46,25.35C201.1,26.36 200.84,27.41 200.74,28.45C200.64,29.48 200.7,30.53 200.86,31.55C201.02,32.59 201.34,33.62 201.69,34.64C202.05,35.69 202.54,36.71 203.02,37.74C203.51,38.78 204.07,39.81 204.61,40.84C205.15,41.87 205.73,42.9 206.26,43.93C206.79,44.96 207.32,45.99 207.81,47.03C208.3,48.06 208.77,49.08 209.19,50.12C209.61,51.15 209.99,52.18 210.34,53.22C210.68,54.25 210.99,55.28 211.26,56.32C211.53,57.35 211.76,58.38 211.97,59.41C212.18,60.44 212.36,61.48 212.52,62.51C212.68,63.54 212.81,64.57 212.93,65.6C213.05,66.63 213.15,67.67 213.25,68.7C213.34,69.73 213.42,70.77 213.5,71.8C213.57,72.83 213.64,73.86 213.7,74.89C213.76,75.92 213.8,76.96 213.85,77.99C213.9,79.02 213.94,80.05 213.98,81.08C214.02,82.11 214.04,83.15 214.07,84.18C214.1,85.21 214.12,86.25 214.15,87.28C214.17,88.31 214.2,89.34 214.22,90.37C214.24,91.4 214.25,92.44 214.27,93.47C214.28,94.5 214.3,95.53 214.31,96.56C214.32,97.59 214.34,98.63 214.35,99.66C214.36,100.69 214.37,101.73 214.38,102.76C214.39,103.79 214.4,104.82 214.41,105.85C214.42,106.88 214.42,107.92 214.43,108.95C214.44,109.98 214.45,111.01 214.46,112.04C214.47,113.07 214.47,114.11 214.48,115.14C214.49,116.17 214.49,117.21 214.5,118.24C214.51,119.27 214.51,120.3 214.52,121.33C214.53,122.36 214.54,123.4 214.55,124.43C214.56,125.46 214.58,126.49 214.59,127.52C214.61,128.55 214.62,129.59 214.64,130.62C214.66,131.65 214.69,132.69 214.71,133.72C214.73,134.75 214.76,135.78 214.78,136.81C214.81,137.84 214.83,138.88 214.86,139.91C214.88,140.94 214.91,141.98 214.93,143.01C214.95,144.04 214.97,145.07 214.99,146.1C215.01,147.13 215.03,148.17 215.05,149.2C215.07,150.23 215.08,151.26 215.09,152.29C215.11,153.32 215.12,154.36 215.14,155.39C215.15,156.42 215.17,157.46 215.18,158.49C215.19,159.52 215.2,160.55 215.21,161.58C215.22,162.61 215.22,163.65 215.23,164.68C215.24,165.71 215.25,166.74 215.25,167.77C215.26,168.8 215.26,169.84 215.26,170.87C215.26,171.9 215.27,172.94 215.27,173.97C215.27,175 215.27,176.03 215.27,177.06C215.27,178.09 215.28,179.13 215.28,180.16C215.28,181.19 215.28,182.22 215.28,183.25C215.28,184.28 215.28,185.32 215.28,186.35C215.28,187.38 215.29,188.42 215.29,189.45C215.29,190.48 215.29,191.51 215.29,192.54C215.29,193.57 215.29,194.61 215.29,195.64C215.29,196.67 215.29,197.7 215.29,198.73C215.29,199.76 215.29,200.8 215.29,201.83C215.29,202.86 215.29,203.9 215.29,204.93C215.29,205.96 215.29,206.99 215.29,208.02C215.29,209.05 215.29,210.09 215.29,211.12C215.29,212.15 215.3,213.18 215.3,214.21C215.3,215.24 215.3,216.28 215.3,217.31C215.3,218.34 215.3,219.38 215.3,220.41C215.3,221.44 215.29,222.47 215.29,223.5C215.29,224.53 215.28,225.57 215.28,226.6C215.28,227.63 215.27,228.66 215.27,229.69C215.27,230.72 215.26,231.76 215.26,232.79C215.26,233.82 215.26,234.86 215.26,235.89C215.26,236.92 215.27,237.95 215.28,238.98C215.29,240.01 215.29,241.05 215.3,242.08C215.31,243.11 215.31,244.14 215.32,245.17C215.33,246.2 215.33,247.24 215.34,248.27C215.35,249.3 215.35,250.34 215.36,251.37C215.36,252.4 215.37,253.43 215.37,254.46C215.38,255.49 215.38,256.53 215.39,257.56C215.39,258.59 215.39,259.63 215.4,260.66C215.4,261.69 215.41,262.72 215.42,263.75C215.43,264.78 215.43,265.82 215.44,266.85C215.45,267.88 215.45,268.91 215.46,269.94C215.47,270.97 215.47,272.01 215.48,273.04C215.49,274.07 215.49,275.11 215.5,276.14C215.5,277.17 215.51,278.2 215.51,279.23C215.51,280.26 215.51,281.3 215.51,282.33C215.51,283.36 215.5,284.39 215.5,285.42C215.5,286.45 215.49,287.49 215.49,288.52C215.49,289.55 215.48,290.59 215.48,291.62C215.48,292.65 215.49,293.68 215.5,294.71C215.51,295.74 215.51,296.78 215.53,297.81C215.54,298.84 215.57,299.87 215.59,300.9Q215.62,301.93 215.68,304Z" style="vector-effect: non-scaling-stroke; stroke-width: 2px; stroke: rgb(239, 85, 59); stroke-opacity: 1; fill: rgb(239, 85, 59); fill-opacity: 0.5;"/><path class="violin" d="M345.39,303.54Q345.44,301.59 345.46,300.61C345.48,299.63 345.51,298.65 345.53,297.67C345.55,296.69 345.56,295.72 345.58,294.74C345.59,293.76 345.61,292.79 345.62,291.81C345.63,290.83 345.64,289.86 345.65,288.88C345.66,287.9 345.67,286.92 345.68,285.94C345.69,284.96 345.69,283.99 345.7,283.01C345.71,282.03 345.71,281.06 345.72,280.08C345.73,279.1 345.73,278.12 345.74,277.14C345.75,276.16 345.75,275.19 345.76,274.21C345.77,273.23 345.78,272.26 345.79,271.28C345.8,270.3 345.8,269.33 345.81,268.35C345.82,267.37 345.83,266.39 345.84,265.41C345.85,264.43 345.85,263.46 345.86,262.48C345.87,261.5 345.88,260.53 345.88,259.55C345.89,258.57 345.89,257.59 345.89,256.61C345.89,255.63 345.9,254.66 345.9,253.68C345.9,252.7 345.89,251.73 345.89,250.75C345.89,249.77 345.88,248.8 345.88,247.82C345.88,246.84 345.88,245.86 345.87,244.88C345.87,243.9 345.86,242.93 345.85,241.95C345.85,240.97 345.84,240 345.84,239.02C345.83,238.04 345.83,237.06 345.82,236.08C345.82,235.1 345.81,234.13 345.81,233.15C345.81,232.17 345.81,231.2 345.81,230.22C345.81,229.24 345.8,228.27 345.8,227.29C345.8,226.31 345.8,225.33 345.8,224.35C345.8,223.37 345.79,222.4 345.79,221.42C345.79,220.44 345.78,219.47 345.78,218.49C345.77,217.51 345.76,216.54 345.76,215.56C345.75,214.58 345.75,213.6 345.75,212.62C345.75,211.64 345.75,210.67 345.75,209.69C345.75,208.71 345.76,207.74 345.76,206.76C345.76,205.78 345.76,204.8 345.77,203.82C345.78,202.84 345.79,201.87 345.8,200.89C345.81,199.91 345.82,198.94 345.83,197.96C345.84,196.98 345.85,196.01 345.86,195.03C345.87,194.05 345.88,193.07 345.89,192.09C345.9,191.11 345.9,190.14 345.9,189.16C345.91,188.18 345.91,187.21 345.92,186.23C345.93,185.25 345.93,184.27 345.94,183.29C345.95,182.31 345.95,181.34 345.96,180.36C345.97,179.38 345.97,178.41 345.98,177.43C345.99,176.45 346,175.48 346.01,174.5C346.02,173.52 346.02,172.54 346.03,171.56C346.04,170.58 346.05,169.61 346.06,168.63C346.07,167.65 346.07,166.68 346.08,165.7C346.09,164.72 346.09,163.74 346.1,162.76C346.11,161.78 346.12,160.81 346.12,159.83C346.12,158.85 346.12,157.88 346.12,156.9C346.12,155.92 346.13,154.95 346.13,153.97C346.13,152.99 346.14,152.01 346.14,151.03C346.14,150.05 346.15,149.08 346.15,148.1C346.15,147.12 346.16,146.15 346.16,145.17C346.17,144.19 346.17,143.21 346.18,142.23C346.19,141.25 346.2,140.28 346.21,139.3C346.22,138.32 346.22,137.35 346.23,136.37C346.24,135.39 346.26,134.42 346.27,133.44C346.28,132.46 346.29,131.48 346.3,130.5C346.31,129.52 346.33,128.55 346.35,127.57C346.37,126.59 346.38,125.62 346.4,124.64C346.42,123.66 346.43,122.69 346.45,121.71C346.47,120.73 346.49,119.75 346.51,118.77C346.53,117.79 346.54,116.82 346.55,115.84C346.56,114.86 346.58,113.89 346.59,112.91C346.6,111.93 346.61,110.95 346.62,109.97C346.63,108.99 346.63,108.02 346.64,107.04C346.65,106.06 346.66,105.09 346.67,104.11C346.68,103.13 346.69,102.16 346.7,101.18C346.71,100.2 346.72,99.22 346.73,98.24C346.74,97.26 346.76,96.29 346.78,95.31C346.8,94.33 346.82,93.36 346.84,92.38C346.86,91.4 346.89,90.42 346.92,89.44C346.95,88.46 346.98,87.49 347.01,86.51C347.04,85.53 347.08,84.56 347.12,83.58C347.16,82.6 347.19,81.63 347.23,80.65C347.27,79.67 347.32,78.69 347.37,77.71C347.42,76.73 347.46,75.76 347.52,74.78C347.58,73.8 347.64,72.83 347.71,71.85C347.78,70.87 347.86,69.89 347.96,68.91C348.06,67.93 348.16,66.96 348.29,65.98C348.42,65 348.56,64.02 348.73,63.05C348.9,62.07 349.1,61.09 349.33,60.12C349.56,59.14 349.81,58.15 350.1,57.18C350.39,56.2 350.73,55.22 351.09,54.25C351.46,53.27 351.85,52.29 352.28,51.32C352.71,50.33 353.19,49.35 353.67,48.38C354.16,47.4 354.68,46.42 355.19,45.45C355.71,44.47 356.25,43.5 356.76,42.52C357.26,41.55 357.78,40.58 358.23,39.59C358.68,38.62 359.12,37.64 359.47,36.65C359.81,35.68 360.11,34.71 360.29,33.72C360.47,32.75 360.57,31.76 360.54,30.79C360.51,29.81 360.34,28.82 360.08,27.86C359.81,26.87 359.39,25.88 358.91,24.92C358.41,23.92 357.75,22.95 357.09,21.99C356.41,21 355.62,20.03 354.86,19.06Q354.09,18.08 352.48,16.12L337.67,16.12Q336.06,18.08 335.29,19.06C334.53,20.03 333.74,21 333.06,21.99C332.4,22.95 331.74,23.92 331.24,24.92C330.76,25.88 330.34,26.87 330.07,27.86C329.81,28.82 329.64,29.81 329.61,30.79C329.58,31.76 329.68,32.75 329.86,33.72C330.04,34.71 330.34,35.68 330.68,36.65C331.03,37.64 331.47,38.62 331.92,39.59C332.37,40.58 332.89,41.55 333.39,42.52C333.9,43.5 334.44,44.47 334.96,45.45C335.47,46.42 335.99,47.4 336.48,48.38C336.96,49.35 337.44,50.33 337.87,51.32C338.3,52.29 338.69,53.27 339.06,54.25C339.42,55.22 339.76,56.2 340.05,57.18C340.34,58.15 340.59,59.14 340.82,60.12C341.05,61.09 341.25,62.07 341.42,63.05C341.59,64.02 341.73,65 341.86,65.98C341.99,66.96 342.09,67.93 342.19,68.91C342.29,69.89 342.37,70.87 342.44,71.85C342.51,72.83 342.57,73.8 342.63,74.78C342.69,75.76 342.73,76.73 342.78,77.71C342.83,78.69 342.88,79.67 342.92,80.65C342.96,81.63 342.99,82.6 343.03,83.58C343.07,84.56 343.11,85.53 343.14,86.51C343.17,87.49 343.2,88.46 343.23,89.44C343.26,90.42 343.29,91.4 343.31,92.38C343.33,93.36 343.35,94.33 343.37,95.31C343.39,96.29 343.41,97.26 343.42,98.24C343.43,99.22 343.44,100.2 343.45,101.18C343.46,102.16 343.47,103.13 343.48,104.11C343.49,105.09 343.5,106.06 343.51,107.04C343.52,108.02 343.52,108.99 343.53,109.97C343.54,110.95 343.55,111.93 343.56,112.91C343.57,113.89 343.59,114.86 343.6,115.84C343.61,116.82 343.62,117.79 343.64,118.77C343.66,119.75 343.68,120.73 343.7,121.71C343.72,122.69 343.73,123.66 343.75,124.64C343.77,125.62 343.78,126.59 343.8,127.57C343.82,128.55 343.84,129.52 343.85,130.5C343.86,131.48 343.87,132.46 343.88,133.44C343.89,134.42 343.91,135.39 343.92,136.37C343.93,137.35 343.93,138.32 343.94,139.3C343.95,140.28 343.96,141.25 343.97,142.23C343.98,143.21 343.98,144.19 343.99,145.17C343.99,146.15 344,147.12 344,148.1C344,149.08 344.01,150.05 344.01,151.03C344.01,152.01 344.02,152.99 344.02,153.97C344.02,154.95 344.03,155.92 344.03,156.9C344.03,157.88 344.03,158.85 344.03,159.83C344.03,160.81 344.04,161.78 344.05,162.76C344.06,163.74 344.06,164.72 344.07,165.7C344.08,166.68 344.08,167.65 344.09,168.63C344.1,169.61 344.11,170.58 344.12,171.56C344.13,172.54 344.13,173.52 344.14,174.5C344.15,175.48 344.16,176.45 344.17,177.43C344.18,178.41 344.18,179.38 344.19,180.36C344.2,181.34 344.2,182.31 344.21,183.29C344.22,184.27 344.22,185.25 344.23,186.23C344.24,187.21 344.24,188.18 344.25,189.16C344.25,190.14 344.25,191.11 344.26,192.09C344.27,193.07 344.28,194.05 344.29,195.03C344.3,196.01 344.31,196.98 344.32,197.96C344.33,198.94 344.34,199.91 344.35,200.89C344.36,201.87 344.37,202.84 344.38,203.82C344.39,204.8 344.39,205.78 344.39,206.76C344.39,207.74 344.4,208.71 344.4,209.69C344.4,210.67 344.4,211.64 344.4,212.62C344.4,213.6 344.4,214.58 344.39,215.56C344.39,216.54 344.38,217.51 344.37,218.49C344.37,219.47 344.36,220.44 344.36,221.42C344.36,222.4 344.35,223.37 344.35,224.35C344.35,225.33 344.35,226.31 344.35,227.29C344.35,228.27 344.34,229.24 344.34,230.22C344.34,231.2 344.34,232.17 344.34,233.15C344.34,234.13 344.33,235.1 344.33,236.08C344.32,237.06 344.32,238.04 344.31,239.02C344.31,240 344.3,240.97 344.3,241.95C344.29,242.93 344.28,243.9 344.28,244.88C344.27,245.86 344.27,246.84 344.27,247.82C344.27,248.8 344.26,249.77 344.26,250.75C344.26,251.73 344.25,252.7 344.25,253.68C344.25,254.66 344.26,255.63 344.26,256.61C344.26,257.59 344.26,258.57 344.27,259.55C344.27,260.53 344.28,261.5 344.29,262.48C344.3,263.46 344.3,264.43 344.31,265.41C344.32,266.39 344.33,267.37 344.34,268.35C344.35,269.33 344.35,270.3 344.36,271.28C344.37,272.26 344.38,273.23 344.39,274.21C344.4,275.19 344.4,276.16 344.41,277.14C344.42,278.12 344.42,279.1 344.43,280.08C344.44,281.06 344.44,282.03 344.45,283.01C344.46,283.99 344.46,284.96 344.47,285.94C344.48,286.92 344.49,287.9 344.5,288.88C344.51,289.86 344.52,290.83 344.53,291.81C344.54,292.79 344.56,293.76 344.57,294.74C344.59,295.72 344.6,296.69 344.62,297.67C344.64,298.65 344.67,299.63 344.69,300.61Q344.71,301.59 344.76,303.54Z" style="vector-effect: non-scaling-stroke; stroke-width: 2px; stroke: rgb(239, 85, 59); stroke-opacity: 1; fill: rgb(239, 85, 59); fill-opacity: 0.5;"/><path class="violin" d="M474.44,303.22Q474.5,301.29 474.53,300.32C474.56,299.35 474.59,298.39 474.61,297.42C474.63,296.45 474.65,295.49 474.67,294.52C474.69,293.56 474.71,292.59 474.72,291.63C474.74,290.66 474.75,289.7 474.76,288.73C474.77,287.76 474.78,286.8 474.79,285.83C474.8,284.86 474.8,283.9 474.81,282.93C474.81,281.96 474.82,281 474.82,280.03C474.82,279.06 474.83,278.1 474.83,277.13C474.83,276.16 474.84,275.2 474.84,274.23C474.84,273.26 474.84,272.3 474.84,271.33C474.84,270.37 474.84,269.4 474.84,268.44C474.84,267.47 474.83,266.51 474.83,265.54C474.83,264.57 474.83,263.61 474.82,262.64C474.81,261.67 474.8,260.71 474.79,259.74C474.78,258.77 474.78,257.81 474.77,256.84C474.76,255.87 474.75,254.91 474.74,253.94C474.73,252.97 474.72,252.01 474.71,251.04C474.7,250.07 474.7,249.11 474.69,248.14C474.69,247.18 474.68,246.21 474.68,245.25C474.68,244.28 474.68,243.32 474.69,242.35C474.7,241.38 474.71,240.42 474.72,239.45C474.73,238.48 474.74,237.52 474.75,236.55C474.76,235.58 474.77,234.62 474.78,233.65C474.79,232.68 474.8,231.72 474.81,230.75C474.82,229.78 474.82,228.82 474.83,227.85C474.84,226.88 474.84,225.92 474.85,224.95C474.85,223.99 474.86,223.02 474.86,222.06C474.86,221.09 474.86,220.13 474.86,219.16C474.86,218.19 474.86,217.23 474.86,216.26C474.86,215.29 474.86,214.33 474.86,213.36C474.86,212.39 474.85,211.43 474.85,210.46C474.85,209.49 474.85,208.53 474.85,207.56C474.85,206.59 474.84,205.63 474.84,204.66C474.84,203.69 474.83,202.73 474.83,201.76C474.83,200.8 474.82,199.83 474.82,198.87C474.82,197.9 474.81,196.94 474.81,195.97C474.8,195 474.8,194.04 474.79,193.07C474.79,192.1 474.78,191.14 474.78,190.17C474.77,189.2 474.77,188.24 474.76,187.27C474.76,186.3 474.75,185.34 474.75,184.37C474.75,183.4 474.74,182.44 474.74,181.47C474.74,180.5 474.74,179.54 474.74,178.57C474.74,177.61 474.74,176.64 474.75,175.68C474.76,174.71 474.77,173.75 474.78,172.78C474.79,171.81 474.8,170.85 474.81,169.88C474.82,168.91 474.84,167.95 474.85,166.98C474.86,166.01 474.88,165.05 474.89,164.08C474.9,163.11 474.92,162.15 474.93,161.18C474.95,160.21 474.96,159.25 474.98,158.28C474.99,157.32 475.01,156.35 475.02,155.39C475.04,154.42 475.05,153.46 475.07,152.49C475.09,151.52 475.1,150.56 475.12,149.59C475.14,148.62 475.15,147.66 475.17,146.69C475.19,145.72 475.2,144.76 475.22,143.79C475.23,142.82 475.25,141.86 475.26,140.89C475.27,139.92 475.28,138.96 475.29,137.99C475.3,137.02 475.3,136.06 475.31,135.09C475.32,134.13 475.32,133.16 475.33,132.2C475.34,131.23 475.35,130.27 475.36,129.3C475.37,128.33 475.38,127.37 475.39,126.4C475.4,125.43 475.42,124.47 475.43,123.5C475.44,122.53 475.46,121.57 475.47,120.6C475.48,119.63 475.5,118.67 475.51,117.7C475.52,116.73 475.54,115.77 475.55,114.8C475.56,113.83 475.58,112.87 475.59,111.9C475.6,110.94 475.62,109.97 475.63,109.01C475.65,108.04 475.66,107.08 475.68,106.11C475.7,105.14 475.71,104.18 475.73,103.21C475.75,102.24 475.77,101.28 475.79,100.31C475.81,99.34 475.83,98.38 475.85,97.41C475.87,96.44 475.9,95.48 475.92,94.51C475.94,93.54 475.97,92.58 475.99,91.61C476.01,90.64 476.03,89.68 476.06,88.71C476.09,87.75 476.13,86.78 476.16,85.82C476.2,84.85 476.23,83.89 476.27,82.92C476.31,81.95 476.35,80.99 476.4,80.02C476.45,79.05 476.5,78.09 476.56,77.12C476.62,76.15 476.68,75.19 476.74,74.22C476.81,73.25 476.88,72.29 476.95,71.32C477.03,70.35 477.1,69.39 477.19,68.42C477.28,67.45 477.38,66.49 477.49,65.52C477.6,64.56 477.72,63.59 477.86,62.63C478,61.66 478.16,60.69 478.34,59.73C478.52,58.76 478.73,57.79 478.96,56.83C479.2,55.86 479.46,54.89 479.75,53.93C480.05,52.96 480.37,51.99 480.73,51.03C481.09,50.06 481.49,49.09 481.91,48.13C482.34,47.16 482.81,46.19 483.29,45.23C483.78,44.26 484.29,43.29 484.81,42.33C485.33,41.36 485.88,40.41 486.4,39.44C486.91,38.48 487.44,37.52 487.9,36.54C488.35,35.58 488.79,34.62 489.11,33.64C489.42,32.69 489.69,31.71 489.8,30.74C489.9,29.78 489.9,28.8 489.75,27.84C489.59,26.86 489.27,25.88 488.86,24.94C488.43,23.95 487.81,22.99 487.17,22.04C486.5,21.05 485.7,20.1 484.91,19.14Q484.11,18.16 482.39,16.25L465.76,16.25Q464.04,18.16 463.24,19.14C462.45,20.1 461.65,21.05 460.98,22.04C460.34,22.99 459.72,23.95 459.29,24.94C458.88,25.88 458.56,26.86 458.4,27.84C458.25,28.8 458.25,29.78 458.35,30.74C458.46,31.71 458.73,32.69 459.04,33.64C459.36,34.62 459.8,35.58 460.25,36.54C460.71,37.52 461.24,38.48 461.75,39.44C462.27,40.41 462.82,41.36 463.34,42.33C463.86,43.29 464.37,44.26 464.86,45.23C465.34,46.19 465.81,47.16 466.24,48.13C466.66,49.09 467.06,50.06 467.42,51.03C467.78,51.99 468.1,52.96 468.4,53.93C468.69,54.89 468.95,55.86 469.19,56.83C469.42,57.79 469.63,58.76 469.81,59.73C469.99,60.69 470.15,61.66 470.29,62.63C470.43,63.59 470.55,64.56 470.66,65.52C470.77,66.49 470.87,67.45 470.96,68.42C471.05,69.39 471.12,70.35 471.2,71.32C471.27,72.29 471.34,73.25 471.41,74.22C471.47,75.19 471.53,76.15 471.59,77.12C471.65,78.09 471.7,79.05 471.75,80.02C471.8,80.99 471.84,81.95 471.88,82.92C471.92,83.89 471.95,84.85 471.99,85.82C472.02,86.78 472.06,87.75 472.09,88.71C472.12,89.68 472.14,90.64 472.16,91.61C472.18,92.58 472.21,93.54 472.23,94.51C472.25,95.48 472.28,96.44 472.3,97.41C472.32,98.38 472.34,99.34 472.36,100.31C472.38,101.28 472.4,102.24 472.42,103.21C472.44,104.18 472.45,105.14 472.47,106.11C472.49,107.08 472.5,108.04 472.52,109.01C472.53,109.97 472.55,110.94 472.56,111.9C472.57,112.87 472.59,113.83 472.6,114.8C472.61,115.77 472.63,116.73 472.64,117.7C472.65,118.67 472.67,119.63 472.68,120.6C472.69,121.57 472.71,122.53 472.72,123.5C472.73,124.47 472.75,125.43 472.76,126.4C472.77,127.37 472.78,128.33 472.79,129.3C472.8,130.27 472.81,131.23 472.82,132.2C472.83,133.16 472.83,134.13 472.84,135.09C472.85,136.06 472.85,137.02 472.86,137.99C472.87,138.96 472.88,139.92 472.89,140.89C472.9,141.86 472.92,142.82 472.93,143.79C472.95,144.76 472.96,145.72 472.98,146.69C473,147.66 473.01,148.62 473.03,149.59C473.05,150.56 473.06,151.52 473.08,152.49C473.1,153.46 473.11,154.42 473.13,155.39C473.14,156.35 473.16,157.32 473.17,158.28C473.19,159.25 473.2,160.21 473.22,161.18C473.23,162.15 473.25,163.11 473.26,164.08C473.27,165.05 473.29,166.01 473.3,166.98C473.31,167.95 473.33,168.91 473.34,169.88C473.35,170.85 473.36,171.81 473.37,172.78C473.38,173.75 473.39,174.71 473.4,175.68C473.41,176.64 473.41,177.61 473.41,178.57C473.41,179.54 473.41,180.5 473.41,181.47C473.41,182.44 473.4,183.4 473.4,184.37C473.4,185.34 473.39,186.3 473.39,187.27C473.38,188.24 473.38,189.2 473.37,190.17C473.37,191.14 473.36,192.1 473.36,193.07C473.35,194.04 473.35,195 473.34,195.97C473.34,196.94 473.33,197.9 473.33,198.87C473.33,199.83 473.32,200.8 473.32,201.76C473.32,202.73 473.31,203.69 473.31,204.66C473.31,205.63 473.3,206.59 473.3,207.56C473.3,208.53 473.3,209.49 473.3,210.46C473.3,211.43 473.29,212.39 473.29,213.36C473.29,214.33 473.29,215.29 473.29,216.26C473.29,217.23 473.29,218.19 473.29,219.16C473.29,220.13 473.29,221.09 473.29,222.06C473.29,223.02 473.3,223.99 473.3,224.95C473.31,225.92 473.31,226.88 473.32,227.85C473.33,228.82 473.33,229.78 473.34,230.75C473.35,231.72 473.36,232.68 473.37,233.65C473.38,234.62 473.39,235.58 473.4,236.55C473.41,237.52 473.42,238.48 473.43,239.45C473.44,240.42 473.45,241.38 473.46,242.35C473.47,243.32 473.47,244.28 473.47,245.25C473.47,246.21 473.46,247.18 473.46,248.14C473.45,249.11 473.45,250.07 473.44,251.04C473.43,252.01 473.42,252.97 473.41,253.94C473.4,254.91 473.39,255.87 473.38,256.84C473.37,257.81 473.37,258.77 473.36,259.74C473.35,260.71 473.34,261.67 473.33,262.64C473.32,263.61 473.32,264.57 473.32,265.54C473.32,266.51 473.31,267.47 473.31,268.44C473.31,269.4 473.31,270.37 473.31,271.33C473.31,272.3 473.31,273.26 473.31,274.23C473.31,275.2 473.32,276.16 473.32,277.13C473.32,278.1 473.33,279.06 473.33,280.03C473.33,281 473.34,281.96 473.34,282.93C473.35,283.9 473.35,284.86 473.36,285.83C473.37,286.8 473.38,287.76 473.39,288.73C473.4,289.7 473.41,290.66 473.43,291.63C473.44,292.59 473.46,293.56 473.48,294.52C473.5,295.49 473.52,296.45 473.54,297.42C473.56,298.39 473.59,299.35 473.62,300.32Q473.65,301.29 473.71,303.22Z" style="vector-effect: non-scaling-stroke; stroke-width: 2px; stroke: rgb(239, 85, 59); stroke-opacity: 1; fill: rgb(239, 85, 59); fill-opacity: 0.5;"/><path class="box" d="M83.12,39.48H91.03M83.12,89.47H91.03V27.61H83.12ZM87.08,89.47V182.24M87.08,27.61V16" style="vector-effect: non-scaling-stroke; stroke-width: 2px; stroke: rgb(239, 85, 59); stroke-opacity: 1; fill: rgb(239, 85, 59); fill-opacity: 0.5;"/><path class="box" d="M212.12,39.67H220.03M212.12,91.94H220.03V27.48H212.12ZM216.08,91.94V188.52M216.08,27.48V16.07" style="vector-effect: non-scaling-stroke; stroke-width: 2px; stroke: rgb(239, 85, 59); stroke-opacity: 1; fill: rgb(239, 85, 59); fill-opacity: 0.5;"/><path class="box" d="M341.12,41.16H349.03M341.12,90.33H349.03V29.21H341.12ZM345.08,90.33V180.93M345.08,29.21V16.12" style="vector-effect: non-scaling-stroke; stroke-width: 2px; stroke: rgb(239, 85, 59); stroke-opacity: 1; fill: rgb(239, 85, 59); fill-opacity: 0.5;"/><path class="box" d="M470.12,40.11H478.03M470.12,88.25H478.03V27.86H470.12ZM474.08,88.25V178.73M474.08,27.86V16.25" style="vector-effect: non-scaling-stroke; stroke-width: 2px; stroke: rgb(239, 85, 59); stroke-opacity: 1; fill: rgb(239, 85, 59); fill-opacity: 0.5;"/><path class="mean" d="M83.12,72.89H91.03" style="fill: none; vector-effect: non-scaling-stroke; stroke-width: 2px; stroke-dasharray: 4px, 2px; stroke: rgb(0, 0, 0); stroke-opacity: 1;"/><path class="mean" d="M212.12,72.95H220.03" style="fill: none; vector-effect: non-scaling-stroke; stroke-width: 2px; stroke-dasharray: 4px, 2px; stroke: rgb(0, 0, 0); stroke-opacity: 1;"/><path class="mean" d="M341.12,73.69H349.03" style="fill: none; vector-effect: non-scaling-stroke; stroke-width: 2px; stroke-dasharray: 4px, 2px; stroke: rgb(0, 0, 0); stroke-opacity: 1;"/><path class="mean" d="M470.12,72.62H478.03" style="fill: none; vector-effect: non-scaling-stroke; stroke-width: 2px; stroke-dasharray: 4px, 2px; stroke: rgb(0, 0, 0); stroke-opacity: 1;"/></g></g></g><g class="overplot"/><path class="xlines-above crisp" d="M0,0" style="fill: none;"/><path class="ylines-above crisp" d="M0,0" style="fill: none;"/><g class="overlines-above"/><g class="xaxislayer-above"><g class="xtick"><text text-anchor="middle" x="0" y="433" transform="translate(144.5,0)" style="font-family: 'Open Sans', verdana, arial, sans-serif; font-size: 12px; fill: rgb(42, 63, 95); fill-opacity: 1; white-space: pre; opacity: 1;">CIFAR10</text></g><g class="xtick"><text text-anchor="middle" x="0" y="433" transform="translate(273.5,0)" style="font-family: 'Open Sans', verdana, arial, sans-serif; font-size: 12px; fill: rgb(42, 63, 95); fill-opacity: 1; white-space: pre; opacity: 1;">CIFAR100</text></g><g class="xtick"><text text-anchor="middle" x="0" y="433" transform="translate(402.5,0)" style="font-family: 'Open Sans', verdana, arial, sans-serif; font-size: 12px; fill: rgb(42, 63, 95); fill-opacity: 1; white-space: pre; opacity: 1;">EMNIST</text></g><g class="xtick"><text text-anchor="middle" x="0" y="433" transform="translate(531.5,0)" style="font-family: 'Open Sans', verdana, arial, sans-serif; font-size: 12px; fill: rgb(42, 63, 95); fill-opacity: 1; white-space: pre; opacity: 1;">FashionMNIST</text></g></g><g class="yaxislayer-above"><g class="ytick"><text text-anchor="end" x="79" y="4.199999999999999" transform="translate(0,370.1)" style="font-family: 'Open Sans', verdana, arial, sans-serif; font-size: 12px; fill: rgb(42, 63, 95); fill-opacity: 1; white-space: pre; opacity: 1;">0.8</text></g><g class="ytick"><text text-anchor="end" x="79" y="4.199999999999999" style="font-family: 'Open Sans', verdana, arial, sans-serif; font-size: 12px; fill: rgb(42, 63, 95); fill-opacity: 1; white-space: pre; opacity: 1;" transform="translate(0,306.22)">0.85</text></g><g class="ytick"><text text-anchor="end" x="79" y="4.199999999999999" style="font-family: 'Open Sans', verdana, arial, sans-serif; font-size: 12px; fill: rgb(42, 63, 95); fill-opacity: 1; white-space: pre; opacity: 1;" transform="translate(0,242.34)">0.9</text></g><g class="ytick"><text text-anchor="end" x="79" y="4.199999999999999" style="font-family: 'Open Sans', verdana, arial, sans-serif; font-size: 12px; fill: rgb(42, 63, 95); fill-opacity: 1; white-space: pre; opacity: 1;" transform="translate(0,178.45999999999998)">0.95</text></g><g class="ytick"><text text-anchor="end" x="79" y="4.199999999999999" style="font-family: 'Open Sans', verdana, arial, sans-serif; font-size: 12px; fill: rgb(42, 63, 95); fill-opacity: 1; white-space: pre; opacity: 1;" transform="translate(0,114.58)">1</text></g></g><g class="overaxes-above"/></g></g><g class="polarlayer"/><g class="smithlayer"/><g class="ternarylayer"/><g class="geolayer"/><g class="funnelarealayer"/><g class="pielayer"/><g class="iciclelayer"/><g class="treemaplayer"/><g class="sunburstlayer"/><g class="glimages"/><defs id="topdefs-00032b"><g class="clips"/><clipPath id="legend00032b"><rect width="82" height="67" x="0" y="0"/></clipPath></defs><g class="layer-above"><g class="imagelayer"/><g class="shapelayer"/></g><g class="infolayer"><g class="legend" pointer-events="all" transform="translate(606.32,100)"><rect class="bg" shape-rendering="crispEdges" width="82" height="67" x="0" y="0" style="stroke: rgb(68, 68, 68); stroke-opacity: 1; fill: rgb(255, 255, 255); fill-opacity: 1; stroke-width: 0px;"/><g class="scrollbox" transform="" clip-path="url(#legend00032b)"><text class="legendtitletext" text-anchor="start" x="2" y="18.2" style="font-family: 'Open Sans', verdana, arial, sans-serif; font-size: 14px; fill: rgb(42, 63, 95); fill-opacity: 1; white-space: pre;">SHAP mode</text><g class="groups"><g class="traces" transform="translate(0,32.7)" style="opacity: 1;"><text class="legendtext" text-anchor="start" x="40" y="4.680000000000001" style="font-family: 'Open Sans', verdana, arial, sans-serif; font-size: 12px; fill: rgb(42, 63, 95); fill-opacity: 1; white-space: pre;">Global</text><g class="layers" style="opacity: 1;"><g class="legendfill"/><g class="legendlines"/><g class="legendsymbols"><g class="legendpoints"><path class="legendbox" d="M6,6H-6V-6H6Z" transform="translate(20,0)" style="stroke-width: 2px; fill: rgb(99, 110, 250); fill-opacity: 0.5; stroke: rgb(99, 110, 250); stroke-opacity: 1;"/></g></g></g><rect class="legendtoggle" x="0" y="-9.5" width="74.6875" height="19" style="fill: rgb(0, 0, 0); fill-opacity: 0;"/></g><g class="traces" transform="translate(0,51.7)" style="opacity: 1;"><text class="legendtext" text-anchor="start" x="40" y="4.680000000000001" style="font-family: 'Open Sans', verdana, arial, sans-serif; font-size: 12px; fill: rgb(42, 63, 95); fill-opacity: 1; white-space: pre;">Local</text><g class="layers" style="opacity: 1;"><g class="legendfill"/><g class="legendlines"/><g class="legendsymbols"><g class="legendpoints"><path class="legendbox" d="M6,6H-6V-6H6Z" transform="translate(20,0)" style="stroke-width: 2px; fill: rgb(239, 85, 59); fill-opacity: 0.5; stroke: rgb(239, 85, 59); stroke-opacity: 1;"/></g></g></g><rect class="legendtoggle" x="0" y="-9.5" width="74.6875" height="19" style="fill: rgb(0, 0, 0); fill-opacity: 0;"/></g></g></g><rect class="scrollbar" rx="20" ry="3" width="0" height="0" x="0" y="0" style="fill: rgb(128, 139, 164); fill-opacity: 1;"/></g><g class="g-gtitle"/><g class="g-xtitle"/><g class="g-ytitle"/></g></svg>